SplineFontDB: 3.0
FontName: OtherLetter-Regular
FullName: OtherLetter
FamilyName: OtherLetter
Weight: Light
Copyright: Copyright (c) 2013 by Pathum Egodawatta, with Reserved Font Name 'OtherLetter'
Version: 0.001;PS 0.1;hotconv 1.0.70;makeotf.lib2.5.58329
ItalicAngle: 0
UnderlinePosition: -103
UnderlineWidth: 102
Ascent: 1638
Descent: 410
InvalidEm: 0
sfntRevision: 0x00000042
LayerCount: 2
Layer: 0 1 "Back" 1
Layer: 1 1 "Fore" 0
XUID: [1021 811 1469596780 5835675]
FSType: 0
OS2Version: 3
OS2_WeightWidthSlopeOnly: 0
OS2_UseTypoMetrics: 1
CreationTime: 1393996980
ModificationTime: 1426966582
PfmFamily: 81
TTFWeight: 250
TTFWidth: 5
LineGap: 0
VLineGap: 0
Panose: 0 0 5 0 0 0 0 2 0 4
OS2TypoAscent: 2070
OS2TypoAOffset: 0
OS2TypoDescent: -600
OS2TypoDOffset: 0
OS2TypoLinegap: 0
OS2WinAscent: 2070
OS2WinAOffset: 0
OS2WinDescent: 600
OS2WinDOffset: 0
HheadAscent: 2070
HheadAOffset: 0
HheadDescent: -600
HheadDOffset: 0
OS2SubXSize: 1331
OS2SubYSize: 1228
OS2SubXOff: 0
OS2SubYOff: 153
OS2SupXSize: 1331
OS2SupYSize: 1228
OS2SupXOff: 0
OS2SupYOff: 716
OS2StrikeYSize: 102
OS2StrikeYPos: 752
OS2CapHeight: 0
OS2XHeight: 0
OS2Vendor: 'MONO'
OS2CodePages: 00000001.00000000
OS2UnicodeRanges: 00010003.00004044.00000200.00000000
Lookup: 258 0 0 "'kern' Horizontal Kerning lookup 0" { "'kern' Horizontal Kerning lookup 0 subtable"  } ['kern' ('DFLT' <'dflt' > ) ]
DEI: 91125
ShortTable: maxp 16
  1
  0
  433
  270
  8
  307
  6
  1
  0
  0
  0
  0
  512
  1023
  0
  1
EndShort
LangName: 1033 "" "" "" "0.001;MONO;OtherLetter-Regular" "" "Version 0.001;PS 0.1;hotconv 1.0.70;makeotf.lib2.5.58329" "" "OtherLetter is a trademark of Pathum Egodawatta." "mooniak" "Pathum Egodawatta" "Designed by Pathum Egodawatta" "http://mooniak.com/" "http://iampathum.com/" "Licensed under the SIL Open Font License, Version 1.1." "http://scripts.sil.org/OFL"
Encoding: UnicodeBmp
Compacted: 1
UnicodeInterp: none
NameList: AGL For New Fonts
DisplaySize: -48
AntiAlias: 1
FitToEm: 1
WinInfo: 0 16 8

StartChar: .notdef
Encoding: 65536 -1 0
Width: 1229
Flags: W
LayerCount: 2
Back
Fore
SplineSet
193 0 m 1,0,-1
 193 1462 l 1,1,-1
 1034 1462 l 1,2,-1
 1034 0 l 1,3,-1
 193 0 l 1,0,-1
297 1358 m 1,4,-1
 297 104 l 1,5,-1
 930 104 l 1,6,-1
 930 1358 l 1,7,-1
 297 1358 l 1,4,-1
EndSplineSet
EndChar

StartChar: minus
Encoding: 8722 8722 2
Width: 1171
Flags: W
LayerCount: 2
Back
Fore
SplineSet
1067 649 m 1,0,-1
 102 649 l 1,1,-1
 102 795 l 1,2,-1
 1067 795 l 1,3,-1
 1067 649 l 1,0,-1
EndSplineSet
EndChar

StartChar: multiply
Encoding: 215 215 3
Width: 1171
Flags: W
LayerCount: 2
Back
Fore
SplineSet
238 1176 m 1,0,-1
 584 825 l 1,1,-1
 934 1176 l 1,2,-1
 1036 1071 l 1,3,-1
 688 723 l 1,4,-1
 1034 375 l 1,5,-1
 932 270 l 1,6,-1
 582 616 l 1,7,-1
 240 270 l 1,8,-1
 133 375 l 1,9,-1
 479 723 l 1,10,-1
 131 1069 l 1,11,-1
 238 1176 l 1,0,-1
EndSplineSet
EndChar

StartChar: exclam
Encoding: 33 33 4
Width: 591
Flags: W
LayerCount: 2
Back
Fore
SplineSet
412 391 m 2,0,-1
 412 356 l 1,1,-1
 246 357 l 1,2,-1
 246 407 l 2,3,4
 246 633 246 633 192 930 c 0,5,6
 136.525139665 1235.11173184 136.525139665 1235.11173184 139 1443 c 0,7,8
 139 1463 139 1463 139 1483 c 128,-1,9
 139 1503 139 1503 140 1523 c 1,10,-1
 305 1518 l 1,11,12
 304 1504 304 1504 304 1489 c 2,13,-1
 304 1460 l 2,14,15
 304 1254.36363636 304 1254.36363636 355 953 c 1,16,17
 412 683.724137931 412 683.724137931 412 391 c 2,0,-1
343 231 m 256,18,19
 419.380952381 231 419.380952381 231 451.5 160 c 0,20,21
 461 139 461 139 461 114.5 c 0,22,23
 461 65 461 65 426 30 c 256,24,25
 392 -4 392 -4 343 -4 c 256,26,27
 265.590909091 -4 265.590909091 -4 234.5 68 c 0,28,29
 225 90 225 90 225 114.5 c 0,30,31
 225 162 225 162 260 197 c 256,32,33
 294 231 294 231 343 231 c 256,18,19
EndSplineSet
EndChar

StartChar: quotedbl
Encoding: 34 34 5
Width: 848
Flags: W
LayerCount: 2
Back
Fore
SplineSet
508 1637 m 1,0,-1
 714 1637 l 1,1,-1
 674 1109 l 1,2,-1
 549 1109 l 1,3,-1
 508 1637 l 1,0,-1
133 1637 m 1,4,-1
 340 1637 l 1,5,-1
 299 1109 l 1,6,-1
 174 1109 l 1,7,-1
 133 1637 l 1,4,-1
EndSplineSet
EndChar

StartChar: numbersign
Encoding: 35 35 6
Width: 1323
Flags: W
LayerCount: 2
Back
Fore
SplineSet
540 899 m 1,0,-1
 474 559 l 1,1,-1
 779 559 l 1,2,-1
 845 899 l 1,3,-1
 540 899 l 1,0,-1
1270 899 m 1,4,-1
 984 899 l 1,5,-1
 919 559 l 1,6,-1
 1200 559 l 1,7,-1
 1200 428 l 1,8,-1
 893 428 l 1,9,-1
 809 0 l 1,10,-1
 670 0 l 1,11,-1
 754 428 l 1,12,-1
 449 428 l 1,13,-1
 369 0 l 1,14,-1
 231 0 l 1,15,-1
 309 428 l 1,16,-1
 51 428 l 1,17,-1
 51 559 l 1,18,-1
 335 559 l 1,19,-1
 402 899 l 1,20,-1
 127 899 l 1,21,-1
 127 1028 l 1,22,-1
 426 1028 l 1,23,-1
 508 1462 l 1,24,-1
 649 1462 l 1,25,-1
 567 1028 l 1,26,-1
 874 1028 l 1,27,-1
 956 1462 l 1,28,-1
 1092 1462 l 1,29,-1
 1010 1028 l 1,30,-1
 1270 1028 l 1,31,-1
 1270 899 l 1,4,-1
EndSplineSet
EndChar

StartChar: percent
Encoding: 37 37 7
Width: 1702
Flags: W
LayerCount: 2
Back
Fore
SplineSet
100 1026 m 0,0,1
 100 1483 100 1483 399 1483 c 256,2,3
 548 1483 548 1483 627.5 1366 c 128,-1,4
 707 1249 707 1249 707 1026 c 0,5,6
 707 565 707 565 399 565 c 0,7,8
 178.905882353 565 178.905882353 565 119 833 c 0,9,10
 100 918 100 918 100 1026 c 0,0,1
1178 1462 m 1,11,-1
 1335 1462 l 1,12,-1
 524 0 l 1,13,-1
 367 0 l 1,14,-1
 1178 1462 l 1,11,-1
399 694 m 0,15,16
 563 694 563 694 563 1025 c 128,-1,17
 563 1356 563 1356 399 1356 c 0,18,19
 318 1356 318 1356 281 1273.5 c 128,-1,20
 244 1191 244 1191 244 1025.5 c 128,-1,21
 244 860 244 860 281 777 c 128,-1,22
 318 694 318 694 399 694 c 0,15,16
995 440 m 0,23,24
 995 897 995 897 1294 897 c 0,25,26
 1439.93103448 897 1439.93103448 897 1522 778 c 0,27,28
 1602 659.025641026 1602 659.025641026 1602 440 c 0,29,30
 1602 -20 1602 -20 1294 -20 c 0,31,32
 1150.93220339 -20 1150.93220339 -20 1073 101 c 0,33,34
 995 217 995 217 995 440 c 0,23,24
1294 768 m 0,35,36
 1213 768 1213 768 1176 686.5 c 128,-1,37
 1139 605 1139 605 1139 439 c 128,-1,38
 1139 273 1139 273 1176 191 c 128,-1,39
 1213 109 1213 109 1295.5 109 c 0,40,41
 1458 109 1458 109 1458 438.5 c 128,-1,42
 1458 768 1458 768 1294 768 c 0,35,36
EndSplineSet
EndChar

StartChar: quotesingle
Encoding: 39 39 8
Width: 473
Flags: W
LayerCount: 2
Back
Fore
SplineSet
133 1638 m 1,0,-1
 340 1638 l 1,1,-1
 299 1110 l 1,2,-1
 174 1110 l 1,3,-1
 133 1638 l 1,0,-1
EndSplineSet
EndChar

StartChar: parenleft
Encoding: 40 40 9
Width: 644
Flags: W
LayerCount: 2
Back
Fore
SplineSet
583 1637 m 1,0,1
 277 1187.93506494 277 1187.93506494 277 598.467532468 c 128,-1,2
 277 9 277 9 581 -443 c 1,3,-1
 418 -443 l 1,4,5
 195.251088534 -146.001451379 195.251088534 -146.001451379 132 301.5 c 0,6,7
 112 443 112 443 112 588 c 256,8,9
 112 1034.57142857 112 1034.57142857 290 1416 c 0,10,11
 346 1536 346 1536 418 1637 c 1,12,-1
 583 1637 l 1,0,1
EndSplineSet
EndChar

StartChar: parenright
Encoding: 41 41 10
Width: 644
Flags: W
LayerCount: 2
Back
Fore
SplineSet
61 -443 m 1,0,1
 367 9.09032258065 367 9.09032258065 367 597.04516129 c 128,-1,2
 367 1185 367 1185 63 1637 c 1,3,-1
 226 1637 l 1,4,5
 448.069255966 1342.90828264 448.069255966 1342.90828264 512 889 c 0,6,7
 532 747 532 747 532 604 c 0,8,9
 532 312.609756098 532 312.609756098 451 38 c 0,10,11
 372.145695364 -237.990066225 372.145695364 -237.990066225 226 -443 c 1,12,-1
 61 -443 l 1,0,1
EndSplineSet
EndChar

StartChar: asterisk
Encoding: 42 42 11
Width: 1128
Flags: W
LayerCount: 2
Back
Fore
SplineSet
462 1637 m 1,0,-1
 656 1637 l 1,1,-1
 616 1256 l 1,2,-1
 998 1364 l 1,3,-1
 1026 1180 l 1,4,-1
 661 1151 l 1,5,-1
 897 837 l 1,6,-1
 726 744 l 1,7,-1
 557 1091 l 1,8,-1
 404 744 l 1,9,-1
 227 837 l 1,10,-1
 460 1151 l 1,11,-1
 98 1180 l 1,12,-1
 126 1364 l 1,13,-1
 504 1256 l 1,14,-1
 462 1637 l 1,0,-1
EndSplineSet
EndChar

StartChar: plus
Encoding: 43 43 12
Width: 1171
Flags: W
LayerCount: 2
Back
Fore
SplineSet
657 1219 m 1,0,-1
 657 795 l 1,1,-1
 1065 795 l 1,2,-1
 1065 649 l 1,3,-1
 657 649 l 1,4,-1
 657 227 l 1,5,-1
 510 227 l 1,6,-1
 510 649 l 1,7,-1
 102 649 l 1,8,-1
 102 795 l 1,9,-1
 510 795 l 1,10,-1
 510 1219 l 1,11,-1
 657 1219 l 1,0,-1
EndSplineSet
EndChar

StartChar: comma
Encoding: 44 44 13
Width: 549
Flags: W
LayerCount: 2
Back
Fore
SplineSet
150.5 146 m 0,0,1
 188.285714286 238 188.285714286 238 302.4 238 c 0,2,3
 347.8 238 347.8 238 380.9 206 c 0,4,5
 437 151.764350453 437 151.764350453 437 90.8821752266 c 0,6,7
 437 -68.9259259259 437 -68.9259259259 241 -225 c 0,8,9
 187 -268 187 -268 133 -300 c 1,10,-1
 72 -238 l 1,11,12
 205 -153.363636364 205 -153.363636364 205 -81 c 0,13,14
 205 -56.25 205 -56.25 172 -4 c 256,15,16
 139 48.25 139 48.25 139 83.125 c 128,-1,17
 139 118 139 118 150.5 146 c 0,0,1
EndSplineSet
EndChar

StartChar: hyphen
Encoding: 45 45 14
Width: 659
Flags: W
LayerCount: 2
Back
Fore
SplineSet
578 571 m 1,0,-1
 82 571 l 1,1,-1
 82 723 l 1,2,-1
 578 723 l 1,3,-1
 578 571 l 1,0,-1
EndSplineSet
EndChar

StartChar: period
Encoding: 46 46 15
Width: 549
Flags: W
LayerCount: 2
Back
Fore
SplineSet
153 113 m 0,0,1
 153 244 153 244 272 244 c 0,2,3
 327 244 327 244 361 213 c 128,-1,4
 395 182 395 182 395 115.5 c 128,-1,5
 395 49 395 49 362 14 c 128,-1,6
 329 -21 329 -21 273.5 -21 c 128,-1,7
 218 -21 218 -21 185.5 12.5 c 128,-1,8
 153 46 153 46 153 113 c 0,0,1
EndSplineSet
EndChar

StartChar: slash
Encoding: 47 47 16
Width: 869
Flags: W
LayerCount: 2
Back
Fore
SplineSet
636 1637 m 1,0,-1
 795 1637 l 1,1,-1
 234 -443 l 1,2,-1
 74 -443 l 1,3,-1
 636 1637 l 1,0,-1
EndSplineSet
EndChar

StartChar: zero
Encoding: 48 48 17
Width: 1171
Flags: W
LayerCount: 2
Back
Fore
SplineSet
587 1469 m 0,0,1
 776.438596491 1469 776.438596491 1469 911 1351 c 256,2,3
 1135 1154.56923077 1135 1154.56923077 1135 726 c 0,4,5
 1135 389.6 1135 389.6 991 188 c 0,6,7
 841.828282828 -20 841.828282828 -20 587 -20 c 0,8,9
 333.051546392 -20 333.051546392 -20 188 181 c 0,10,11
 41 381.830985915 41 381.830985915 41 726 c 0,12,13
 41 1052 41 1052 177 1254 c 0,14,15
 323.2 1469 323.2 1469 587 1469 c 0,0,1
901 726 m 1,16,-1
 898 807 l 1,17,18
 890.398422091 1042.64891519 890.398422091 1042.64891519 783 1169 c 256,19,20
 706.5 1259 706.5 1259 587 1259 c 0,21,22
 519.571428571 1259 519.571428571 1259 462 1228 c 1,23,24
 285.550640279 1112.92433062 285.550640279 1112.92433062 277 788 c 0,25,26
 276 750 276 750 276 718 c 0,27,28
 276 327.117647059 276 327.117647059 465 221.5 c 0,29,30
 516 193 516 193 569.5 193 c 0,31,32
 659 193 659 193 708.5 221.5 c 0,33,34
 858.786324786 308.028490028 858.786324786 308.028490028 894 578 c 0,35,36
 901 642.4 901 642.4 901 726 c 1,16,-1
EndSplineSet
EndChar

StartChar: one
Encoding: 49 49 18
Width: 1171
Flags: W
LayerCount: 2
Back
Fore
SplineSet
236 1162 m 1,0,-1
 539 1461 l 1,1,-1
 774 1461 l 1,2,-1
 774 2 l 1,3,-1
 535 2 l 1,4,-1
 535 1136 l 1,5,-1
 407 1011 l 1,6,-1
 236 1162 l 1,0,-1
EndSplineSet
EndChar

StartChar: two
Encoding: 50 50 19
Width: 1313
Flags: W
LayerCount: 2
Back
Fore
SplineSet
1213 804 m 0,0,1
 1162.15789474 668.421052632 1162.15789474 668.421052632 947 484 c 0,2,3
 839.2 391.6 839.2 391.6 751 323 c 1,4,5
 728 300 728 300 701.5 277.5 c 128,-1,6
 675 255 675 255 649 231 c 1,7,-1
 1233 231 l 1,8,-1
 1233 16 l 1,9,-1
 89 16 l 1,10,-1
 286 199 l 1,11,12
 417.400862069 324.336206897 417.400862069 324.336206897 541.200431034 428.168103448 c 128,-1,13
 665 532 665 532 709 569 c 0,14,15
 934.904153355 758.96485623 934.904153355 758.96485623 974.5 832.5 c 0,16,17
 1003 885.428571429 1003 885.428571429 1003 936.714285714 c 0,18,19
 1003 1090 1003 1090 911 1174 c 1,20,21
 831.869565217 1265 831.869565217 1265 692 1265 c 0,22,23
 569.894736842 1265 569.894736842 1265 487 1190 c 1,24,25
 400.769829684 1117.80729927 400.769829684 1117.80729927 379 1005 c 1,26,-1
 379 999 l 1,27,-1
 153 1037 l 1,28,-1
 156 1043 l 1,29,30
 174.723626853 1171.39058413 174.723626853 1171.39058413 273 1290 c 0,31,32
 392.547553411 1434.28152998 392.547553411 1434.28152998 593.5 1469.5 c 0,33,34
 642 1478 642 1478 695.5 1478 c 0,35,36
 909.885714286 1478 909.885714286 1478 1076 1325 c 0,37,38
 1154.09677419 1249.07258065 1154.09677419 1249.07258065 1183.0483871 1180.53629032 c 0,39,40
 1235 1057.55278552 1235 1057.55278552 1235 957 c 0,41,42
 1235 868 1235 868 1213 804 c 0,0,1
EndSplineSet
EndChar

StartChar: three
Encoding: 51 51 20
Width: 1241
Flags: W
LayerCount: 2
Back
Fore
SplineSet
756 851 m 1,0,1
 1051.0592681 788.882259348 1051.0592681 788.882259348 1144.5 579 c 0,2,3
 1177 506 1177 506 1177 421 c 128,-1,4
 1177 336 1177 336 1132.5 256 c 128,-1,5
 1088 176 1088 176 1011 117.5 c 0,6,7
 847.128205128 -7 847.128205128 -7 604 -7 c 0,8,9
 417.783783784 -7 417.783783784 -7 266 71 c 256,10,11
 111.23364486 150.53271028 111.23364486 150.53271028 47 279 c 1,12,-1
 251 377 l 1,13,-1
 256 370 l 1,14,15
 317.160796325 260.554364472 317.160796325 260.554364472 489 221.5 c 0,16,17
 544 209 544 209 609 209 c 0,18,19
 744.733333333 209 744.733333333 209 845 273 c 0,20,21
 947 335.936170213 947 335.936170213 947 430 c 0,22,23
 947 477.266666667 947 477.266666667 918 514 c 1,24,25
 860.051983584 612.511627907 860.051983584 612.511627907 702 640.5 c 0,26,27
 654 649 654 649 604 649 c 2,28,-1
 467 649 l 1,29,-1
 409 809 l 1,30,-1
 828 1262 l 1,31,-1
 163 1262 l 1,32,-1
 163 1479 l 1,33,-1
 1140 1479 l 1,34,-1
 1140 1267 l 1,35,-1
 756 851 l 1,0,1
EndSplineSet
EndChar

StartChar: four
Encoding: 52 52 21
Width: 1171
Flags: W
LayerCount: 2
Back
Fore
SplineSet
940 1471 m 1,0,-1
 940 585 l 1,1,-1
 1147 585 l 1,2,-1
 1147 365 l 1,3,-1
 940 365 l 1,4,-1
 940 9 l 1,5,-1
 729 9 l 1,6,-1
 729 365 l 1,7,-1
 32 365 l 1,8,-1
 32 580 l 1,9,-1
 732 1471 l 1,10,-1
 940 1471 l 1,0,-1
729 1094 m 1,11,-1
 329 585 l 1,12,-1
 729 585 l 1,13,-1
 729 1094 l 1,11,-1
EndSplineSet
EndChar

StartChar: five
Encoding: 53 53 22
Width: 1296
Flags: W
LayerCount: 2
Back
Fore
SplineSet
969 430 m 258,0,-1
 968 458 l 2,1,2
 968 486 968 486 962.5 536 c 0,3,4
 946.162806398 684.519941836 946.162806398 684.519941836 633.5 691 c 0,5,6
 537 693 537 693 421 693 c 2,7,-1
 203 693 l 1,8,-1
 203 1459 l 1,9,-1
 1100 1459 l 1,10,-1
 1100 1245 l 1,11,-1
 429 1245 l 1,12,-1
 429 913 l 1,13,-1
 649 913 l 2,14,15
 909.852459016 913 909.852459016 913 1060 784 c 0,16,17
 1203 657.342857143 1203 657.342857143 1203 453 c 0,18,19
 1203 270.022727273 1203 270.022727273 1073 141.5 c 0,20,21
 918.747126437 -11 918.747126437 -11 626 -11 c 0,22,23
 392.536585366 -11 392.536585366 -11 238 85 c 0,24,25
 136.751111111 146.362962963 136.751111111 146.362962963 65 251 c 1,26,-1
 60 260 l 1,27,-1
 264 357 l 1,28,-1
 270 352 l 1,29,30
 312.918032787 293.475409836 312.918032787 293.475409836 360.959016393 265.237704918 c 0,31,32
 468.545718433 202 468.545718433 202 626 202 c 128,-1,33
 783.518518519 202 783.518518519 202 875 267 c 256,34,35
 950.164835165 320.406593407 950.164835165 320.406593407 967 413 c 0,36,37
 969 424 969 424 969 430 c 258,0,-1
EndSplineSet
EndChar

StartChar: six
Encoding: 54 54 23
Width: 1281
Flags: W
LayerCount: 2
Back
Fore
SplineSet
541 995 m 1,0,1
 601 1001 601 1001 630 1001 c 0,2,3
 882.444444444 1001 882.444444444 1001 1045 830 c 1,4,5
 1181 674.258064516 1181 674.258064516 1181 494 c 0,6,7
 1181 275.026315789 1181 275.026315789 1014 130 c 0,8,9
 854.059701493 -11 854.059701493 -11 635 -11 c 2,10,-1
 602 -11 l 1,11,12
 378.295780003 2.61677860854 378.295780003 2.61677860854 228 155 c 256,13,14
 89 295.930555556 89 295.930555556 89 504 c 2,15,-1
 89 529 l 1,16,17
 97.4302325581 638.593023256 97.4302325581 638.593023256 116.215116279 702.796511628 c 0,18,19
 220.102108 1057.86430785 220.102108 1057.86430785 717 1465 c 1,20,-1
 721 1469 l 1,21,-1
 872 1314 l 1,22,-1
 865 1307 l 1,23,24
 677.465116279 1158.75813953 677.465116279 1158.75813953 541 995 c 1,0,1
654 791 m 1,25,-1
 635 794 l 1,26,27
 490.372093023 794 490.372093023 794 402 699 c 0,28,29
 318 608.853658537 318 608.853658537 318 484 c 0,30,31
 318 351.425531915 318 351.425531915 423 271 c 0,32,33
 516.243243243 196 516.243243243 196 645 196 c 0,34,35
 689.25 196 689.25 196 741 214 c 0,36,37
 836 246 836 246 888.5 315.5 c 128,-1,38
 941 385 941 385 950 476 c 1,39,-1
 951 501 l 1,40,41
 951 550 951 550 935 594 c 1,42,43
 849.884242908 776.687478637 849.884242908 776.687478637 654 790 c 1,44,-1
 654 791 l 1,25,-1
EndSplineSet
EndChar

StartChar: seven
Encoding: 55 55 24
Width: 1373
Flags: W
LayerCount: 2
Back
Fore
SplineSet
80 1239 m 1,0,-1
 80 1465 l 1,1,-1
 1325 1465 l 1,2,3
 890.300668151 936.115812918 890.300668151 936.115812918 787 700 c 0,4,5
 663.070484581 418.775330396 663.070484581 418.775330396 626 11 c 1,6,-1
 380 11 l 1,7,8
 428.879940064 578.007304739 428.879940064 578.007304739 644 946.5 c 0,9,10
 755.083986562 1136.78275476 755.083986562 1136.78275476 850 1239 c 1,11,-1
 80 1239 l 1,0,-1
EndSplineSet
EndChar

StartChar: eight
Encoding: 56 56 25
Width: 1171
Flags: W
LayerCount: 2
Back
Fore
SplineSet
242 768 m 1,0,1
 112 891.606557377 112 891.606557377 112 1055 c 0,2,3
 112 1240.08823529 112 1240.08823529 263 1360 c 0,4,5
 400.79245283 1469 400.79245283 1469 586 1469 c 0,6,7
 787.947368421 1469 787.947368421 1469 925 1345 c 256,8,9
 1058 1224.66666667 1058 1224.66666667 1058 1058.13661202 c 128,-1,10
 1058 891.606557377 1058 891.606557377 928 768 c 1,11,12
 1099 625.87012987 1099 625.87012987 1099 432 c 128,-1,13
 1099 237.930555556 1099 237.930555556 938 106 c 256,14,15
 786.677966102 -18 786.677966102 -18 586 -18 c 0,16,17
 378.65 -18 378.65 -18 226 111 c 256,18,19
 71 241.985915493 71 241.985915493 71 433.742957746 c 128,-1,20
 71 625.5 71 625.5 242 768 c 1,0,1
764 1196 m 0,21,22
 693.142857143 1258 693.142857143 1258 586 1258 c 0,23,24
 487.615384615 1258 487.615384615 1258 417 1204 c 0,25,26
 342 1144.44117647 342 1144.44117647 342 1055 c 0,27,28
 342 973.625 342 973.625 409 915 c 0,29,30
 477.642857143 853 477.642857143 853 586 853 c 0,31,32
 687.555555556 853 687.555555556 853 756 909 c 256,33,34
 828 967.909090909 828 967.909090909 828 1052.01906158 c 128,-1,35
 828 1136.12903226 828 1136.12903226 764 1196 c 0,21,22
301 432 m 128,-1,37
 301 334.342105263 301 334.342105263 382 264 c 256,38,39
 464.909090909 192 464.909090909 192 586 192 c 0,40,41
 701.454545455 192 701.454545455 192 783 261 c 0,42,43
 869 331.564102564 869 331.564102564 869 432 c 0,44,45
 869 533.435897436 869 533.435897436 783 604 c 0,46,47
 699.25 671 699.25 671 586 671 c 0,48,49
 461.727272727 671 461.727272727 671 381 599 c 0,50,36
 301 529.526315789 301 529.526315789 301 432 c 128,-1,37
EndSplineSet
EndChar

StartChar: nine
Encoding: 57 57 26
Width: 1292
Flags: W
LayerCount: 2
Back
Fore
SplineSet
686 1425 m 1,0,1
 906.769230769 1409.23076923 906.769230769 1409.23076923 1054 1262 c 0,2,3
 1054 1260 1054 1260 1058.5 1258 c 128,-1,4
 1063 1256 1063 1256 1082.5 1234.5 c 0,5,6
 1202 1102.74358974 1202 1102.74358974 1202 884 c 2,7,-1
 1202 880 l 1,8,9
 1189.93365696 735.203883495 1189.93365696 735.203883495 1148.96682848 633.101941748 c 128,-1,10
 1108 531 1108 531 1039 428.5 c 0,11,12
 878.135045872 189.533944954 878.135045872 189.533944954 568 -60 c 1,13,-1
 564 -66 l 1,14,-1
 414 91 l 1,15,-1
 421 97 l 1,16,17
 613.336206897 248.375718391 613.336206897 248.375718391 747 411 c 1,18,-1
 657 403 l 1,19,20
 432.967032967 403 432.967032967 403 271 547.5 c 0,21,22
 104 696.490196078 104 696.490196078 104 908 c 128,-1,23
 104 1119.58666667 104 1119.58666667 265 1272 c 0,24,25
 426.742857143 1425 426.742857143 1425 651 1425 c 2,26,-1
 686 1425 l 1,0,1
631 617 m 1,27,-1
 651 613 l 1,28,29
 794.681818182 613 794.681818182 613 886 711 c 256,30,31
 970 801.146341463 970 801.146341463 970 926 c 0,32,33
 970 1049.93023256 970 1049.93023256 876 1133 c 0,34,35
 782.054054054 1212 782.054054054 1212 651 1212 c 0,36,37
 510.785714286 1212 510.785714286 1212 420 1119 c 0,38,39
 334 1033 334 1033 334 916 c 0,40,41
 334 804.41025641 334 804.41025641 416 714 c 256,42,43
 503.976744186 617 503.976744186 617 631 617 c 1,27,-1
EndSplineSet
EndChar

StartChar: colon
Encoding: 58 58 27
Width: 588
Flags: W
LayerCount: 2
Back
Fore
SplineSet
173 960 m 256,0,1
 173 1093 173 1093 294 1093 c 128,-1,2
 415 1093 415 1093 415 960 c 0,3,4
 415 896 415 896 382 861.5 c 128,-1,5
 349 827 349 827 293 827 c 128,-1,6
 237 827 237 827 205 860.5 c 128,-1,7
 173 894 173 894 173 960 c 256,0,1
173 113 m 256,8,9
 173 244 173 244 292 244 c 0,10,11
 350 244 350 244 382.5 210.5 c 128,-1,12
 415 177 415 177 415 113 c 256,13,14
 415 49 415 49 382 14 c 128,-1,15
 349 -21 349 -21 292 -21 c 256,16,17
 235 -21 235 -21 204 13 c 128,-1,18
 173 47 173 47 173 113 c 256,8,9
EndSplineSet
EndChar

StartChar: semicolon
Encoding: 59 59 28
Width: 588
Flags: W
LayerCount: 2
Back
Fore
SplineSet
172 960 m 0,0,1
 172 1093 172 1093 293 1093 c 128,-1,2
 414 1093 414 1093 414 960 c 0,3,4
 414 896 414 896 381.5 861.5 c 128,-1,5
 349 827 349 827 291.5 827 c 128,-1,6
 234 827 234 827 203 861.5 c 128,-1,7
 172 896 172 896 172 960 c 0,0,1
104 -297 m 1,8,9
 182.260869565 -5.47826086957 182.260869565 -5.47826086957 217 205 c 1,10,-1
 402 205 l 1,11,-1
 416 182 l 1,12,13
 361.347205707 -24.4661117717 361.347205707 -24.4661117717 240 -297 c 1,14,-1
 104 -297 l 1,8,9
EndSplineSet
EndChar

StartChar: less
Encoding: 60 60 29
Width: 1171
Flags: W
LayerCount: 2
Back
Fore
SplineSet
1067 397 m 1,0,-1
 1067 238 l 1,1,-1
 102 662 l 1,2,-1
 102 764 l 1,3,-1
 1067 1245 l 1,4,-1
 1067 1085 l 1,5,-1
 295 721 l 1,6,-1
 1067 397 l 1,0,-1
EndSplineSet
EndChar

StartChar: equal
Encoding: 61 61 30
Width: 1171
Flags: W
LayerCount: 2
Back
Fore
SplineSet
1053 852 m 1,0,-1
 115 852 l 1,1,-1
 115 997 l 1,2,-1
 1053 997 l 1,3,-1
 1053 852 l 1,0,-1
1053 444 m 1,4,-1
 115 444 l 1,5,-1
 115 590 l 1,6,-1
 1053 590 l 1,7,-1
 1053 444 l 1,4,-1
EndSplineSet
EndChar

StartChar: greater
Encoding: 62 62 31
Width: 1171
Flags: W
LayerCount: 2
Back
Fore
SplineSet
102 238 m 1,0,-1
 102 397 l 1,1,-1
 874 719 l 1,2,-1
 102 1085 l 1,3,-1
 102 1245 l 1,4,-1
 1067 764 l 1,5,-1
 1067 662 l 1,6,-1
 102 238 l 1,0,-1
EndSplineSet
EndChar

StartChar: question
Encoding: 63 63 32
Width: 1043
Flags: W
LayerCount: 2
Back
Fore
SplineSet
215 785 m 1,0,1
 78 909.353846154 78 909.353846154 78 1096 c 0,2,3
 78 1267.4 78 1267.4 206 1389 c 0,4,5
 334.350877193 1513 334.350877193 1513 513 1513 c 0,6,7
 691.322033898 1513 691.322033898 1513 828 1387 c 0,8,9
 969 1252.71428571 969 1252.71428571 969 1068 c 0,10,11
 969 904.909090909 969 904.909090909 866.5 787.5 c 0,12,13
 832.562628337 748.626283368 832.562628337 748.626283368 780.281314168 697.313141684 c 128,-1,14
 728 646 728 646 697 606.5 c 128,-1,15
 666 567 666 567 643.5 500 c 128,-1,16
 621 433 621 433 621 396.5 c 2,17,-1
 621 353.5 l 2,18,19
 621 347 621 347 622 340 c 1,20,-1
 461 340 l 1,21,22
 460 347 460 347 460 354 c 128,-1,23
 460 361 460 361 460 368 c 0,24,25
 460 613.901234568 460 613.901234568 660.5 804.5 c 0,26,27
 754.638650964 893.989828694 754.638650964 893.989828694 782.319325482 949.994914347 c 128,-1,28
 810 1006 810 1006 810 1065 c 256,29,30
 810 1182 810 1182 723 1269 c 0,31,32
 634.85 1355 634.85 1355 515 1355 c 0,33,34
 405.571428571 1355 405.571428571 1355 322 1280 c 256,35,36
 237 1203.71794872 237 1203.71794872 237 1094 c 256,37,38
 237 979.804878049 237 979.804878049 321 904 c 1,39,-1
 215 785 l 1,0,1
544 231 m 256,40,41
 620.380952381 231 620.380952381 231 652.5 160 c 0,42,43
 662 139 662 139 662 114.5 c 0,44,45
 662 65 662 65 627 30 c 256,46,47
 593 -4 593 -4 544 -4 c 256,48,49
 466.590909091 -4 466.590909091 -4 435.5 68 c 0,50,51
 426 90 426 90 426 114.5 c 0,52,53
 426 162 426 162 461 197 c 256,54,55
 495 231 495 231 544 231 c 256,40,41
EndSplineSet
EndChar

StartChar: bracketleft
Encoding: 91 91 33
Width: 714
Flags: W
LayerCount: 2
Back
Fore
SplineSet
623 -307 m 1,0,-1
 623 -443 l 1,1,-1
 164 -443 l 1,2,-1
 164 1637 l 1,3,-1
 623 1637 l 1,4,-1
 623 1502 l 1,5,-1
 320 1502 l 1,6,-1
 320 -307 l 1,7,-1
 623 -307 l 1,0,-1
EndSplineSet
EndChar

StartChar: backslash
Encoding: 92 92 34
Width: 869
Flags: W
LayerCount: 2
Back
Fore
SplineSet
74 1637 m 1,0,-1
 233 1637 l 1,1,-1
 795 -443 l 1,2,-1
 635 -443 l 1,3,-1
 74 1637 l 1,0,-1
EndSplineSet
EndChar

StartChar: bracketright
Encoding: 93 93 35
Width: 714
Flags: W
LayerCount: 2
Back
Fore
SplineSet
91 -444 m 1,0,-1
 91 -308 l 1,1,-1
 393 -308 l 1,2,-1
 393 1503 l 1,3,-1
 91 1503 l 1,4,-1
 91 1638 l 1,5,-1
 550 1638 l 1,6,-1
 550 -444 l 1,7,-1
 91 -444 l 1,0,-1
EndSplineSet
EndChar

StartChar: asciicircum
Encoding: 94 94 36
Width: 1171
Flags: W
LayerCount: 2
Back
Fore
SplineSet
238 547 m 1,0,-1
 78 547 l 1,1,-1
 512 1473 l 1,2,-1
 614 1473 l 1,3,-1
 1094 547 l 1,4,-1
 934 547 l 1,5,-1
 565 1282 l 1,6,-1
 238 547 l 1,0,-1
EndSplineSet
EndChar

StartChar: underscore
Encoding: 95 95 37
Width: 909
Flags: W
LayerCount: 2
Back
Fore
SplineSet
913 -184 m 1,0,-1
 913 -315 l 1,1,-1
 -4 -315 l 1,2,-1
 -4 -184 l 1,3,-1
 913 -184 l 1,0,-1
EndSplineSet
EndChar

StartChar: braceleft
Encoding: 123 123 38
Width: 798
Flags: W
LayerCount: 2
Back
Fore
SplineSet
467 -117 m 2,0,1
 467 -307 467 -307 707 -307 c 1,2,-1
 707 -443 l 1,3,4
 511 -442 511 -442 408.5 -358.5 c 128,-1,5
 306 -275 306 -275 306 -117 c 2,6,-1
 306 336 l 2,7,8
 306 433 306 433 245 481 c 128,-1,9
 184 529 184 529 51 529 c 1,10,-1
 51 666 l 1,11,12
 182 667 182 667 244 712 c 128,-1,13
 306 757 306 757 306 857 c 2,14,-1
 306 1314 l 2,15,16
 306 1468 306 1468 412 1552 c 0,17,18
 516.76744186 1637 516.76744186 1637 707 1637 c 1,19,-1
 707 1502 l 1,20,21
 467 1496 467 1496 467 1309 c 2,22,-1
 467 854 l 2,23,24
 467 642.820754717 467 642.820754717 256 605 c 1,25,-1
 256 592 l 1,26,27
 467 556.169811321 467 556.169811321 467 342 c 2,28,-1
 467 -117 l 2,0,1
EndSplineSet
EndChar

StartChar: bar
Encoding: 124 124 39
Width: 1128
Flags: W
LayerCount: 2
Back
Fore
SplineSet
489 -442 m 1,0,-1
 489 1637 l 1,1,-1
 639 1637 l 1,2,-1
 639 -442 l 1,3,-1
 489 -442 l 1,0,-1
EndSplineSet
EndChar

StartChar: braceright
Encoding: 125 125 40
Width: 798
Flags: W
LayerCount: 2
Back
Fore
SplineSet
542 602 m 1,0,1
 331 640.180952381 331 640.180952381 331 852 c 2,2,-1
 331 1311 l 2,3,4
 331 1407 331 1407 272.5 1453 c 128,-1,5
 214 1499 214 1499 91 1501 c 1,6,-1
 91 1637 l 1,7,8
 292 1634 292 1634 392 1550.5 c 128,-1,9
 492 1467 492 1467 492 1311 c 2,10,-1
 492 858 l 2,11,12
 492 761 492 761 553 713 c 128,-1,13
 614 665 614 665 747 665 c 1,14,-1
 747 528 l 1,15,16
 612 526 612 526 552 480 c 128,-1,17
 492 434 492 434 492 337 c 2,18,-1
 492 -120 l 2,19,20
 492 -274.777777778 492 -274.777777778 385 -358 c 0,21,22
 280.23255814 -443 280.23255814 -443 91 -443 c 1,23,-1
 91 -308 l 1,24,25
 331 -302 331 -302 331 -115 c 2,26,-1
 331 340 l 2,27,28
 331 552.828571429 331 552.828571429 542 589 c 1,29,-1
 542 602 l 1,0,1
EndSplineSet
EndChar

StartChar: asciitilde
Encoding: 126 126 41
Width: 1171
Flags: W
LayerCount: 2
Back
Fore
SplineSet
1067 698 m 1,0,1
 963 588 963 588 821 588 c 0,2,3
 727.833333333 588 727.833333333 588 658.416666667 612.5 c 128,-1,4
 589 637 589 637 535.5 660 c 0,5,6
 421.52173913 709 421.52173913 709 336 709 c 0,7,8
 223 709 223 709 102 588 c 1,9,-1
 102 748 l 1,10,11
 202 856 202 856 348 856 c 0,12,13
 472.705882353 856 472.705882353 856 618 791 c 0,14,15
 747.379310345 735 747.379310345 735 831 735 c 0,16,17
 946 735 946 735 1067 856 c 1,18,-1
 1067 698 l 1,0,1
EndSplineSet
EndChar

StartChar: ellipsis
Encoding: 8230 8230 42
Width: 1620
Flags: W
LayerCount: 2
Back
Fore
SplineSet
1343 244 m 0,0,1
 1467 244 1467 244 1467 113 c 256,2,3
 1467 49 1467 49 1435 14 c 128,-1,4
 1403 -21 1403 -21 1344.5 -21 c 128,-1,5
 1286 -21 1286 -21 1255.5 14.5 c 128,-1,6
 1225 50 1225 50 1225 113 c 0,7,8
 1225 244 1225 244 1343 244 c 0,0,1
690 113 m 0,9,10
 690 244 690 244 809 244 c 0,11,12
 864 244 864 244 897 212 c 128,-1,13
 930 180 930 180 930 114.5 c 128,-1,14
 930 49 930 49 898 14 c 128,-1,15
 866 -21 866 -21 808.5 -21 c 128,-1,16
 751 -21 751 -21 720.5 14 c 128,-1,17
 690 49 690 49 690 113 c 0,9,10
153 113 m 0,18,19
 153 244 153 244 272 244 c 0,20,21
 327 244 327 244 361 213 c 128,-1,22
 395 182 395 182 395 115.5 c 128,-1,23
 395 49 395 49 362 14 c 128,-1,24
 329 -21 329 -21 273.5 -21 c 128,-1,25
 218 -21 218 -21 185.5 12.5 c 128,-1,26
 153 46 153 46 153 113 c 0,18,19
EndSplineSet
EndChar

StartChar: endash
Encoding: 8211 8211 43
Width: 1024
Flags: W
LayerCount: 2
Back
Fore
SplineSet
942 571 m 1,0,-1
 82 571 l 1,1,-1
 82 723 l 1,2,-1
 942 723 l 1,3,-1
 942 571 l 1,0,-1
EndSplineSet
EndChar

StartChar: emdash
Encoding: 8212 8212 44
Width: 2048
Flags: W
LayerCount: 2
Back
Fore
SplineSet
1966 571 m 1,0,-1
 82 571 l 1,1,-1
 82 723 l 1,2,-1
 1966 723 l 1,3,-1
 1966 571 l 1,0,-1
EndSplineSet
EndChar

StartChar: quotedblleft
Encoding: 8220 8220 45
Width: 866
Flags: W
LayerCount: 2
Back
Fore
SplineSet
397 1637 m 1,0,1
 320.856074766 1350.94579439 320.856074766 1350.94579439 286 1136 c 1,2,-1
 102 1136 l 1,3,-1
 90 1158 l 1,4,5
 144.227848101 1369.10126582 144.227848101 1369.10126582 266 1637 c 1,6,-1
 397 1637 l 1,0,1
776 1637 m 1,7,8
 699.856074766 1350.94579439 699.856074766 1350.94579439 665 1136 c 1,9,-1
 478 1136 l 1,10,-1
 464 1158 l 1,11,12
 520.748717949 1370.80769231 520.748717949 1370.80769231 643 1637 c 1,13,-1
 776 1637 l 1,7,8
EndSplineSet
EndChar

StartChar: quotedblright
Encoding: 8221 8221 46
Width: 866
Flags: W
LayerCount: 2
Back
Fore
SplineSet
464 1136 m 1,0,1
 542.689350977 1429.11783239 542.689350977 1429.11783239 577 1637 c 1,2,-1
 762 1637 l 1,3,-1
 776 1615 l 1,4,5
 725.405436014 1416.66930917 725.405436014 1416.66930917 600 1136 c 1,6,-1
 464 1136 l 1,0,1
90 1136 m 1,7,8
 161.855903936 1414.71380921 161.855903936 1414.71380921 198 1637 c 1,9,-1
 383 1637 l 1,10,-1
 397 1615 l 1,11,12
 346.405436014 1416.66930917 346.405436014 1416.66930917 221 1136 c 1,13,-1
 90 1136 l 1,7,8
EndSplineSet
EndChar

StartChar: quoteleft
Encoding: 8216 8216 47
Width: 489
Flags: W
LayerCount: 2
Back
Fore
SplineSet
399 1637 m 1,0,1
 330.177835052 1382.74033505 330.177835052 1382.74033505 288 1136 c 1,2,-1
 102 1136 l 1,3,-1
 90 1158 l 1,4,5
 146.857657658 1375.27747748 146.857657658 1375.27747748 266 1637 c 1,6,-1
 399 1637 l 1,0,1
EndSplineSet
EndChar

StartChar: quoteright
Encoding: 8217 8217 48
Width: 489
Flags: W
LayerCount: 2
Back
Fore
SplineSet
90 1136 m 1,0,1
 165.273422562 1422.85277247 165.273422562 1422.85277247 200 1637 c 1,2,-1
 385 1637 l 1,3,-1
 399 1615 l 1,4,5
 346.397157816 1410.65818998 346.397157816 1410.65818998 223 1136 c 1,6,-1
 90 1136 l 1,0,1
EndSplineSet
EndChar

StartChar: divide
Encoding: 247 247 49
Width: 1171
Flags: W
LayerCount: 2
Back
Fore
SplineSet
469 1071 m 0,0,1
 469 1194 469 1194 582.5 1194 c 128,-1,2
 696 1194 696 1194 696 1071 c 256,3,4
 696 1011 696 1011 665.5 978.5 c 128,-1,5
 635 946 635 946 584 946 c 256,6,7
 533 946 533 946 501 976.5 c 128,-1,8
 469 1007 469 1007 469 1071 c 0,0,1
1067 649 m 1,9,-1
 102 649 l 1,10,-1
 102 795 l 1,11,-1
 1067 795 l 1,12,-1
 1067 649 l 1,9,-1
469 373 m 0,13,14
 469 496 469 496 582.5 496 c 128,-1,15
 696 496 696 496 696 373 c 256,16,17
 696 313 696 313 665.5 280.5 c 128,-1,18
 635 248 635 248 584 248 c 256,19,20
 533 248 533 248 501 278.5 c 128,-1,21
 469 309 469 309 469 373 c 0,13,14
EndSplineSet
EndChar

StartChar: uni0D82
Encoding: 3458 3458 53
Width: 962
Flags: W
LayerCount: 2
Back
Fore
SplineSet
184 251 m 0,0,1
 68.5521484005 366.447851599 68.5521484005 366.447851599 69.5 558.096153846 c 0,2,3
 70 659.192307692 70 659.192307692 123.5 755.596153846 c 128,-1,4
 177 852 177 852 272 903.5 c 128,-1,5
 367 955 367 955 472.5 955.5 c 0,6,7
 667.839427127 956.425779275 667.839427127 956.425779275 783 837 c 256,8,9
 898.062951935 717.675457252 898.062951935 717.675457252 894 545 c 1,10,11
 894 365 894 365 780 249 c 0,12,13
 667.01754386 134 667.01754386 134 480 134 c 0,14,15
 298.742135922 132.00815534 298.742135922 132.00815534 184 251 c 0,0,1
289 351 m 0,16,17
 359.945945946 276 359.945945946 276 480 276 c 256,18,19
 602.054054054 276 602.054054054 276 673 351 c 0,20,21
 744 427.916666667 744 427.916666667 744 554 c 0,22,23
 744 671.972222222 744 671.972222222 673 741 c 0,24,25
 603 813 603 813 480 813 c 0,26,27
 360 813 360 813 290 741 c 0,28,29
 220 671 220 671 220 549.558823529 c 128,-1,30
 220 428.117647059 220 428.117647059 289 351 c 0,16,17
EndSplineSet
EndChar

StartChar: uni0D83
Encoding: 3459 3459 54
Width: 651
Flags: W
LayerCount: 2
Back
Fore
SplineSet
589 868 m 128,-1,1
 589 754 589 754 517 684 c 0,2,3
 445.970588235 615 445.970588235 615 327 615 c 0,4,5
 138.4 615 138.4 615 80 761 c 0,6,7
 62 806 62 806 62 862 c 256,8,9
 62 974 62 974 134 1044 c 0,10,11
 206.972222222 1115 206.972222222 1115 324 1115 c 0,12,13
 444 1115 444 1115 516 1047 c 0,14,0
 589 981.891891892 589 981.891891892 589 868 c 128,-1,1
422.5 772.5 m 128,-1,16
 459 807 459 807 459 864.5 c 128,-1,17
 459 922 459 922 424 956.5 c 128,-1,18
 389 991 389 991 326 991 c 256,19,20
 263 991 263 991 227.5 957 c 128,-1,21
 192 923 192 923 192 865.5 c 128,-1,22
 192 808 192 808 226.5 773 c 128,-1,23
 261 738 261 738 323.5 738 c 128,-1,15
 386 738 386 738 422.5 772.5 c 128,-1,16
517 69 m 0,24,25
 443.941176471 0 443.941176471 0 327 0 c 0,26,27
 205 0 205 0 133 68 c 0,28,29
 62 136.971428571 62 136.971428571 62 248 c 128,-1,30
 62 359 62 359 134 429 c 0,31,32
 206.972222222 500 206.972222222 500 324 500 c 0,33,34
 444 500 444 500 516 432 c 0,35,36
 589 366.891891892 589 366.891891892 589 252.945945946 c 128,-1,37
 589 139 589 139 517 69 c 0,24,25
422 158 m 128,-1,39
 459 192 459 192 459 249.5 c 128,-1,40
 459 307 459 307 423 341.5 c 128,-1,41
 387 376 387 376 326 376 c 256,42,43
 265 376 265 376 228.5 342.5 c 128,-1,44
 192 309 192 309 192 251.5 c 128,-1,45
 192 194 192 194 226.5 159 c 128,-1,46
 261 124 261 124 323 124 c 128,-1,38
 385 124 385 124 422 158 c 128,-1,39
EndSplineSet
EndChar

StartChar: uni0D85
Encoding: 3461 3461 55
Width: 1877
Flags: W
LayerCount: 2
Back
Fore
SplineSet
913 1192 m 1,0,1
 934 1148.09090909 934 1148.09090909 934 1100.54545455 c 0,2,3
 934 1000.47058824 934 1000.47058824 862 920 c 0,4,5
 783.923076923 833 783.923076923 833 674 833 c 0,6,7
 540.769230769 833 540.769230769 833 468 919 c 0,8,9
 401 993.882352941 401 993.882352941 401 1083.44117647 c 128,-1,10
 401 1173 401 1173 437 1227 c 128,-1,11
 473 1281 473 1281 532.5 1318 c 0,12,13
 651.5 1392 651.5 1392 820 1392 c 0,14,15
 985.530612245 1392 985.530612245 1392 1110 1285 c 0,16,17
 1233 1175.17857143 1233 1175.17857143 1233 1034 c 2,18,-1
 1233 813 l 1,19,-1
 1356 814 l 1,20,-1
 1356 1044 l 2,21,22
 1356 1205.03846154 1356 1205.03846154 1496 1253.5 c 0,23,24
 1535 1267 1535 1267 1595.5 1267 c 128,-1,25
 1656 1267 1656 1267 1697.5 1245 c 128,-1,26
 1739 1223 1739 1223 1753.5 1205 c 0,27,28
 1783.57714286 1167.66285714 1783.57714286 1167.66285714 1792.28857143 1141.83142857 c 0,29,30
 1811 1086.34765497 1811 1086.34765497 1811 986 c 1,31,-1
 1644 986 l 1,32,-1
 1644 1038 l 2,33,34
 1644 1061 1644 1061 1628.5 1076 c 128,-1,35
 1613 1091 1613 1091 1592 1091 c 256,36,37
 1571 1091 1571 1091 1554 1076 c 128,-1,38
 1537 1061 1537 1061 1537 1038 c 2,39,-1
 1537 -484 l 1,40,-1
 1356 -484 l 1,41,-1
 1356 630 l 1,42,-1
 1233 630 l 1,43,-1
 1233 239 l 2,44,45
 1233 131.447368421 1233 131.447368421 1160 45 c 0,46,47
 1069 -60 1069 -60 908 -60 c 0,48,49
 630.533333333 -60 630.533333333 -60 412.5 45.5 c 0,50,51
 248.530359356 124.840148699 248.530359356 124.840148699 182 256 c 0,52,53
 147 325 147 325 147 391.5 c 0,54,55
 147 525.363636364 147 525.363636364 223 610 c 0,56,57
 386.852436513 788.74811256 386.852436513 788.74811256 935 810.5 c 0,58,59
 998 813 998 813 1052 813 c 1,60,-1
 1052 1034 l 2,61,62
 1052 1080.33333333 1052 1080.33333333 1022.5 1114.16666667 c 0,63,64
 975.210152284 1168.40304569 975.210152284 1168.40304569 913 1192 c 1,0,1
661 1002 m 2,65,-1
 665 1002 l 2,66,67
 715.324324324 1002 715.324324324 1002 740 1043.5 c 128,-1,68
 764.589257504 1084.85466035 764.589257504 1084.85466035 746 1130 c 0,69,70
 722.941176471 1186 722.941176471 1186 661 1186 c 0,71,72
 602.058823529 1186 602.058823529 1186 579 1130 c 0,73,74
 572 1113 572 1113 572 1094 c 256,75,76
 572 1032.12121212 572 1032.12121212 626.5 1009 c 0,77,78
 643 1002 643 1002 661 1002 c 2,65,-1
1051 240 m 2,79,-1
 1052 630 l 1,80,81
 764.040839478 625.636982416 764.040839478 625.636982416 640.020419739 601.818491208 c 128,-1,82
 516 578 516 578 457.5 554 c 0,83,84
 328 500.871794872 328 500.871794872 328 412 c 0,85,86
 328 311.183673469 328 311.183673469 437 240 c 0,87,88
 564.510917031 152.336244541 564.510917031 152.336244541 799.5 127.5 c 0,89,90
 861 121 861 121 910 121 c 0,91,92
 994.666666667 121 994.666666667 121 1030 174 c 0,93,94
 1051 204 1051 204 1051 240 c 2,79,-1
EndSplineSet
EndChar

StartChar: uni0D89
Encoding: 3465 3465 59
Width: 1961
Flags: W
LayerCount: 2
Back
Fore
SplineSet
828 688 m 1,0,-1
 649 683 l 1,1,-1
 646 683 l 1,2,-1
 518 679 l 1,3,4
 537.310574018 470.874924471 537.310574018 470.874924471 678 353 c 1,5,6
 782.742268041 439.786450663 782.742268041 439.786450663 816.5 592.5 c 0,7,8
 827 640 827 640 828 688 c 1,0,-1
857 268 m 1,9,10
 880.8 261 880.8 261 930.4 261 c 0,11,12
 1034.51612903 261 1034.51612903 261 1108 328 c 0,13,14
 1180 391.529411765 1180 391.529411765 1180 467.264705882 c 0,15,16
 1180 612.35 1180 612.35 1018 665 c 1,17,18
 1007.2388535 428.25477707 1007.2388535 428.25477707 857 268 c 1,9,10
497 265 m 1,19,20
 354.668065268 427.95975136 354.668065268 427.95975136 331 639 c 1,21,22
 263 610 263 610 227.5 562 c 128,-1,23
 192 514 192 514 192 466.5 c 0,24,25
 192 375.764705882 192 375.764705882 266 317 c 0,26,27
 334.444444444 261 334.444444444 261 439 261 c 0,28,29
 477 261 477 261 497 265 c 1,19,20
678 129 m 1,30,31
 561.964285714 72 561.964285714 72 455.482142857 72 c 0,32,33
 257.79245283 72 257.79245283 72 132 185 c 0,34,35
 4 297.813559322 4 297.813559322 4 462 c 0,36,37
 4 586.386363636 4 586.386363636 95 696 c 0,38,39
 191.498991064 814.940616892 191.498991064 814.940616892 338 840 c 1,40,41
 381.621156212 1107.67527675 381.621156212 1107.67527675 592 1288 c 0,42,43
 798.855421687 1465 798.855421687 1465 1065 1465 c 0,44,45
 1299.69662921 1465 1299.69662921 1465 1502 1326.5 c 0,46,47
 1624.6528346 1242.52998247 1624.6528346 1242.52998247 1715.5 1110 c 0,48,49
 1849 915.247058824 1849 915.247058824 1849 584 c 0,50,51
 1849 358.628571429 1849 358.628571429 1697 148 c 0,52,53
 1548.99270605 -56.291757841 1548.99270605 -56.291757841 1335 -153 c 1,54,55
 1395 -221.571428571 1395 -221.571428571 1395 -340 c 0,56,57
 1395 -471 1395 -471 1302 -564 c 0,58,59
 1207.80952381 -656 1207.80952381 -656 1078 -656 c 0,60,61
 996 -656 996 -656 926.5 -618 c 128,-1,62
 857 -580 857 -580 814 -514 c 2,63,-1
 761 -434 l 1,64,-1
 920 -331 l 1,65,-1
 970 -410 l 2,66,67
 987 -436 987 -436 1016.5 -452 c 128,-1,68
 1046 -468 1046 -468 1074.5 -468 c 0,69,70
 1131 -468 1131 -468 1158.5 -440 c 0,71,72
 1206 -391.636363636 1206 -391.636363636 1206 -345.318181818 c 0,73,74
 1206 -254.368421053 1206 -254.368421053 1122 -219 c 1,75,76
 1029.6 -233 1029.6 -233 986 -233 c 2,77,-1
 971 -233 l 1,78,-1
 931 -52 l 1,79,-1
 961 -52 l 2,80,81
 1035.625 -52 1035.625 -52 1120 -27 c 1,82,83
 1362.50560809 27.1128216406 1362.50560809 27.1128216406 1513 220 c 0,84,85
 1663 410.14084507 1663 410.14084507 1663 645 c 0,86,87
 1663 904.293577982 1663 904.293577982 1488.5 1090 c 0,88,89
 1312.78448276 1277 1312.78448276 1277 1065 1277 c 0,90,91
 884.924528302 1277 884.924528302 1277 737 1165 c 0,92,93
 587.887497554 1051.5904911 587.887497554 1051.5904911 538 870 c 1,94,95
 565 871 565 871 591.5 871 c 128,-1,96
 618 871 618 871 644 872 c 1,97,-1
 646 872 l 2,98,99
 678 872 678 872 713.5 873.5 c 128,-1,100
 749 875 749 875 787 875 c 1,101,102
 764.83902439 925.365853659 764.83902439 925.365853659 732 964 c 1,103,-1
 675 1039 l 1,104,-1
 823 1155 l 1,105,-1
 883 1081 l 1,106,107
 958.935779817 979.752293578 958.935779817 979.752293578 992 865 c 1,108,109
 998 865 998 865 1004.5 863.5 c 128,-1,110
 1011 862 1011 862 1057 852.5 c 128,-1,111
 1103 843 1103 843 1168.5 806 c 0,112,113
 1298.9485404 732.311511527 1298.9485404 732.311511527 1346 606.5 c 0,114,115
 1369 545 1369 545 1369 466.5 c 128,-1,116
 1369 388 1369 388 1332 313.5 c 0,117,118
 1257.2223576 162.934206518 1257.2223576 162.934206518 1090 101 c 0,119,120
 1009 71 1009 71 903.5 71 c 128,-1,121
 798 71 798 71 678 129 c 1,30,31
EndSplineSet
EndChar

StartChar: uni0D8A
Encoding: 3466 3466 60
Width: 2087
Flags: W
LayerCount: 2
Back
Fore
SplineSet
1270 443 m 1,0,1
 1362 473 1362 473 1444 473 c 0,2,3
 1733.85714286 473 1733.85714286 473 1911 256 c 0,4,5
 2021 114.974358974 2021 114.974358974 2021 -58 c 0,6,7
 2021 -296.394736842 2021 -296.394736842 1854 -459 c 0,8,9
 1692.69467213 -613.938012295 1692.69467213 -613.938012295 1470 -616 c 0,10,11
 1237.43564356 -616 1237.43564356 -616 1068.5 -453.5 c 0,12,13
 900 -291.419047619 900 -291.419047619 900 -66 c 0,14,15
 900 58.1212121212 900 58.1212121212 957.5 201 c 0,16,17
 974 242 974 242 985 267 c 128,-1,18
 996 292 996 292 999.5 301.5 c 128,-1,19
 1003 311 1003 311 1009 320 c 0,20,21
 1188.43197913 747.87625792 1188.43197913 747.87625792 1213 1229 c 1,22,-1
 425 1229 l 1,23,24
 334.840017629 1216.8162186 334.840017629 1216.8162186 325.5 1101 c 0,25,26
 323 1070 323 1070 322 1042 c 1,27,-1
 327 71 l 1,28,-1
 123 71 l 1,29,-1
 120 1042 l 2,30,31
 120 1179.73076923 120 1179.73076923 155 1246.36538462 c 128,-1,32
 190 1313 190 1313 228.5 1349.5 c 0,33,34
 311.327296248 1428.02457956 311.327296248 1428.02457956 418 1430 c 1,35,-1
 1599 1430 l 1,36,-1
 1599 1229 l 1,37,-1
 1414 1229 l 1,38,39
 1398.09189626 829.308893476 1398.09189626 829.308893476 1270 443 c 1,0,1
1790.5 1044 m 0,40,41
 1859 1013.92682927 1859 1013.92682927 1859 930.5 c 0,42,43
 1859 897 1859 897 1835 872.5 c 0,44,45
 1793.36734694 830 1793.36734694 830 1749.68367347 830.5 c 0,46,47
 1645.35372316 831.694152667 1645.35372316 831.694152667 1638 942 c 1,48,49
 1638 1013.85 1638 1013.85 1705 1044 c 0,50,51
 1725 1053 1725 1053 1747.5 1053 c 128,-1,52
 1770 1053 1770 1053 1790.5 1044 c 0,40,41
760 839 m 0,53,54
 693 869.15 693 869.15 693 953.5 c 0,55,56
 693 988 693 988 725 1020 c 256,57,58
 758 1053 758 1053 803 1053 c 1,59,60
 914 1036.18181818 914 1036.18181818 914 942 c 0,61,62
 914 897 914 897 890 872.5 c 0,63,64
 848.367346939 830 848.367346939 830 803 830 c 256,65,66
 780 830 780 830 760 839 c 0,53,54
1462 -414 m 0,67,68
 1622.81818182 -414 1622.81818182 -414 1736 -289.5 c 0,69,70
 1823 -193.8 1823 -193.8 1823 -64 c 0,71,72
 1823 77.5294117647 1823 77.5294117647 1708 179 c 0,73,74
 1598.09090909 272 1598.09090909 272 1459 272 c 0,75,76
 1313.53333333 272 1313.53333333 272 1209 174 c 0,77,78
 1104 75.4285714286 1104 75.4285714286 1104 -59 c 0,79,80
 1104 -142 1104 -142 1140 -214 c 0,81,82
 1142 -220 1142 -220 1147.5 -228 c 128,-1,83
 1153 -236 1153 -236 1153 -237 c 2,84,-1
 1153 -238 l 1,85,86
 1226.61849711 -363.764932563 1226.61849711 -363.764932563 1370 -402 c 0,87,88
 1415 -414 1415 -414 1462 -414 c 0,67,68
EndSplineSet
EndChar

StartChar: uni0D8B
Encoding: 3467 3467 61
Width: 1827
Flags: W
LayerCount: 2
Back
Fore
SplineSet
453 1202 m 1,0,1
 583.428571429 1285 583.428571429 1285 696.214285714 1285 c 0,2,3
 916.314285714 1285 916.314285714 1285 1077 1133 c 0,4,5
 1236 980.534246575 1236 980.534246575 1236 779 c 0,6,7
 1236 638 1236 638 1159 529 c 0,8,9
 1053.42601068 379.551106026 1053.42601068 379.551106026 815 322 c 0,10,11
 714.352941176 297.705882353 714.352941176 297.705882353 681.176470588 291.352941176 c 0,12,13
 574.229773463 270.873786408 574.229773463 270.873786408 494.114886731 242.936893204 c 128,-1,14
 414 215 414 215 367 150.5 c 128,-1,15
 320 86 320 86 320 0 c 0,16,17
 320 -171.769230769 320 -171.769230769 484 -279 c 0,18,19
 647.058823529 -387 647.058823529 -387 904 -387 c 0,20,21
 1322.43055556 -387 1322.43055556 -387 1691 -164 c 0,22,23
 1810 -92 1810 -92 1912 1 c 1,24,-1
 1917 7 l 1,25,-1
 2054 -146 l 1,26,-1
 2048 -150 l 1,27,28
 1691.06948181 -470.322259913 1691.06948181 -470.322259913 1212 -561.5 c 0,29,30
 1057 -591 1057 -591 893 -591 c 128,-1,31
 729 -591 729 -591 585 -546.5 c 128,-1,32
 441 -502 441 -502 337 -422.5 c 0,33,34
 117 -254.326923077 117 -254.326923077 117 4 c 0,35,36
 117 169.2 117 169.2 221 294 c 0,37,38
 343.425531915 436.829787234 343.425531915 436.829787234 659 496 c 1,39,40
 731.031496063 505.003937008 731.031496063 505.003937008 815.515748031 535.001968504 c 0,41,42
 968.690644615 589.390156421 968.690644615 589.390156421 1011.5 677 c 0,43,44
 1033 721 1033 721 1033 768 c 0,45,46
 1033 933.5 1033 933.5 880 1028 c 1,47,-1
 884 979 l 1,48,49
 884 868.837837838 884 868.837837838 804 791 c 0,50,51
 724 711 724 711 615 711 c 0,52,53
 498.736842105 711 498.736842105 711 422 792 c 0,54,55
 344 870 344 870 344 983 c 1,56,57
 352.789115646 1119.23129252 352.789115646 1119.23129252 455 1201 c 1,58,-1
 453 1202 l 1,0,1
672.5 920 m 128,-1,60
 696 944 696 944 696 978 c 128,-1,61
 696 1012 696 1012 672.5 1036 c 128,-1,62
 649 1060 649 1060 615 1060 c 256,63,64
 581 1060 581 1060 556.5 1036 c 128,-1,65
 532 1012 532 1012 532 978 c 128,-1,66
 532 944 532 944 556.5 920 c 128,-1,67
 581 896 581 896 615 896 c 256,68,59
 649 896 649 896 672.5 920 c 128,-1,60
EndSplineSet
EndChar

StartChar: uni0D8F
Encoding: 3471 3471 65
Width: 2167
Flags: W
LayerCount: 2
Back
Fore
SplineSet
203 170 m 1,0,1
 74 385 74 385 74 646 c 0,2,3
 74 834 74 834 148.5 971.5 c 128,-1,4
 223 1109 223 1109 361 1181.5 c 128,-1,5
 499 1254 499 1254 679 1254 c 2,6,-1
 704 1254 l 2,7,8
 871 1254 871 1254 960.5 1160 c 128,-1,9
 1050 1066 1050 1066 1050 880 c 2,10,-1
 1050 797 l 1,11,-1
 875 797 l 2,12,13
 678 797 678 797 588 728 c 128,-1,14
 498 659 498 659 498 510 c 0,15,16
 498 328.689189189 498 328.689189189 647 226 c 0,17,18
 797 124 797 124 1083 124 c 0,19,20
 1378.07692308 124 1378.07692308 124 1529 233 c 0,21,22
 1669 332.166666667 1669 332.166666667 1669 495.083333333 c 128,-1,23
 1669 658 1669 658 1580 727.5 c 128,-1,24
 1491 797 1491 797 1294 797 c 2,25,-1
 1117 797 l 1,26,-1
 1117 880 l 2,27,28
 1117 1062 1117 1062 1206 1158 c 128,-1,29
 1295 1254 1295 1254 1463 1254 c 2,30,-1
 1488 1254 l 2,31,32
 1668 1254 1668 1254 1808 1179.5 c 128,-1,33
 1948 1105 1948 1105 2021 968 c 128,-1,34
 2094 831 2094 831 2094 674 c 0,35,36
 2094 391.71875 2094 391.71875 1965 170 c 1,37,-1
 1830 243 l 1,38,39
 1944 405 1944 405 1944 638 c 0,40,41
 1944 938 1944 938 1748 1062 c 1,42,43
 1754 1040 1754 1040 1754 1011.5 c 0,44,45
 1754 952 1754 952 1744 914 c 1,46,-1
 1600 937 l 1,47,48
 1609 971.2 1609 971.2 1609 998 c 0,49,50
 1609 1119 1609 1119 1452 1119 c 0,51,52
 1365 1119 1365 1119 1316 1069.5 c 128,-1,53
 1267 1020 1267 1020 1263 932 c 1,54,-1
 1294 932 l 2,55,56
 1819 932 1819 932 1819 514 c 0,57,58
 1819 253.462365591 1819 253.462365591 1631 116 c 256,59,60
 1442.26470588 -22 1442.26470588 -22 1082 -22 c 256,61,62
 538.82 -22 538.82 -22 395 284 c 0,63,64
 348 384 348 384 348 514 c 0,65,66
 348 932 348 932 874 932 c 2,67,-1
 905 932 l 1,68,69
 900 1023 900 1023 850.5 1071 c 128,-1,70
 801 1119 801 1119 716 1119 c 0,71,72
 558 1119 558 1119 558 998 c 0,73,74
 558 975 558 975 568 937 c 1,75,-1
 423 914 l 1,76,77
 413 950 413 950 413 989 c 0,78,79
 413 1037 413 1037 418 1062 c 1,80,81
 224 940 224 940 224 638 c 0,82,83
 224 406.446428571 224 406.446428571 337 243 c 1,84,-1
 203 170 l 1,0,1
EndSplineSet
EndChar

StartChar: uni0D91
Encoding: 3473 3473 67
Width: 2397
Flags: W
LayerCount: 2
Back
Fore
SplineSet
2107 1207 m 1,0,1
 2099 1199 2099 1199 2081.54545455 1187.36363636 c 128,-1,2
 2064.09090909 1175.72727273 2064.09090909 1175.72727273 2033.54545455 1147.36363636 c 128,-1,3
 2003 1119 2003 1119 1979.69158179 1093.74921361 c 128,-1,4
 1956.38316359 1068.49842722 1956.38316359 1068.49842722 1949.88519098 1019.5241233 c 0,5,6
 1946.77038195 996.048246594 1946.77038195 996.048246594 1970.73134482 968.524123297 c 128,-1,7
 1994.69230769 941 1994.69230769 941 2021.34615385 941 c 0,8,9
 2077.5 941 2077.5 941 2093.5 973 c 0,10,11
 2108 1002 2108 1002 2108 1077 c 128,-1,12
 2108 1152 2108 1152 2107 1176 c 1,13,-1
 2107 1207 l 1,0,1
2087 751 m 1,14,15
 1996.75206612 732.950413223 1996.75206612 732.950413223 1927.87603306 765.475206612 c 0,16,17
 1800.80863675 825.479254869 1800.80863675 825.479254869 1766.5 944 c 0,18,19
 1710.98002663 1135.79627164 1710.98002663 1135.79627164 1918 1304 c 0,20,21
 2000.75 1371.234375 2000.75 1371.234375 2023.375 1395.1171875 c 0,22,23
 2079.92255755 1454.80844559 2079.92255755 1454.80844559 2099.5 1587.5 c 0,24,25
 2104 1618 2104 1618 2104 1633 c 1,26,-1
 2300 1633 l 1,27,-1
 2304 1073 l 1,28,29
 2304 800.078947368 2304 800.078947368 2260 634.5 c 0,30,31
 2175.61581657 316.948993917 2175.61581657 316.948993917 1883 130 c 0,32,33
 1648.2173913 -20 1648.2173913 -20 1358 -20 c 0,34,35
 1278.8 -20 1278.8 -20 1214 -11 c 1,36,-1
 1126 5 l 1,37,-1
 1127 651 l 1,38,39
 1031.86486486 642.081081081 1031.86486486 642.081081081 953.932432432 645.040540541 c 128,-1,40
 876 648 876 648 838 649 c 1,41,42
 907.204545455 556.068181818 907.204545455 556.068181818 914.602272727 459.034090909 c 0,43,44
 933.837054793 206.73638882 933.837054793 206.73638882 750 70.5 c 0,45,46
 637.325301205 -13 637.325301205 -13 498 -13 c 0,47,48
 344.485714286 -13 344.485714286 -13 225 89 c 1,49,50
 95.2738944365 206.069900143 95.2738944365 206.069900143 86 373 c 0,51,52
 79.1992481203 495.413533835 79.1992481203 495.413533835 153.5 622 c 0,53,54
 231.422738341 754.757257913 231.422738341 754.757257913 391 810.5 c 0,55,56
 554.765782251 867.705855444 554.765782251 867.705855444 703 864 c 0,57,58
 783 862 783 862 838.5 859.5 c 128,-1,59
 894 857 894 857 926 856 c 128,-1,60
 958 855 958 855 1002.5 854 c 0,61,62
 1362.70864407 845.905423729 1362.70864407 845.905423729 1416.5 1119 c 0,63,64
 1423 1152 1423 1152 1420 1182 c 1,65,-1
 1620 1180 l 1,66,67
 1632.40948276 1012.47198276 1632.40948276 1012.47198276 1535 869.5 c 0,68,69
 1487.17015782 799.298134864 1487.17015782 799.298134864 1396.5 738 c 0,70,71
 1361 714 1361 714 1320 697 c 1,72,-1
 1320 175 l 1,73,74
 1497.35135135 168.740540541 1497.35135135 168.740540541 1641.67567568 226.37027027 c 0,75,76
 2022.1843648 378.310097576 2022.1843648 378.310097576 2087 751 c 1,14,15
364 247 m 0,77,78
 454.014641288 170.487554905 454.014641288 170.487554905 567 207.5 c 0,79,80
 632.216589862 228.8640553 632.216589862 228.8640553 673 288 c 0,81,82
 712.185852982 345.747572816 712.185852982 345.747572816 709.092926491 400.373786408 c 0,83,84
 700.902055393 545.038160237 700.902055393 545.038160237 585.5 590 c 0,85,86
 509.167333333 619.74 509.167333333 619.74 429.5 587 c 0,87,88
 359.042896258 558.045025859 359.042896258 558.045025859 323 495.5 c 0,89,90
 261.048849669 387.996533249 261.048849669 387.996533249 329.5 286.5 c 0,91,92
 344 265 344 265 364 247 c 0,77,78
EndSplineSet
EndChar

StartChar: uni0D94
Encoding: 3476 3476 70
Width: 1814
Flags: W
LayerCount: 2
Back
Fore
SplineSet
1368 970 m 1,0,1
 1343 945 1343 945 1343 928.5 c 0,2,3
 1343 897.75 1343 897.75 1353.5 885.875 c 0,4,5
 1384.33684211 851 1384.33684211 851 1410.66842105 851 c 128,-1,6
 1437 851 1437 851 1451 853.5 c 0,7,8
 1509.24337349 863.90060241 1509.24337349 863.90060241 1544 934.5 c 0,9,10
 1592.77698917 1033.57825925 1592.77698917 1033.57825925 1527 1162 c 0,11,12
 1423 1370 1423 1370 1127 1444 c 0,13,14
 892.736263736 1498.76295133 892.736263736 1498.76295133 675 1421 c 0,15,16
 515.824742268 1364.15169367 515.824742268 1364.15169367 403 1237 c 0,17,18
 340 1166 340 1166 300 1082 c 1,19,-1
 121 1167 l 1,20,21
 225.025641026 1391.36902966 225.025641026 1391.36902966 438 1525 c 0,22,23
 677.340996169 1675.35524118 677.340996169 1675.35524118 978.5 1663 c 0,24,25
 1265.46707894 1651.22699163 1265.46707894 1651.22699163 1477 1507 c 0,26,27
 1628.48494711 1403.99023596 1628.48494711 1403.99023596 1706 1251 c 1,28,29
 1761 1133.14285714 1761 1133.14285714 1761 987 c 1,30,31
 1748.76893843 830.034709906 1748.76893843 830.034709906 1633 729 c 0,32,33
 1540.50692521 648.83933518 1540.50692521 648.83933518 1412.5 652 c 0,34,35
 1345.08709677 653.664516129 1345.08709677 653.664516129 1278 692 c 1,36,37
 1302.30508475 546.169491525 1302.30508475 546.169491525 1422 470 c 0,38,39
 1491 424 1491 424 1569 418 c 1,40,-1
 1565 220 l 1,41,42
 1525.76923077 214.769230769 1525.76923077 214.769230769 1493.38461538 182.384615385 c 2,43,-1
 1444 133 l 1,44,45
 1367.6433121 50.9872611465 1367.6433121 50.9872611465 1320.32165605 24.9936305732 c 0,46,47
 1238.4103161 -20 1238.4103161 -20 1145 -20 c 0,48,49
 994.5 -20 994.5 -20 868 95 c 1,50,51
 700.33038961 -53.3231168831 700.33038961 -53.3231168831 481 -12 c 0,52,53
 335.339622642 18.3459119497 335.339622642 18.3459119497 227.5 134 c 0,54,55
 127.804932946 240.919347276 127.804932946 240.919347276 101 391.5 c 0,56,57
 62.7037249284 606.63495702 62.7037249284 606.63495702 172 794 c 0,58,59
 286.61682243 990.485981308 286.61682243 990.485981308 494 1029 c 0,60,61
 645.551724138 1057.1453202 645.551724138 1057.1453202 771 976.5 c 0,62,63
 908.233870968 888.278225806 908.233870968 888.278225806 925 729 c 0,64,65
 943.399014778 545.009852217 943.399014778 545.009852217 787 438 c 0,66,67
 715.318584071 388.221238938 715.318584071 388.221238938 627.159292035 382.610619469 c 128,-1,68
 539 377 539 377 460.5 410.5 c 128,-1,69
 382 444 382 444 328 508 c 1,70,-1
 481 636 l 1,71,72
 531.484679666 574.540389972 531.484679666 574.540389972 609 581 c 0,73,74
 686.313432836 587.626865672 686.313432836 587.626865672 719 653 c 1,75,76
 750.162881754 734.023492561 750.162881754 734.023492561 685 789.5 c 0,77,78
 614.839057723 849.231613019 614.839057723 849.231613019 526.5 833.5 c 0,79,80
 411.72666927 813.060913706 411.72666927 813.060913706 344 693 c 0,81,82
 270.683673469 570.806122449 270.683673469 570.806122449 296.5 430.5 c 0,83,84
 320.648893167 299.256015399 320.648893167 299.256015399 417 229 c 0,85,86
 533.730077121 143.884318766 533.730077121 143.884318766 667 201 c 0,87,88
 740.534883721 233.441860465 740.534883721 233.441860465 783 301 c 1,89,-1
 954 302 l 1,90,91
 998.089020772 234.908011869 998.089020772 234.908011869 1084 190 c 1,92,93
 1180.57798165 151.95412844 1180.57798165 151.95412844 1257.5 227 c 0,94,95
 1278 247 1278 247 1292 261.5 c 128,-1,96
 1306 276 1306 276 1312.5 282.5 c 128,-1,97
 1319 289 1319 289 1325 296 c 1,98,99
 1145.94114663 405.948418738 1145.94114663 405.948418738 1093.5 603 c 0,100,101
 1033.60795455 828.048898072 1033.60795455 828.048898072 1160.5 1028 c 0,102,103
 1194.16591928 1081.04932735 1194.16591928 1081.04932735 1233 1116 c 1,104,-1
 1368 970 l 1,0,1
EndSplineSet
EndChar

StartChar: uni0D9A
Encoding: 3482 3482 73
Width: 2153
Flags: W
LayerCount: 2
Back
Fore
SplineSet
809 245 m 1,0,1
 840.636363636 158 840.636363636 158 926 158 c 0,2,3
 1015.12903226 158 1015.12903226 158 1049 233 c 0,4,5
 1063 264 1063 264 1063 315 c 2,6,-1
 1063 678 l 1,7,-1
 1024 678 l 1,8,-1
 787 677 l 2,9,10
 594.461538462 677 594.461538462 677 525.230769231 667 c 128,-1,11
 456 657 456 657 408 642 c 0,12,13
 308.539325843 610.918539326 308.539325843 610.918539326 249 545 c 0,14,15
 190 481.931034483 190 481.931034483 190 415.965517241 c 0,16,17
 190 297.333333333 190 297.333333333 281 228 c 0,18,19
 365.484848485 160 365.484848485 160 488 160 c 0,20,21
 568.151515152 160 568.151515152 160 611 210.5 c 0,22,23
 625 227 625 227 625 249 c 1,24,-1
 627 249 l 1,25,-1
 627 255 l 1,26,-1
 807 258 l 1,27,28
 808 256 808 256 808 254 c 128,-1,29
 808 252 808 252 809 249 c 1,30,-1
 811 249 l 1,31,-1
 809 245 l 1,0,1
1251 681 m 1,32,-1
 1247 315 l 1,33,34
 1247 149.333333333 1247 149.333333333 1147 56 c 256,35,36
 1059.14285714 -26 1059.14285714 -26 929.071428571 -26 c 128,-1,37
 799 -26 799 -26 717 56 c 1,38,39
 621.954545455 -26 621.954545455 -26 504.477272727 -26 c 0,40,41
 286.016949153 -26 286.016949153 -26 145 102 c 256,42,43
 6 228.169230769 6 228.169230769 6 405 c 0,44,45
 6 582.835820896 6 582.835820896 147 707 c 0,46,47
 309.274426054 849.302189002 309.274426054 849.302189002 622 858.5 c 0,48,49
 707 861 707 861 784 861 c 1,50,-1
 1024 865 l 1,51,-1
 1065 865 l 1,52,-1
 1065 917 l 2,53,54
 1065 1014 1065 1014 1092 1105 c 128,-1,55
 1119 1196 1119 1196 1154 1284 c 1,56,-1
 889 1284 l 1,57,-1
 808 1282 l 1,58,59
 678.534883721 1282 678.534883721 1282 616.5 1233.5 c 0,60,61
 589 1212 589 1212 589 1176 c 128,-1,62
 589 1140 589 1140 613 1119 c 128,-1,63
 637 1098 637 1098 668 1098 c 128,-1,64
 699 1098 699 1098 723 1121 c 128,-1,65
 747 1144 747 1144 747 1178 c 1,66,-1
 933 1183 l 1,67,68
 933 1075.42857143 933 1075.42857143 858 994 c 0,69,70
 779.368421053 911 779.368421053 911 668 911 c 0,71,72
 557.861111111 911 557.861111111 911 483 988 c 0,73,74
 405 1063.83333333 405 1063.83333333 405 1174 c 0,75,76
 405 1312.49056604 405 1312.49056604 525 1394 c 0,77,78
 629.485714286 1463 629.485714286 1463 770 1463 c 2,79,-1
 1432 1463 l 1,80,-1
 1380 1344 l 1,81,82
 1360 1289 1360 1289 1337 1235 c 0,83,84
 1251 1033.08695652 1251 1033.08695652 1251 917 c 2,85,-1
 1251 865 l 1,86,-1
 1471 865 l 1,87,88
 1706.89399293 860.932862191 1706.89399293 860.932862191 1865 748 c 0,89,90
 2048 613.157894737 2048 613.157894737 2048 395 c 0,91,92
 2048 217.620689655 2048 217.620689655 1921 95 c 0,93,94
 1798.89473684 -25 1798.89473684 -25 1628 -25 c 0,95,96
 1532 -25 1532 -25 1446 18 c 128,-1,97
 1360 61 1360 61 1302 135 c 1,98,-1
 1449 248 l 1,99,100
 1515.28571429 161 1515.28571429 161 1631 161 c 0,101,102
 1728.42424242 161 1728.42424242 161 1797 234 c 0,103,104
 1863 302.129032258 1863 302.129032258 1863 394 c 0,105,106
 1863 478.5 1863 478.5 1813.5 540.75 c 128,-1,107
 1764 603 1764 603 1702.5 630 c 128,-1,108
 1641 657 1641 657 1567.5 668 c 0,109,110
 1480.63636364 681 1480.63636364 681 1251 681 c 1,32,-1
EndSplineSet
EndChar

StartChar: uni0D9C
Encoding: 3484 3484 75
Width: 2143
Flags: W
LayerCount: 2
Back
Fore
SplineSet
1201.5 517 m 0,0,1
 1114.39034364 209.336107325 1114.39034364 209.336107325 989 98.5 c 0,2,3
 869.646464646 -7 869.646464646 -7 663 -7 c 0,4,5
 518.052631579 -7 518.052631579 -7 385 72 c 0,6,7
 178.025069638 191.657381616 178.025069638 191.657381616 108 420 c 0,8,9
 85 495 85 495 85 604 c 128,-1,10
 85 713 85 713 126.5 835 c 128,-1,11
 168 957 168 957 250.5 1049 c 0,12,13
 430.744565217 1250 430.744565217 1250 744 1250 c 2,14,-1
 769 1250 l 1,15,-1
 761 1032 l 1,16,-1
 746 1032 l 1,17,18
 539.112491373 1024.04278813 539.112491373 1024.04278813 417 904 c 256,19,20
 295 784.06779661 295 784.06779661 295 583 c 0,21,22
 295 424.333333333 295 424.333333333 390 323 c 0,23,24
 485.510204082 219 485.510204082 219 629 219 c 0,25,26
 839.669421488 219 839.669421488 219 925 425.5 c 0,27,28
 962.924738012 517.277865989 962.924738012 517.277865989 989.962369006 637.638932995 c 128,-1,29
 1017 758 1017 758 1040.5 829 c 0,30,31
 1103.35212326 1018.893649 1103.35212326 1018.893649 1197 1119 c 256,32,33
 1327.96774194 1259 1327.96774194 1259 1539 1259 c 0,34,35
 1878.92626728 1259 1878.92626728 1259 1978.5 936.5 c 0,36,37
 2012 828 2012 828 2012 702.5 c 0,38,39
 2012 486.111111111 2012 486.111111111 1983.5 386.555555556 c 128,-1,40
 1955 287 1955 287 1927 237 c 128,-1,41
 1899 187 1899 187 1863.5 146.5 c 0,42,43
 1803.91739895 78.525483304 1803.91739895 78.525483304 1691 4 c 1,44,-1
 1543 175 l 1,45,46
 1601 214 1601 214 1644.5 254 c 0,47,48
 1732.38466887 334.813488615 1732.38466887 334.813488615 1759 485 c 0,49,50
 1773 564 1773 564 1773 659.5 c 0,51,52
 1773 840.428571429 1773 840.428571429 1721 924 c 0,53,54
 1659.04545455 1018 1659.04545455 1018 1524 1018 c 0,55,56
 1444.71428571 1018 1444.71428571 1018 1364 905 c 0,57,58
 1299.24118208 816.856053384 1299.24118208 816.856053384 1262.12059104 708.428026692 c 128,-1,59
 1225 600 1225 600 1201.5 517 c 0,0,1
EndSplineSet
EndChar

StartChar: uni0D9E
Encoding: 3486 3486 77
Width: 1824
Flags: W
LayerCount: 2
Back
Fore
SplineSet
173 1539 m 1,0,1
 482.333333333 1713 482.333333333 1713 870 1713 c 0,2,3
 1293.875 1713 1293.875 1713 1517 1458 c 256,4,5
 1741 1202 1741 1202 1741 712 c 0,6,7
 1741 -22 1741 -22 1241 -22 c 0,8,9
 1138 -22 1138 -22 1058 21 c 128,-1,10
 978 64 978 64 909 158 c 1,11,12
 815.470044992 16.2879469571 815.470044992 16.2879469571 668.5 -12.5 c 0,13,14
 620 -22 620 -22 544.5 -22 c 0,15,16
 376.076923077 -22 376.076923077 -22 263 83 c 1,17,18
 153 191 153 191 153 374 c 0,19,20
 153 540 153 540 254 641 c 0,21,22
 356 743 356 743 594 813 c 2,23,-1
 665 834 l 2,24,25
 747.055555556 857.444444444 747.055555556 857.444444444 784.527777778 873.222222222 c 0,26,27
 860 905 860 905 860 978.5 c 128,-1,28
 860 1052 860 1052 773.5 1085.5 c 128,-1,29
 687 1119 687 1119 509 1119 c 2,30,-1
 503 1119 l 1,31,32
 546 1051.42857143 546 1051.42857143 546 983.214285714 c 0,33,34
 546 807.666666667 546 807.666666667 394 757 c 0,35,36
 349 742 349 742 293.5 742 c 0,37,38
 120.345679012 742 120.345679012 742 68 874.5 c 0,39,40
 52 915 52 915 52 973.5 c 0,41,42
 52 1102.38333333 52 1102.38333333 173 1177 c 256,43,44
 297.864864865 1254 297.864864865 1254 524 1254 c 0,45,46
 1009 1254 1009 1254 1009 978 c 0,47,48
 1007.10752688 860.666666667 1007.10752688 860.666666667 921 800 c 0,49,50
 849.463576159 747.973509934 849.463576159 747.973509934 703.731788079 708.986754967 c 128,-1,51
 558 670 558 670 490.5 639 c 128,-1,52
 423 608 423 608 383 570.5 c 0,53,54
 303 495.5 303 495.5 303 373.25 c 128,-1,55
 303 251 303 251 370.5 187.5 c 128,-1,56
 438 124 438 124 572.5 124 c 128,-1,57
 707 124 707 124 774.5 194.5 c 128,-1,58
 842 265 842 265 842 425 c 2,59,-1
 842 439 l 1,60,-1
 980 439 l 1,61,-1
 980 425 l 2,62,63
 980 272 980 272 1043.5 198 c 128,-1,64
 1107 124 1107 124 1239 124 c 0,65,66
 1586 124 1586 124 1586 707 c 0,67,68
 1586 1135 1586 1135 1403 1352 c 128,-1,69
 1220 1569 1220 1569 869.209302326 1569 c 128,-1,70
 518.418604651 1569 518.418604651 1569 240 1405 c 1,71,-1
 173 1539 l 1,0,1
301 874 m 0,72,73
 407 874 407 874 407 978 c 0,74,75
 407 1057 407 1057 367 1109 c 1,76,77
 279 1096 279 1096 238 1060 c 128,-1,78
 197 1024 197 1024 197 976 c 256,79,80
 197 928 197 928 223.5 901 c 128,-1,81
 250 874 250 874 301 874 c 0,72,73
EndSplineSet
EndChar

StartChar: uni0DA0
Encoding: 3488 3488 79
Width: 965
Flags: W
LayerCount: 2
Back
Fore
SplineSet
184 251 m 0,0,1
 68.5521484005 366.447851599 68.5521484005 366.447851599 69.5 558.096153846 c 0,2,3
 70 659.192307692 70 659.192307692 123.5 755.596153846 c 128,-1,4
 177 852 177 852 272 903.5 c 128,-1,5
 367 955 367 955 472.5 955.5 c 0,6,7
 667.839427127 956.425779275 667.839427127 956.425779275 783 837 c 256,8,9
 898.062951935 717.675457252 898.062951935 717.675457252 894 545 c 1,10,11
 894 365 894 365 780 249 c 0,12,13
 667.01754386 134 667.01754386 134 480 134 c 0,14,15
 298.742135922 132.00815534 298.742135922 132.00815534 184 251 c 0,0,1
289 351 m 0,16,17
 359.945945946 276 359.945945946 276 480 276 c 256,18,19
 602.054054054 276 602.054054054 276 673 351 c 0,20,21
 744 427.916666667 744 427.916666667 744 554 c 0,22,23
 744 671.972222222 744 671.972222222 673 741 c 0,24,25
 603 813 603 813 480 813 c 0,26,27
 360 813 360 813 290 741 c 0,28,29
 220 671 220 671 220 549.558823529 c 128,-1,30
 220 428.117647059 220 428.117647059 289 351 c 0,16,17
EndSplineSet
EndChar

StartChar: uni0DA1
Encoding: 3489 3489 80
Width: 1639
Flags: W
LayerCount: 2
Back
Fore
SplineSet
1402 624 m 1,0,1
 1313.37142857 483 1313.37142857 483 1129 483 c 0,2,3
 930.861060989 479.523878263 930.861060989 479.523878263 864 681.5 c 0,4,5
 840 754 840 754 840 870.5 c 0,6,7
 840 1112.83516484 840 1112.83516484 1023 1326 c 0,8,9
 1208.29062996 1539.48703017 1208.29062996 1539.48703017 1525 1659 c 1,10,-1
 1585 1530 l 1,11,12
 1267 1414 1267 1414 1097 1224 c 1,13,14
 1149 1254 1149 1254 1211 1254 c 0,15,16
 1405.38709677 1254 1405.38709677 1254 1462 1059 c 0,17,18
 1480 997 1480 997 1480 924.9 c 128,-1,19
 1480 852.8 1480 852.8 1469 789 c 1,20,21
 1565 685 1565 685 1565 534 c 0,22,23
 1565 119.48409894 1565 119.48409894 1134.5 13 c 0,24,25
 993 -22 993 -22 807.5 -22 c 0,26,27
 444.594202899 -22 444.594202899 -22 256 121 c 0,28,29
 74 257.5 74 257.5 74 514 c 0,30,31
 74 932 74 932 599 932 c 2,32,-1
 630 932 l 1,33,34
 625 1023 625 1023 575.5 1071 c 128,-1,35
 526 1119 526 1119 441 1119 c 0,36,37
 284 1119 284 1119 284 998 c 0,38,39
 284 979.75 284 979.75 293 937 c 1,40,-1
 149 914 l 1,41,42
 135 964 135 964 135 1016 c 0,43,44
 135 1131 135 1131 212 1192.5 c 128,-1,45
 289 1254 289 1254 443.5 1254 c 128,-1,46
 598 1254 598 1254 687 1158 c 128,-1,47
 776 1062 776 1062 776 880 c 2,48,-1
 776 797 l 1,49,-1
 600 797 l 2,50,51
 309.211009174 797 309.211009174 797 245.5 635.5 c 0,52,53
 224 581 224 581 224 499 c 0,54,55
 224 328 224 328 376 226 c 256,56,57
 528 124 528 124 808 124 c 0,58,59
 1102.49019608 124 1102.49019608 124 1258 227 c 0,60,61
 1415 330.341772152 1415 330.341772152 1415 517 c 0,62,63
 1415 586.857142857 1415 586.857142857 1402 624 c 1,0,1
1338 915 m 2,64,65
 1338 1129 1338 1129 1171 1129 c 0,66,67
 1092 1129 1092 1129 1041.5 1077 c 128,-1,68
 991 1025 991 1025 979 932 c 1,69,-1
 1037 932 l 2,70,71
 1217 932 1217 932 1337 880 c 1,72,-1
 1337 889 l 2,73,74
 1337 893 1337 893 1338 897 c 1,75,-1
 1338 915 l 2,64,65
1313 736 m 1,76,77
 1222.48387097 797 1222.48387097 797 1019 797 c 2,78,-1
 979 797 l 1,79,80
 989.65675446 662.0144435 989.65675446 662.0144435 1066 631 c 0,81,82
 1098 618 1098 618 1152.5 618 c 0,83,84
 1271 618 1271 618 1313 736 c 1,76,77
EndSplineSet
EndChar

StartChar: uni0DA2
Encoding: 3490 3490 81
Width: 1738
Flags: W
LayerCount: 2
Back
Fore
SplineSet
1230.5 1186 m 128,-1,1
 1203 1159 1203 1159 1203 1120.42307692 c 128,-1,2
 1203 1081.84615385 1203 1081.84615385 1223 1062.92307692 c 0,3,4
 1258.85365854 1029 1258.85365854 1029 1287.42682927 1029 c 0,5,6
 1357.45454545 1029 1357.45454545 1029 1381 1084.5 c 0,7,8
 1388 1101 1388 1101 1388 1130 c 128,-1,9
 1388 1159 1388 1159 1361.5 1186 c 128,-1,10
 1335 1213 1335 1213 1296.5 1213 c 128,-1,0
 1258 1213 1258 1213 1230.5 1186 c 128,-1,1
353 1190 m 1,11,12
 272.618454631 1114.64230122 272.618454631 1114.64230122 344.190638288 1051.22330606 c 0,13,14
 365.381276577 1032.44661213 365.381276577 1032.44661213 402.362280079 1033.75688815 c 128,-1,15
 439.343283582 1035.06716418 439.343283582 1035.06716418 465 1065 c 1,16,-1
 612 938 l 1,17,18
 530.800894855 842.226696495 530.800894855 842.226696495 404 838 c 0,19,20
 276.966002345 835.882766706 276.966002345 835.882766706 197 922 c 1,21,22
 110.661290323 1008.33870968 110.661290323 1008.33870968 117 1133 c 0,23,24
 121 1193 121 1193 153 1250 c 128,-1,25
 185 1307 185 1307 234 1342.5 c 0,26,27
 332.996726678 1414.22211831 332.996726678 1414.22211831 438.498363339 1417.61105915 c 0,28,29
 646.792151968 1424.30190634 646.792151968 1424.30190634 785 1284 c 1,30,-1
 820 1249 l 1,31,32
 894.313032089 1343.58022266 894.313032089 1343.58022266 992.656516045 1381.79011133 c 128,-1,33
 1091 1420 1091 1420 1175 1421 c 1,34,35
 1345.5505175 1600.52686052 1345.5505175 1600.52686052 1663 1626.5 c 0,36,37
 1718 1631 1718 1631 1775 1629 c 1,38,-1
 1772 1433 l 1,39,40
 1696.3220339 1436.22033898 1696.3220339 1436.22033898 1614.66101695 1422.11016949 c 0,41,42
 1491.45024064 1400.82063622 1491.45024064 1400.82063622 1406 1357 c 1,43,44
 1410 1355 1410 1355 1413.5 1353.5 c 128,-1,45
 1417 1352 1417 1352 1419 1348 c 0,46,47
 1505.27118644 1292.53995157 1505.27118644 1292.53995157 1544.63559322 1212.26997579 c 0,48,49
 1621.24786312 1056.04597667 1621.24786312 1056.04597667 1561 894 c 0,50,51
 1489.14087142 695.668805132 1489.14087142 695.668805132 1260 599 c 0,52,53
 1153.33333333 554 1153.33333333 554 1046.66666667 546.5 c 128,-1,54
 940 539 940 539 892.5 539 c 0,55,56
 814.5 539 814.5 539 758.25 541.5 c 0,57,58
 512.349013657 552.428932726 512.349013657 552.428932726 403 484.5 c 0,59,60
 332.715642812 440.838505383 332.715642812 440.838505383 308 380 c 0,61,62
 272.760676873 293.257050766 272.760676873 293.257050766 340.5 220.5 c 0,63,64
 467.412356979 84.1867276888 467.412356979 84.1867276888 732 204 c 1,65,66
 847.075757576 265.060606061 847.075757576 265.060606061 932 333 c 1,67,68
 1134 478.1875 1134 478.1875 1275 487 c 0,69,70
 1406.07522647 497.240252068 1406.07522647 497.240252068 1503 423 c 0,71,72
 1619.87432868 336.426423201 1619.87432868 336.426423201 1611 190 c 1,73,74
 1594.86984816 52.8937093275 1594.86984816 52.8937093275 1470 -16 c 0,75,76
 1398 -52 1398 -52 1323 -52 c 0,77,78
 1225.76923077 -52 1225.76923077 -52 1153.88461538 -7.5 c 0,79,80
 1046.51724138 58.9655172414 1046.51724138 58.9655172414 1004 144 c 1,81,82
 815.420895522 13.7906183369 815.420895522 13.7906183369 679.5 -23 c 0,83,84
 380.434532374 -103.950051387 380.434532374 -103.950051387 198 85 c 0,85,86
 143.018181818 141.945454545 143.018181818 141.945454545 122.509090909 203.472727273 c 128,-1,87
 102 265 102 265 99.5 322 c 128,-1,88
 97 379 97 379 123 446.5 c 128,-1,89
 149 514 149 514 195 565 c 0,90,91
 357.793154447 745.48806254 357.793154447 745.48806254 698.5 738 c 0,92,93
 744 737 744 737 788 736 c 2,94,-1
 867 735 l 2,95,96
 1156.34974242 730.615912994 1156.34974242 730.615912994 1297.5 849 c 0,97,98
 1313 862 1313 862 1327 879 c 1,99,100
 1320 877 1320 877 1309.375 877 c 2,101,-1
 1283 877 l 1,102,103
 1182.09615385 887.510817308 1182.09615385 887.510817308 1116 966 c 0,104,105
 1043.16307692 1052.08 1043.16307692 1052.08 1060 1198 c 1,106,107
 1035.67567568 1186.64864865 1035.67567568 1186.64864865 1000.33783784 1155.32432432 c 0,108,109
 920.207645519 1084.29496073 920.207645519 1084.29496073 916 977 c 1,110,-1
 916 947 l 1,111,-1
 719 951 l 1,112,-1
 719 978 l 1,113,114
 714.873466753 1079.10006456 714.873466753 1079.10006456 648 1148 c 0,115,116
 570.671471173 1227.41848907 570.671471173 1227.41848907 458 1223 c 0,117,118
 398.397790055 1218.88950276 398.397790055 1218.88950276 353 1190 c 1,11,12
1416 205 m 1,119,120
 1416 268 1416 268 1341 287.5 c 0,121,122
 1267.26382306 306.671406003 1267.26382306 306.671406003 1170 255 c 1,123,124
 1181.45348837 222.930232558 1181.45348837 222.930232558 1196 210 c 1,125,126
 1233.79725086 158.862542955 1233.79725086 158.862542955 1291 149 c 1,127,128
 1351.43888889 133.233333333 1351.43888889 133.233333333 1392 168 c 0,129,130
 1406 180 1406 180 1416 205 c 1,119,120
EndSplineSet
EndChar

StartChar: uni0DA3
Encoding: 3491 3491 82
Width: 2937
Flags: W
LayerCount: 2
Back
Fore
SplineSet
1326 1539 m 1,0,1
 1628.10989011 1713 1628.10989011 1713 2005 1713 c 0,2,3
 2417 1713 2417 1713 2635 1459 c 0,4,5
 2854 1206.15454545 2854 1206.15454545 2854 712 c 0,6,7
 2854 348 2854 348 2731 163 c 128,-1,8
 2608 -22 2608 -22 2366 -22 c 0,9,10
 2267 -22 2267 -22 2189 20 c 128,-1,11
 2111 62 2111 62 2044 158 c 1,12,13
 1943.23255814 14.0465116279 1943.23255814 14.0465116279 1810.5 -12.5 c 0,14,15
 1763 -22 1763 -22 1706 -22 c 0,16,17
 1483.46808511 -22 1483.46808511 -22 1390 169 c 1,18,19
 1308.72340426 -22 1308.72340426 -22 1116.36170213 -22 c 128,-1,20
 924 -22 924 -22 816 158 c 1,21,22
 766 64 766 64 698 21 c 128,-1,23
 630 -22 630 -22 542.5 -22 c 0,24,25
 292.666666667 -22 292.666666667 -22 223.5 185.5 c 0,26,27
 201 253 201 253 200 341 c 1,28,-1
 174 295 l 1,29,-1
 44 368 l 1,30,31
 314 752 314 752 498 920 c 1,32,33
 458.253164557 1077 458.253164557 1077 345 1077 c 0,34,35
 216 1077 216 1077 216 940 c 0,36,37
 216 894 216 894 238 826 c 1,38,-1
 95 797 l 1,39,40
 68 882.153846154 68 882.153846154 68 949.576923077 c 0,41,42
 68 1140.59803922 68 1140.59803922 228 1195.5 c 0,43,44
 279 1213 279 1213 343 1213 c 0,45,46
 535.177083333 1213 535.177083333 1213 607 1016 c 1,47,48
 830.208140814 1199.45874587 830.208140814 1199.45874587 1078 1239 c 0,49,50
 1172 1254 1172 1254 1314 1254 c 128,-1,51
 1456 1254 1456 1254 1612 1192 c 128,-1,52
 1768 1130 1768 1130 1907 1005 c 1,53,-1
 1854 854 l 1,54,55
 1670.00982318 844.10805501 1670.00982318 844.10805501 1563 735 c 0,56,57
 1458 625.882352941 1458 625.882352941 1458 458.941176471 c 128,-1,58
 1458 292 1458 292 1525.5 208 c 128,-1,59
 1593 124 1593 124 1721 124 c 0,60,61
 1976 124 1976 124 1976 425 c 2,62,-1
 1976 439 l 1,63,-1
 2113 439 l 1,64,-1
 2113 425 l 2,65,66
 2113 272 2113 272 2174.5 198 c 128,-1,67
 2236 124 2236 124 2363 124 c 0,68,69
 2699 124 2699 124 2699 707 c 0,70,71
 2699 1135 2699 1135 2521.5 1352 c 128,-1,72
 2344 1569 2344 1569 1996 1569 c 0,73,74
 1824 1569 1824 1569 1717 1541 c 0,75,76
 1537.36665464 1493.99314327 1537.36665464 1493.99314327 1393 1405 c 1,77,-1
 1326 1539 l 1,0,1
1367 678 m 1,78,79
 1458.59464752 920.924934726 1458.59464752 920.924934726 1729 971 c 1,80,81
 1514.5 1114 1514.5 1114 1274 1114 c 0,82,83
 912.8 1114 912.8 1114 651 883 c 1,84,85
 751 919 751 919 888 919 c 0,86,87
 1238.46666667 919 1238.46666667 919 1367 678 c 1,78,79
1100 124 m 0,88,89
 1312 124 1312 124 1312 391 c 0,90,91
 1312 580 1312 580 1196.5 679.5 c 128,-1,92
 1081 779 1081 779 861 779 c 0,93,94
 649 779 649 779 497 727 c 1,95,96
 404.78597786 622.490774908 404.78597786 622.490774908 274 439 c 1,97,-1
 337 439 l 1,98,99
 333 417 333 417 333 383 c 0,100,101
 333 244 333 244 384 184 c 128,-1,102
 435 124 435 124 539.5 124 c 128,-1,103
 644 124 644 124 696 196.5 c 128,-1,104
 748 269 748 269 748 425 c 2,105,-1
 748 439 l 1,106,-1
 885 439 l 1,107,-1
 885 417 l 2,108,109
 885 208.05 885 208.05 1009 144.5 c 0,110,111
 1049 124 1049 124 1100 124 c 0,88,89
EndSplineSet
EndChar

StartChar: uni0DA4
Encoding: 3492 3492 83
Width: 2658
Flags: W
LayerCount: 2
Back
Fore
SplineSet
2164 -248 m 0,0,1
 2164 -125 2164 -125 2250 -21 c 1,2,-1
 2225 -21 l 1,3,4
 2220 -22 2220 -22 2214 -22 c 128,-1,5
 2208 -22 2208 -22 2202 -22 c 0,6,7
 1838 -22 1838 -22 1698 190 c 1,8,9
 1624 -22 1624 -22 1420.5 -22 c 128,-1,10
 1217 -22 1217 -22 1111 158 c 1,11,12
 1059 63 1059 63 991.5 20.5 c 128,-1,13
 924 -22 924 -22 836.5 -22 c 0,14,15
 586.666666667 -22 586.666666667 -22 517.5 185.5 c 0,16,17
 495 253 495 253 494 341 c 1,18,-1
 468 295 l 1,19,-1
 338 368 l 1,20,21
 591.712250712 731.850902184 591.712250712 731.850902184 792 920 c 1,22,23
 752.253164557 1077 752.253164557 1077 640 1077 c 0,24,25
 511 1077 511 1077 511 940 c 0,26,27
 511 897.4 511 897.4 532 826 c 1,28,-1
 389 797 l 1,29,30
 365 864.2 365 864.2 365 968 c 2,31,-1
 365 977 l 2,32,33
 365 981 365 981 365.5 983.5 c 128,-1,34
 366 986 366 986 366 987 c 1,35,36
 224 867 224 867 224 620 c 0,37,38
 224 444.491525424 224 444.491525424 304.5 298.5 c 0,39,40
 334 245 334 245 376 186 c 1,41,-1
 244 108 l 1,42,43
 74 359.136363636 74 359.136363636 74 628 c 0,44,45
 74 866.791044776 74 866.791044776 209 1030 c 0,46,47
 346.168303571 1193.01160714 346.168303571 1193.01160714 578 1209 c 0,48,49
 592 1213 592 1213 619 1213 c 0,50,51
 830.363636364 1213 830.363636364 1213 902 1016 c 1,52,53
 1132.84400324 1201.87439222 1132.84400324 1201.87439222 1397 1240 c 0,54,55
 1494 1254 1494 1254 1606 1254 c 0,56,57
 1838.89473684 1254 1838.89473684 1254 2017 1182 c 1,58,59
 2092.78947368 1254 2092.78947368 1254 2254.39473684 1254 c 128,-1,60
 2416 1254 2416 1254 2506.5 1158 c 128,-1,61
 2597 1062 2597 1062 2597 880 c 2,62,-1
 2597 797 l 1,63,-1
 2282 797 l 2,64,65
 2035.5 797 2035.5 797 1935.5 757 c 0,66,67
 1752 683.6 1752 683.6 1752 468 c 0,68,69
 1752 310 1752 310 1872 216 c 0,70,71
 1994 124 1994 124 2209 124 c 128,-1,72
 2424 124 2424 124 2600 212 c 1,73,-1
 2643 75 l 1,74,75
 2545.17967599 25.0029455081 2545.17967599 25.0029455081 2448 3 c 1,76,77
 2316 -105 2316 -105 2316 -244 c 0,78,79
 2316 -415 2316 -415 2511 -415 c 0,80,81
 2595.9375 -415 2595.9375 -415 2656 -384 c 1,82,-1
 2689 -515 l 1,83,84
 2603 -555 2603 -555 2503.5 -555 c 0,85,86
 2250.57894737 -555 2250.57894737 -555 2185 -377 c 0,87,88
 2164 -320 2164 -320 2164 -248 c 0,0,1
1946 1054 m 1,89,90
 1788 1114 1788 1114 1650 1114 c 0,91,92
 1403.14285714 1114 1403.14285714 1114 1246 1059 c 0,93,94
 1086 1005 1086 1005 946 883 c 1,95,96
 1046 919 1046 919 1182 919 c 0,97,98
 1532.55555556 919 1532.55555556 919 1662 686 c 1,99,100
 1747.00292475 872.352565807 1747.00292475 872.352565807 2025.5 915.5 c 0,101,102
 2132 932 2132 932 2277 932 c 2,103,-1
 2451 932 l 1,104,105
 2446 1020 2446 1020 2395.5 1069.5 c 128,-1,106
 2345 1119 2345 1119 2258 1119 c 128,-1,107
 2171 1119 2171 1119 2131.5 1087.5 c 128,-1,108
 2092 1056 2092 1056 2092 1007 c 1,109,-1
 2095 977 l 1,110,-1
 1948 959 l 1,111,112
 1944 987 1944 987 1944 1014.5 c 128,-1,113
 1944 1042 1944 1042 1946 1054 c 1,89,90
1395 124 m 0,114,115
 1607 124 1607 124 1607 391 c 0,116,117
 1607 579 1607 579 1491.5 679 c 128,-1,118
 1376 779 1376 779 1155 779 c 0,119,120
 943 779 943 779 791 727 c 1,121,122
 691 615 691 615 569 439 c 1,123,-1
 631 439 l 1,124,125
 627 417 627 417 627 383 c 0,126,127
 627 246 627 246 678 185 c 128,-1,128
 729 124 729 124 833.5 124 c 128,-1,129
 938 124 938 124 990 196.5 c 128,-1,130
 1042 269 1042 269 1042 425 c 2,131,-1
 1042 439 l 1,132,-1
 1179 439 l 1,133,-1
 1179 417 l 2,134,135
 1179 208.5625 1179 208.5625 1304 144.5 c 0,136,137
 1344 124 1344 124 1395 124 c 0,114,115
EndSplineSet
EndChar

StartChar: uni0DA5
Encoding: 3493 3493 84
Width: 2396
Flags: W
LayerCount: 2
Back
Fore
SplineSet
1985.5 -475 m 128,-1,1
 1903 -395 1903 -395 1903 -260 c 128,-1,2
 1903 -125 1903 -125 1989 -21 c 1,3,-1
 1964 -21 l 1,4,5
 1959 -22 1959 -22 1953 -22 c 128,-1,6
 1947 -22 1947 -22 1941 -22 c 0,7,8
 1553.6779661 -22 1553.6779661 -22 1420 217 c 1,9,10
 1300.5 -22 1300.5 -22 964 -22 c 0,11,12
 694.347363465 -23.96826742 694.347363465 -23.96826742 545 138 c 0,13,14
 398.955405974 292.158182583 398.955405974 292.158182583 401 560 c 0,15,16
 401 784.859375 401 784.859375 530 932 c 0,17,18
 657.872847682 1079.85298013 657.872847682 1079.85298013 889 1110 c 1,19,20
 831.428571429 1123 831.428571429 1123 720.214285714 1123 c 0,21,22
 496.924242424 1123 496.924242424 1123 362 986 c 256,23,24
 225.009715288 846.902172446 225.009715288 846.902172446 226.004857644 621.43147838 c 128,-1,25
 227 395.960784314 227 395.960784314 333 238 c 1,26,-1
 198 170 l 1,27,28
 77 389.816666667 77 389.816666667 77 630 c 0,29,30
 77 921 77 921 251 1087 c 0,31,32
 425.952380952 1254 425.952380952 1254 719 1254 c 0,33,34
 910.565217391 1254 910.565217391 1254 1072 1160 c 1,35,-1
 1018 1017 l 1,36,37
 807.064863048 1008.96437574 807.064863048 1008.96437574 682 888 c 0,38,39
 555 763.081967213 555 763.081967213 555 551.540983607 c 128,-1,40
 555 340 555 340 661.5 232 c 128,-1,41
 768 124 768 124 973 124 c 0,42,43
 1148.88636364 124 1148.88636364 124 1248 213 c 0,44,45
 1346 303 1346 303 1346 450 c 128,-1,46
 1346 597 1346 597 1248 597 c 0,47,48
 1190.81818182 597 1190.81818182 597 1145 561 c 1,49,-1
 999 606 l 1,50,51
 1073.21807375 1083.96439494 1073.21807375 1083.96439494 1432 1213 c 0,52,53
 1546 1254 1546 1254 1663 1254 c 128,-1,54
 1780 1254 1780 1254 1866 1242 c 1,55,56
 1916 1254 1916 1254 1983 1254 c 0,57,58
 2155 1254 2155 1254 2245.5 1158 c 128,-1,59
 2336 1062 2336 1062 2336 880 c 2,60,-1
 2336 797 l 1,61,-1
 2021 797 l 2,62,63
 1841.88888889 797 1841.88888889 797 1776.94444444 784.5 c 0,64,65
 1573.42647842 745.328449654 1573.42647842 745.328449654 1518 616 c 0,66,67
 1491 553 1491 553 1491 471 c 0,68,69
 1491 310 1491 310 1611 216 c 0,70,71
 1733 124 1733 124 1948 124 c 128,-1,72
 2163 124 2163 124 2339 212 c 1,73,-1
 2382 75 l 1,74,75
 2284.17967599 25.0029455081 2284.17967599 25.0029455081 2187 3 c 1,76,77
 2055 -105 2055 -105 2055 -244 c 0,78,79
 2055 -415 2055 -415 2250 -415 c 0,80,81
 2334.9375 -415 2334.9375 -415 2395 -384 c 1,82,-1
 2428 -515 l 1,83,84
 2342 -555 2342 -555 2205 -555 c 128,-1,0
 2068 -555 2068 -555 1985.5 -475 c 128,-1,1
1687 959 m 1,85,86
 1683 987 1683 987 1683 1034.5 c 128,-1,87
 1683 1082 1683 1082 1707 1122 c 1,88,-1
 1690 1122 l 2,89,90
 1491 1122 1491 1122 1355.5 1018.5 c 128,-1,91
 1220 915 1220 915 1160 714 c 1,92,93
 1204 732 1204 732 1254 732 c 0,94,95
 1340.03571429 732 1340.03571429 732 1397 677 c 1,96,97
 1485.12 891.7925 1485.12 891.7925 1834 924.5 c 0,98,99
 1914 932 1914 932 2016 932 c 2,100,-1
 2190 932 l 1,101,102
 2185 1020 2185 1020 2134.5 1069.5 c 128,-1,103
 2084 1119 2084 1119 1997 1119 c 128,-1,104
 1910 1119 1910 1119 1870.5 1087.5 c 128,-1,105
 1831 1056 1831 1056 1831 1007 c 0,106,107
 1831 995 1831 995 1834 977 c 1,108,-1
 1687 959 l 1,85,86
EndSplineSet
EndChar

StartChar: uni0DA6
Encoding: 3494 3494 85
Width: 2013
Flags: W
LayerCount: 2
Back
Fore
SplineSet
1397.5 1186 m 128,-1,1
 1370 1159 1370 1159 1370 1120.42307692 c 128,-1,2
 1370 1081.84615385 1370 1081.84615385 1390 1062.92307692 c 0,3,4
 1425.85365854 1029 1425.85365854 1029 1454.42682927 1029 c 0,5,6
 1524.45454545 1029 1524.45454545 1029 1548 1084.5 c 0,7,8
 1555 1101 1555 1101 1555 1130 c 128,-1,9
 1555 1159 1555 1159 1528.5 1186 c 128,-1,10
 1502 1213 1502 1213 1463.5 1213 c 128,-1,0
 1425 1213 1425 1213 1397.5 1186 c 128,-1,1
90 507 m 1,11,12
 64 754 64 754 64 906 c 128,-1,13
 64 1058 64 1058 91.5 1139.5 c 128,-1,14
 119 1221 119 1221 162.5 1269.5 c 0,15,16
 249.948453608 1367 249.948453608 1367 401 1367 c 0,17,18
 420 1367 420 1367 436 1366 c 1,19,20
 517.558139535 1414.09838998 517.558139535 1414.09838998 614.279069767 1417.54919499 c 0,21,22
 813.444324409 1424.65500401 813.444324409 1424.65500401 952 1284 c 1,23,-1
 987 1249 l 1,24,25
 1061.31303209 1343.58022266 1061.31303209 1343.58022266 1159.65651604 1381.79011133 c 128,-1,26
 1258 1420 1258 1420 1342 1421 c 1,27,28
 1512.5505175 1600.52686052 1512.5505175 1600.52686052 1830 1626.5 c 0,29,30
 1885 1631 1885 1631 1942 1629 c 1,31,-1
 1939 1433 l 1,32,33
 1863.3220339 1436.22033898 1863.3220339 1436.22033898 1781.66101695 1422.11016949 c 0,34,35
 1658.45024064 1400.82063622 1658.45024064 1400.82063622 1573 1357 c 1,36,37
 1577 1355 1577 1355 1580.5 1353.5 c 128,-1,38
 1584 1352 1584 1352 1586 1348 c 0,39,40
 1672.27118644 1292.53995157 1672.27118644 1292.53995157 1711.63559322 1212.26997579 c 0,41,42
 1788.24786312 1056.04597667 1788.24786312 1056.04597667 1728 894 c 0,43,44
 1656.14087142 695.668805132 1656.14087142 695.668805132 1427 599 c 0,45,46
 1320.33333333 554 1320.33333333 554 1213.66666667 546.5 c 128,-1,47
 1107 539 1107 539 1059.5 539 c 0,48,49
 981.5 539 981.5 539 925.25 541.5 c 0,50,51
 679.349013657 552.428932726 679.349013657 552.428932726 570 484.5 c 0,52,53
 499.715642812 440.838505383 499.715642812 440.838505383 475 380 c 0,54,55
 439.760676873 293.257050766 439.760676873 293.257050766 507.5 220.5 c 0,56,57
 634.412356979 84.1867276888 634.412356979 84.1867276888 899 204 c 1,58,59
 1014.07575758 265.060606061 1014.07575758 265.060606061 1099 333 c 1,60,61
 1301 478.1875 1301 478.1875 1442 487 c 0,62,63
 1573.07522647 497.240252068 1573.07522647 497.240252068 1670 423 c 0,64,65
 1786.87432868 336.426423201 1786.87432868 336.426423201 1778 190 c 1,66,67
 1761.86984816 52.8937093275 1761.86984816 52.8937093275 1637 -16 c 0,68,69
 1565 -52 1565 -52 1490 -52 c 0,70,71
 1392.76923077 -52 1392.76923077 -52 1320.88461538 -7.5 c 0,72,73
 1213.51724138 58.9655172414 1213.51724138 58.9655172414 1171 144 c 1,74,75
 982.420895522 13.7906183369 982.420895522 13.7906183369 846.5 -23 c 0,76,77
 547.434532374 -103.950051387 547.434532374 -103.950051387 365 85 c 0,78,79
 310.018181818 141.945454545 310.018181818 141.945454545 289.509090909 203.472727273 c 128,-1,80
 269 265 269 265 266.5 322 c 128,-1,81
 264 379 264 379 290 446.5 c 128,-1,82
 316 514 316 514 362 565 c 0,83,84
 524.793154447 745.48806254 524.793154447 745.48806254 865.5 738 c 0,85,86
 911 737 911 737 955 736 c 2,87,-1
 1034 735 l 2,88,89
 1323.34974242 730.615912994 1323.34974242 730.615912994 1464.5 849 c 0,90,91
 1480 862 1480 862 1494 879 c 1,92,93
 1487 877 1487 877 1476.375 877 c 2,94,-1
 1450 877 l 1,95,96
 1349.09615385 887.510817308 1349.09615385 887.510817308 1283 966 c 0,97,98
 1210.16307692 1052.08 1210.16307692 1052.08 1227 1198 c 1,99,100
 1202.67567568 1186.64864865 1202.67567568 1186.64864865 1167.33783784 1155.32432432 c 0,101,102
 1087.20764552 1084.29496073 1087.20764552 1084.29496073 1083 977 c 1,103,-1
 1083 947 l 1,104,-1
 886 951 l 1,105,-1
 886 978 l 1,106,107
 881.873466753 1079.10006456 881.873466753 1079.10006456 815 1148 c 0,108,109
 737.671471173 1227.41848907 737.671471173 1227.41848907 625 1223 c 0,110,111
 565.397790055 1218.88950276 565.397790055 1218.88950276 520 1190 c 1,112,113
 466.11521418 1139.48301329 466.11521418 1139.48301329 484.5 1086 c 0,114,115
 494.624052004 1056.54821235 494.624052004 1056.54821235 521.312026002 1044.77410618 c 0,116,117
 589.048780488 1014.8902439 589.048780488 1014.8902439 632 1065 c 1,118,-1
 779 938 l 1,119,120
 697.800894855 842.226696495 697.800894855 842.226696495 571 838 c 0,121,122
 443.966002345 835.882766706 443.966002345 835.882766706 364 922 c 1,123,124
 277.542372881 1008.45762712 277.542372881 1008.45762712 284 1129 c 1,125,126
 237.848837209 1076.25581395 237.848837209 1076.25581395 236 1006 c 0,127,128
 236 572 236 572 242 572 c 1,129,-1
 90 507 l 1,11,12
1583 205 m 1,130,131
 1583 268 1583 268 1508 287.5 c 0,132,133
 1434.26382306 306.671406003 1434.26382306 306.671406003 1337 255 c 1,134,135
 1348.45348837 222.930232558 1348.45348837 222.930232558 1363 210 c 1,136,137
 1400.79725086 158.862542955 1400.79725086 158.862542955 1458 149 c 1,138,139
 1518.43888889 133.233333333 1518.43888889 133.233333333 1559 168 c 0,140,141
 1573 180 1573 180 1583 205 c 1,130,131
EndSplineSet
EndChar

StartChar: uni0DA7
Encoding: 3495 3495 86
Width: 1880
Flags: W
LayerCount: 2
Back
Fore
SplineSet
1110 1675 m 1,0,1
 1435.9837884 1367.23890785 1435.9837884 1367.23890785 1609 952 c 0,2,3
 1779.15754173 544.837310872 1779.15754173 544.837310872 1769 104 c 1,4,-1
 1768 -5 l 1,5,-1
 75 0 l 1,6,-1
 73 767 l 1,7,-1
 293 767 l 1,8,-1
 295 219 l 1,9,-1
 1549 215 l 1,10,11
 1522.66290625 771.37110545 1522.66290625 771.37110545 1217.5 1215 c 0,12,13
 1104 1380 1104 1380 960 1517 c 1,14,-1
 1110 1675 l 1,0,1
EndSplineSet
EndChar

StartChar: uni0DA9
Encoding: 3497 3497 88
Width: 1931
Flags: W
LayerCount: 2
Back
Fore
SplineSet
1030 92 m 1,0,1
 897.595744681 -35 897.595744681 -35 719 -35 c 0,2,3
 548.897727273 -35 548.897727273 -35 421.5 76 c 0,4,5
 319.224825068 165.111043505 319.224825068 165.111043505 282 298.5 c 0,6,7
 247.976047904 420.419161677 247.976047904 420.419161677 284 542 c 1,8,-1
 61 544 l 1,9,-1
 62 751 l 1,10,-1
 811 750 l 2,11,12
 893.769230769 750 893.769230769 750 915.884615385 762.5 c 128,-1,13
 938 775 938 775 945 783.5 c 0,14,15
 967.50862069 810.831896552 967.50862069 810.831896552 951 845.5 c 0,16,17
 926.507099391 896.935091278 926.507099391 896.935091278 859.927462739 895.467545639 c 128,-1,18
 793.347826087 894 793.347826087 894 749 843 c 1,19,-1
 589 977 l 1,20,21
 691.868589744 1098.76282051 691.868589744 1098.76282051 855 1103 c 0,22,23
 994.968841285 1105.12074002 994.968841285 1105.12074002 1089 1009 c 0,24,25
 1160.09825469 933.592760181 1160.09825469 933.592760181 1164 838 c 1,26,27
 1176.827 684.076 1176.827 684.076 1041.5 595 c 0,28,29
 971.505806846 548.927872861 971.505806846 548.927872861 886.5 544 c 0,30,31
 852 542 852 542 817 542 c 2,32,-1
 510 542 l 1,33,34
 455.81744186 455.945348837 455.81744186 455.945348837 483.5 352.5 c 0,35,36
 502.325425994 282.152355496 502.325425994 282.152355496 557.5 234 c 0,37,38
 643.527696793 158.921282799 643.527696793 158.921282799 758 178 c 0,39,40
 814 186 814 186 861 220.5 c 128,-1,41
 908 255 908 255 934 306 c 1,42,-1
 1116 314 l 1,43,44
 1119 309 1119 309 1121 305 c 128,-1,45
 1123 301 1123 301 1136 282 c 128,-1,46
 1149 263 1149 263 1181 236.5 c 128,-1,47
 1213 210 1213 210 1249 195 c 0,48,49
 1376.29743165 141.95940348 1376.29743165 141.95940348 1484.5 228 c 0,50,51
 1566.21792374 292.980517673 1566.21792374 292.980517673 1604.5 413 c 0,52,53
 1712.18759287 750.615156018 1712.18759287 750.615156018 1573.5 1092 c 0,54,55
 1534.77482793 1187.32350049 1534.77482793 1187.32350049 1490.88741396 1237.16175025 c 128,-1,56
 1447 1287 1447 1287 1401.5 1325.5 c 0,57,58
 1304.59891599 1407.49322493 1304.59891599 1407.49322493 1222.29945799 1435.24661247 c 0,59,60
 1092.55385216 1479 1092.55385216 1479 925 1479 c 0,61,62
 729.235294118 1479 729.235294118 1479 506 1314 c 0,63,64
 409.313672922 1240.43431635 409.313672922 1240.43431635 357 1168 c 1,65,-1
 188 1287 l 1,66,67
 300.564102564 1444.58974359 300.564102564 1444.58974359 502.5 1561.5 c 0,68,69
 721 1688 721 1688 925 1688 c 0,70,71
 1220.4 1688 1220.4 1688 1408 1576 c 0,72,73
 1676.35828877 1415.78609626 1676.35828877 1415.78609626 1772.5 1155.5 c 0,74,75
 1793 1100 1793 1100 1820 1010.5 c 128,-1,76
 1847 921 1847 921 1855.5 785.5 c 128,-1,77
 1864 650 1864 650 1845.5 534 c 0,78,79
 1811.8855493 323.22830915 1811.8855493 323.22830915 1746.44277465 219.614154575 c 0,80,81
 1626.3300645 29.4422527459 1626.3300645 29.4422527459 1451 -18 c 0,82,83
 1266.31636703 -68.1284146626 1266.31636703 -68.1284146626 1095.5 41.5 c 0,84,85
 1062 63 1062 63 1030 92 c 1,0,1
EndSplineSet
EndChar

StartChar: uni0DAD
Encoding: 3501 3501 92
Width: 2258
Flags: W
LayerCount: 2
Back
Fore
SplineSet
999 -34 m 1,0,-1
 553 -33 l 2,1,2
 355.689655172 -33 355.689655172 -33 221 91 c 0,3,4
 84 213.015625 84 213.015625 84 391 c 0,5,6
 84 576.360655738 84 576.360655738 218 684 c 0,7,8
 371.160377358 809.080974843 371.160377358 809.080974843 689 828 c 0,9,10
 773 833 773 833 845 834 c 2,11,-1
 1116 835 l 1,12,-1
 1116 888 l 2,13,14
 1116 1006 1116 1006 1176 1174 c 0,15,16
 1191 1216 1191 1216 1204 1244 c 1,17,-1
 861 1243 l 2,18,19
 758 1243 758 1243 706 1212 c 128,-1,20
 654 1181 654 1181 654 1142.5 c 128,-1,21
 654 1104 654 1104 677.5 1083.5 c 128,-1,22
 701 1063 701 1063 724.5 1063 c 0,23,24
 779.689655172 1063 779.689655172 1063 801 1114.5 c 0,25,26
 807 1129 807 1129 807 1144 c 1,27,-1
 989 1149 l 1,28,29
 989 1038.17142857 989 1038.17142857 913 960 c 0,30,31
 836 883 836 883 727 883 c 0,32,33
 620.857142857 883 620.857142857 883 548 958 c 0,34,35
 472 1034 472 1034 472 1122 c 128,-1,36
 472 1210 472 1210 505 1263 c 128,-1,37
 538 1316 538 1316 589.5 1351.5 c 0,38,39
 690.323943662 1421 690.323943662 1421 827 1421 c 2,40,-1
 1477 1420 l 1,41,42
 1337.76318408 1104.17014925 1337.76318408 1104.17014925 1317.88159204 1021.58507463 c 128,-1,43
 1298 939 1298 939 1298 913.5 c 2,44,-1
 1298 877.5 l 2,45,46
 1298 867 1298 867 1297 838 c 1,47,-1
 1534 834 l 1,48,49
 1766.388 816.124 1766.388 816.124 1910 685 c 0,50,51
 2049.93285518 555.356325347 2049.93285518 555.356325347 2060 352 c 1,52,53
 2060 -10.5067873303 2060 -10.5067873303 1716.5 -225 c 0,54,55
 1539.16110479 -335.736504703 1539.16110479 -335.736504703 1287.5 -385.5 c 0,56,57
 1199 -403 1199 -403 1111.5 -418 c 0,58,59
 860.475409836 -461.032786885 860.475409836 -461.032786885 746.237704918 -495.016393443 c 128,-1,60
 632 -529 632 -529 500 -603 c 128,-1,61
 368 -677 368 -677 258 -780 c 1,62,-1
 137 -649 l 1,63,64
 449.048708848 -356.922408518 449.048708848 -356.922408518 899 -270 c 0,65,66
 987 -253 987 -253 1074 -238 c 256,67,68
 1314.96907216 -196.453608247 1314.96907216 -196.453608247 1411 -168 c 1,69,70
 1755.94183399 -49.9935831091 1755.94183399 -49.9935831091 1849.5 177 c 0,71,72
 1880 251 1880 251 1880 325 c 0,73,74
 1880 541.835820896 1880 541.835820896 1676 621 c 0,75,76
 1609 647 1609 647 1521 655 c 1,77,-1
 1297 656 l 1,78,-1
 1297 299 l 2,79,80
 1297 143.785714286 1297 143.785714286 1204 53 c 256,81,82
 1121.40506329 -27.6283905967 1121.40506329 -27.6283905967 999 -32 c 1,83,-1
 999 -34 l 1,0,-1
981 147 m 1,84,-1
 981 148 l 1,85,86
 1069.1 148 1069.1 148 1101.5 220 c 0,87,88
 1115 250 1115 250 1115 286.5 c 2,89,-1
 1115 363 l 2,90,91
 1115 403 1115 403 1115.5 451.5 c 128,-1,92
 1116 500 1116 500 1116 553 c 2,93,-1
 1116 656 l 1,94,-1
 846 655 l 1,95,96
 504 655 504 655 366 568 c 0,97,98
 265 502.130434783 265 502.130434783 265 388 c 0,99,100
 265 281.166666667 265 281.166666667 356 214 c 0,101,102
 441.84375 147 441.84375 147 560 147 c 2,103,-1
 981 147 l 1,84,-1
EndSplineSet
EndChar

StartChar: uni0DAF
Encoding: 3503 3503 94
Width: 1181
Flags: W
LayerCount: 2
Back
Fore
SplineSet
930 -394 m 0,0,1
 1060.26666667 -394 1060.26666667 -394 1145 -301 c 1,2,-1
 1273 -421 l 1,3,4
 1134.28169014 -568 1134.28169014 -568 929 -568 c 0,5,6
 767.760869565 -568 767.760869565 -568 658 -469 c 0,7,8
 547 -368.673076923 547 -368.673076923 547 -219 c 0,9,10
 547 -137 547 -137 587 -63 c 1,11,12
 515 -69 515 -69 486 -69 c 0,13,14
 288.428571429 -69 288.428571429 -69 162 51 c 0,15,16
 37 167.666666667 37 167.666666667 37 344 c 0,17,18
 37 441 37 441 79 527 c 0,19,20
 205.089552239 783 205.089552239 783 593 783 c 1,21,-1
 797 780 l 1,22,23
 797 903.794871795 797 903.794871795 711 992 c 0,24,25
 625.871794872 1075 625.871794872 1075 502.76544289 1075 c 128,-1,26
 379.659090909 1075 379.659090909 1075 299 984 c 1,27,-1
 172 1103 l 1,28,29
 307.718309859 1249 307.718309859 1249 511 1249 c 0,30,31
 713.9 1249 713.9 1249 848 1100 c 0,32,33
 983 947.857142857 983 947.857142857 983 713 c 0,34,35
 983 655 983 655 971 607 c 1,36,-1
 896 607 l 1,37,-1
 731 608 l 1,38,39
 534 608 534 608 479.5 602.5 c 0,40,41
 359.665861027 590.406646526 359.665861027 590.406646526 283 518 c 0,42,43
 211 448 211 448 211 343 c 0,44,45
 211 232.054054054 211 232.054054054 290 168 c 0,46,47
 365.193548387 105 365.193548387 105 488 105 c 0,48,49
 531.666666667 105 531.666666667 105 607.833333333 114.5 c 0,50,51
 740.122807018 131 740.122807018 131 812.061403509 131 c 0,52,53
 977.191489362 131 977.191489362 131 1088 38 c 1,54,-1
 1128 -4 l 1,55,-1
 978 -99 l 1,56,57
 932.705882353 -64 932.705882353 -64 887.352941176 -64 c 0,58,59
 773.965517241 -64 773.965517241 -64 733 -163 c 0,60,61
 721 -192 721 -192 721 -226 c 0,62,63
 721 -296.714285714 721 -296.714285714 781 -346 c 0,64,65
 839.909090909 -394 839.909090909 -394 930 -394 c 0,0,1
EndSplineSet
EndChar

StartChar: uni0DB1
Encoding: 3505 3505 96
Width: 2080
Flags: W
LayerCount: 2
Back
Fore
SplineSet
1060 822 m 1,0,1
 1060 1022.52631579 1060 1022.52631579 1135 1212 c 1,2,-1
 838 1212 l 2,3,4
 733.941176471 1212 733.941176471 1212 677 1168 c 0,5,6
 655 1151 655 1151 655 1125 c 128,-1,7
 655 1099 655 1099 671.5 1081.5 c 128,-1,8
 688 1064 688 1064 713 1064 c 128,-1,9
 738 1064 738 1064 755 1085.5 c 128,-1,10
 772 1107 772 1107 772 1147 c 1,11,-1
 962 1147 l 1,12,13
 962 1034.48484848 962 1034.48484848 892 956 c 256,14,15
 821.540540541 877 821.540540541 877 713 877 c 0,16,17
 613.151515152 877 613.151515152 877 540 948 c 0,18,19
 464 1019.65714286 464 1019.65714286 464 1110.82857143 c 0,20,21
 464 1267.72413793 464 1267.72413793 595 1340 c 256,22,23
 701.9375 1399 701.9375 1399 867 1399 c 2,24,-1
 1417 1399 l 1,25,26
 1337.73446328 1216.34463277 1337.73446328 1216.34463277 1311 1131 c 256,27,28
 1249.73515249 935.423756019 1249.73515249 935.423756019 1248 722 c 1,29,30
 1368 797 1368 797 1481.5 797 c 0,31,32
 1690.35483871 797 1690.35483871 797 1821 662 c 0,33,34
 1945 529.593220339 1945 529.593220339 1945 337 c 0,35,36
 1945 62.8141025641 1945 62.8141025641 1700 -133.5 c 0,37,38
 1557.47442657 -247.703183841 1557.47442657 -247.703183841 1354.5 -300.5 c 0,39,40
 1227.97429306 -333.411311054 1227.97429306 -333.411311054 1074.98714653 -359.205655527 c 128,-1,41
 922 -385 922 -385 807 -415.5 c 128,-1,42
 692 -446 692 -446 554 -518 c 128,-1,43
 416 -590 416 -590 297 -690 c 1,44,-1
 175 -548 l 1,45,46
 512.638344227 -262.496988338 512.638344227 -262.496988338 964 -185.5 c 0,47,48
 1185.58250676 -147.700631199 1185.58250676 -147.700631199 1279.79125338 -123.8503156 c 128,-1,49
 1374 -100 1374 -100 1446 -67 c 0,50,51
 1667.27710843 34.4186746988 1667.27710843 34.4186746988 1735 214.5 c 0,52,53
 1757 273 1757 273 1757 333.5 c 0,54,55
 1757 450.714285714 1757 450.714285714 1682 530 c 0,56,57
 1604 608 1604 608 1497 608 c 0,58,59
 1409.57142857 608 1409.57142857 608 1339 556 c 0,60,61
 1248 488.333333333 1248 488.333333333 1248 359 c 1,62,-1
 1247 359 l 1,63,-1
 1247 4 l 1,64,-1
 1060 4 l 1,65,-1
 1060 632 l 1,66,-1
 292 632 l 1,67,68
 271 590 271 590 271 546 c 0,69,70
 271 444.655172414 271 444.655172414 375 355 c 0,71,72
 462 280 462 280 489.5 252.5 c 128,-1,73
 517 225 517 225 535.5 194 c 0,74,75
 593 97.6486486486 593 97.6486486486 593 6 c 1,76,-1
 404 6 l 1,77,78
 404 90.3571428571 404 90.3571428571 290 184 c 0,79,80
 82 347.744680851 82 347.744680851 82 540 c 0,81,82
 82 675.741935484 82 675.741935484 196 821 c 1,83,-1
 1060 822 l 1,0,1
EndSplineSet
EndChar

StartChar: uni0DB4
Encoding: 3508 3508 98
Width: 1921
Flags: W
LayerCount: 2
Back
Fore
SplineSet
1799 1162 m 1,0,1
 1766 1206 1766 1206 1716.5 1206 c 0,2,3
 1611.91549296 1206 1611.91549296 1206 1600 1065 c 1,4,-1
 1600 289 l 2,5,6
 1600 181.25 1600 181.25 1515 92 c 0,7,8
 1422.26190476 -3 1422.26190476 -3 1293 -3 c 2,9,-1
 424 -3 l 1,10,-1
 427 981 l 2,11,12
 427 1092 427 1092 377.5 1145.5 c 128,-1,13
 328 1199 328 1199 248 1199 c 0,14,15
 189.833333333 1199 189.833333333 1199 153.416666667 1170 c 0,16,17
 89 1118.70251716 89 1118.70251716 89 1066.35125858 c 128,-1,18
 89 1014 89 1014 114.5 987.5 c 128,-1,19
 140 961 140 961 174.928571429 961 c 128,-1,20
 209.857142857 961 209.857142857 961 232 992 c 1,21,-1
 395 877 l 1,22,23
 357 821 357 821 296 792 c 128,-1,24
 235 763 235 763 173 763 c 0,25,26
 53.65 763 53.65 763 -29 850 c 256,27,28
 -110 935.263157895 -110 935.263157895 -110 1057 c 0,29,30
 -110 1189.82978723 -110 1189.82978723 -8 1294 c 0,31,32
 98.2127659574 1398 98.2127659574 1398 245 1398 c 0,33,34
 422 1398 422 1398 527 1278 c 0,35,36
 626 1160.4375 626 1160.4375 626 980 c 2,37,-1
 623 196 l 1,38,-1
 1293 196 l 2,39,40
 1340.33333333 196 1340.33333333 196 1373 231 c 0,41,42
 1401 259 1401 259 1401 289 c 2,43,-1
 1401 1077 l 2,44,45
 1401 1219.18181818 1401 1219.18181818 1497 1313 c 0,46,47
 1588 1404 1588 1404 1717 1404 c 0,48,49
 1789 1404 1789 1404 1853.5 1371 c 128,-1,50
 1918 1338 1918 1338 1961 1280 c 1,51,-1
 1799 1162 l 1,0,1
EndSplineSet
EndChar

StartChar: uni0DB6
Encoding: 3510 3510 100
Width: 1906
Flags: W
LayerCount: 2
Back
Fore
SplineSet
504 377 m 0,0,1
 502 375 502 375 515.409090909 409.267676768 c 128,-1,2
 528.818181818 443.535353535 528.818181818 443.535353535 545.909090909 476.767676768 c 0,3,4
 575.477272727 534.261363636 575.477272727 534.261363636 578 533 c 1,5,6
 550 545 550 545 557 546 c 128,-1,7
 564 547 564 547 590.5 536.5 c 0,8,9
 727.049113233 482.395634379 727.049113233 482.395634379 787 355 c 0,10,11
 811 304 811 304 809 237 c 0,12,13
 806 112 806 112 731 45 c 128,-1,14
 656 -22 656 -22 534.5 -22 c 0,15,16
 314.333333333 -22 314.333333333 -22 194 130 c 0,17,18
 74 276.896551724 74 276.896551724 74 516 c 0,19,20
 74 799.759493671 74 799.759493671 239 994 c 256,21,22
 410.591397849 1196 410.591397849 1196 679 1196 c 0,23,24
 901.843137255 1196 901.843137255 1196 1055 1089 c 0,25,26
 1212 977.791666667 1212 977.791666667 1212 803 c 0,27,28
 1212 717.068965517 1212 717.068965517 1166.5 624.5 c 0,29,30
 1122.85667216 535.708401977 1122.85667216 535.708401977 1119.42833608 492.854200988 c 0,31,32
 1108.79726651 359.965831435 1108.79726651 359.965831435 1158 255 c 256,33,34
 1191.35268505 183.847605225 1191.35268505 183.847605225 1232 182 c 0,35,36
 1355.22797412 176.482329517 1355.22797412 176.482329517 1455 308 c 0,37,38
 1533.80060883 412.456621005 1533.80060883 412.456621005 1585 587 c 0,39,40
 1627.30288462 736.067307692 1627.30288462 736.067307692 1625.15144231 838.533653846 c 0,41,42
 1618.98380856 1132.27840943 1618.98380856 1132.27840943 1363.5 1351.5 c 0,43,44
 1207.52457043 1485.3369815 1207.52457043 1485.3369815 1007 1538 c 0,45,46
 908 1564 908 1564 812.5 1564 c 0,47,48
 556.14893617 1564 556.14893617 1564 348.5 1415 c 0,49,50
 283 1368 283 1368 221 1310 c 1,51,-1
 75 1502 l 1,52,53
 258.443113772 1685.44311377 258.443113772 1685.44311377 591.5 1739 c 0,54,55
 691 1755 691 1755 806.5 1755 c 0,56,57
 1066 1755 1066 1755 1298 1657 c 0,58,59
 1673.49367296 1497.0070437 1673.49367296 1497.0070437 1787.5 1142 c 0,60,61
 1827 1019 1827 1019 1827 882 c 0,62,63
 1827 495.449541284 1827 495.449541284 1652.5 234.5 c 0,64,65
 1541.49144661 68.4963834673 1541.49144661 68.4963834673 1392.5 5.5 c 0,66,67
 1318 -26 1318 -26 1240.5 -26 c 0,68,69
 1041.53424658 -26 1041.53424658 -26 973.5 89.5 c 0,70,71
 941.028604119 144.625858124 941.028604119 144.625858124 921.514302059 213.812929062 c 128,-1,72
 902 283 902 283 900.5 335.5 c 0,73,74
 896.970457903 459.033973412 896.970457903 459.033973412 959 621 c 0,75,76
 1024.28775039 791.31587057 1024.28775039 791.31587057 919 900 c 0,77,78
 824.0625 998 824.0625 998 663 998 c 0,79,80
 537.381818182 998 537.381818182 998 442 876 c 256,81,82
 358.267070009 768.899740709 358.267070009 768.899740709 325 607 c 0,83,84
 292.997237569 449.119705341 292.997237569 449.119705341 330 334 c 0,85,86
 369.873417722 207.734177215 369.873417722 207.734177215 475 202 c 0,87,88
 554.62962963 196.444444444 554.62962963 196.444444444 583 239 c 0,89,90
 607.082004556 273.116173121 607.082004556 273.116173121 582 321 c 0,91,92
 556.55257732 367.268041237 556.55257732 367.268041237 504 377 c 0,0,1
EndSplineSet
EndChar

StartChar: uni0DB8
Encoding: 3512 3512 102
Width: 2436
Flags: W
LayerCount: 2
Back
Fore
SplineSet
1918.5 960.5 m 0,0,1
 1722.02654867 1141 1722.02654867 1141 1424.94444444 1141 c 0,2,3
 1310.88888889 1141 1310.88888889 1141 1209.44444444 1099 c 128,-1,4
 1108 1057 1108 1057 1049 1016 c 128,-1,5
 990 975 990 975 941 923 c 1,6,-1
 794 1066 l 1,7,8
 988.160520607 1269.40625968 988.160520607 1269.40625968 1269 1326.5 c 0,9,10
 1360 1345 1360 1345 1468 1345 c 0,11,12
 1695.01694915 1345 1695.01694915 1345 1909 1220 c 0,13,14
 2120.26046054 1094.49873631 2120.26046054 1094.49873631 2226 891 c 0,15,16
 2321 716.833333333 2321 716.833333333 2321 512 c 0,17,18
 2321 176.771812081 2321 176.771812081 2080.5 -60.5 c 0,19,20
 1929.85979951 -209.118184373 1929.85979951 -209.118184373 1725.5 -266.5 c 0,21,22
 1624 -295 1624 -295 1509.5 -295 c 0,23,24
 1276 -295 1276 -295 1069 -157 c 0,25,26
 862.122349312 -18.3706464465 862.122349312 -18.3706464465 794 188 c 1,27,-1
 106 196 l 1,28,-1
 106 1021 l 1,29,-1
 310 1021 l 1,30,-1
 310 398 l 1,31,-1
 768 393 l 1,32,33
 768 553.020408163 768 553.020408163 874 672 c 256,34,35
 980.018181818 791 980.018181818 791 1127 791 c 0,36,37
 1258.75 791 1258.75 791 1348 706 c 256,38,39
 1439 619.333333333 1439 619.333333333 1439 498 c 0,40,41
 1439 283.130434783 1439 283.130434783 1202 211 c 0,42,43
 1118.07142857 186 1118.07142857 186 1018 186 c 2,44,-1
 1016 186 l 1,45,46
 1084.06141618 63.8898121387 1084.06141618 63.8898121387 1223 -14 c 0,47,48
 1362.02777778 -91 1362.02777778 -91 1515 -91 c 0,49,50
 1768.5 -91 1768.5 -91 1944 91 c 0,51,52
 2117 270.407407407 2117 270.407407407 2117 513 c 0,53,54
 2117 686.045454545 2117 686.045454545 2024 834 c 256,55,56
 1980 904 1980 904 1918.5 960.5 c 0,0,1
993 390 m 1,57,58
 1235 390 1235 390 1235 499 c 0,59,60
 1235 535.428571429 1235 535.428571429 1212 554.214285714 c 0,61,62
 1142.94718714 610.61456454 1142.94718714 610.61456454 1069 571 c 0,63,64
 980.884651163 523.795348837 980.884651163 523.795348837 971 392 c 1,65,-1
 993 390 l 1,57,58
EndSplineSet
EndChar

StartChar: uni0DB9
Encoding: 3513 3513 103
Width: 2249
Flags: W
LayerCount: 2
Back
Fore
SplineSet
1900.5 960.5 m 0,0,1
 1704.02654867 1141 1704.02654867 1141 1406.94444444 1141 c 0,2,3
 1292.88888889 1141 1292.88888889 1141 1191.44444444 1099 c 128,-1,4
 1090 1057 1090 1057 1031 1016 c 128,-1,5
 972 975 972 975 923 923 c 1,6,-1
 776 1066 l 1,7,8
 970.160520607 1269.40625968 970.160520607 1269.40625968 1251 1326.5 c 0,9,10
 1342 1345 1342 1345 1450 1345 c 0,11,12
 1677.01694915 1345 1677.01694915 1345 1891 1220 c 0,13,14
 2102.26046054 1094.49873631 2102.26046054 1094.49873631 2208 891 c 0,15,16
 2303 716.833333333 2303 716.833333333 2303 512 c 0,17,18
 2303 291.075471698 2303 291.075471698 2191 103 c 0,19,20
 2137 13 2137 13 2061 -56.5 c 128,-1,21
 1985 -126 1985 -126 1899 -186 c 0,22,23
 1724 -309 1724 -309 1670.5 -182.5 c 128,-1,24
 1617 -56 1617 -56 1502.5 -56 c 128,-1,25
 1388 -56 1388 -56 1316.5 -177.5 c 128,-1,26
 1245 -299 1245 -299 1051 -157 c 0,27,28
 838.624191551 -1.71446263933 838.624191551 -1.71446263933 776 188 c 1,29,-1
 88 196 l 1,30,-1
 88 1021 l 1,31,-1
 292 1021 l 1,32,-1
 292 398 l 1,33,-1
 750 393 l 1,34,35
 750 553.020408163 750 553.020408163 856 672 c 256,36,37
 962.018181818 791 962.018181818 791 1109 791 c 0,38,39
 1240.75 791 1240.75 791 1330 706 c 256,40,41
 1421 619.333333333 1421 619.333333333 1421 498 c 0,42,43
 1421 283.130434783 1421 283.130434783 1184 211 c 0,44,45
 1100.07142857 186 1100.07142857 186 1000 186 c 2,46,-1
 998 186 l 1,47,48
 1032 125 1032 125 1093 61.5 c 128,-1,49
 1154 -2 1154 -2 1209 -15 c 128,-1,50
 1264 -28 1264 -28 1318.5 72 c 128,-1,51
 1373 172 1373 172 1505 173 c 128,-1,52
 1637 174 1637 174 1687.5 64 c 128,-1,53
 1738 -46 1738 -46 1805 -5.5 c 0,54,55
 2012.49227867 119.92443711 2012.49227867 119.92443711 2078 357 c 0,56,57
 2099 433 2099 433 2099 517.5 c 0,58,59
 2099 686.045454545 2099 686.045454545 2006 834 c 256,60,61
 1962 904 1962 904 1900.5 960.5 c 0,0,1
975 390 m 1,62,63
 1217 390 1217 390 1217 499 c 0,64,65
 1217 535.428571429 1217 535.428571429 1194 554.214285714 c 0,66,67
 1155.08365019 586 1155.08365019 586 1117.0418251 586 c 0,68,69
 1010.22535211 586 1010.22535211 586 968.5 467.5 c 0,70,71
 956 432 956 432 953 392 c 1,72,-1
 975 390 l 1,62,63
EndSplineSet
EndChar

StartChar: uni0DBA
Encoding: 3514 3514 104
Width: 1882
Flags: W
LayerCount: 2
Back
Fore
SplineSet
1632 1118 m 1,0,1
 1598 1164 1598 1164 1535 1164 c 0,2,3
 1486.26666667 1164 1486.26666667 1164 1459.13333333 1140.5 c 0,4,5
 1411 1098.81203931 1411 1098.81203931 1411 1047 c 0,6,7
 1411 973.15 1411 973.15 1480 949 c 0,8,9
 1500 942 1500 942 1522 942 c 2,10,-1
 1529 942 l 1,11,-1
 1635 950 l 1,12,-1
 1635 271 l 2,13,14
 1635 158.15 1635 158.15 1552 71 c 256,15,16
 1462.47619048 -23 1462.47619048 -23 1325 -23 c 2,17,-1
 869 -23 l 1,18,-1
 869 81 l 1,19,20
 742.185185185 -26 742.185185185 -26 564 -26 c 0,21,22
 356 -26 356 -26 209 121 c 0,23,24
 63 264.852941176 63 264.852941176 63 464 c 0,25,26
 63 573 63 573 111.5 673 c 128,-1,27
 160 773 160 773 248 843 c 0,28,29
 326.097447796 909.382830626 326.097447796 909.382830626 390.048723898 931.191415313 c 0,30,31
 492.12107027 966 492.12107027 966 609 966 c 1,32,-1
 609 776 l 1,33,34
 492 776 492 776 424.5 734 c 0,35,36
 302.943284758 658.364710516 302.943284758 658.364710516 270.5 530.5 c 0,37,38
 262 497 262 497 262 451 c 128,-1,39
 262 405 262 405 285 350.5 c 128,-1,40
 308 296 308 296 348.5 254.5 c 0,41,42
 437.795180723 163 437.795180723 163 563 163 c 0,43,44
 638 163 638 163 703 199.5 c 0,45,46
 777.044457275 241.078810624 777.044457275 241.078810624 832 338.5 c 0,47,48
 867 400.545454545 867 400.545454545 867 575 c 1,49,-1
 1067 577 l 1,50,-1
 1067 169 l 1,51,-1
 1325 169 l 2,52,53
 1377.5 169 1377.5 169 1409 205 c 0,54,55
 1437 235 1437 235 1437 271 c 2,56,-1
 1436 477 l 257,57,-1
 1435 610 l 1,58,-1
 1437 764 l 1,59,60
 1365.45112782 777.912280702 1365.45112782 777.912280702 1300 839 c 0,61,62
 1212 918.2 1212 918.2 1212 1046 c 0,63,64
 1212 1172.13953488 1212 1172.13953488 1304 1262 c 256,65,66
 1398.19047619 1354 1398.19047619 1354 1534 1354 c 0,67,68
 1694.44827586 1354 1694.44827586 1354 1792 1231 c 1,69,-1
 1632 1118 l 1,0,1
EndSplineSet
EndChar

StartChar: uni0DBB
Encoding: 3515 3515 105
Width: 2113
Flags: W
LayerCount: 2
Back
Fore
SplineSet
1252 560 m 1,0,1
 1348.42857143 590 1348.42857143 590 1411.71428571 590 c 0,2,3
 1677.37037037 590 1677.37037037 590 1843 418 c 0,4,5
 1983 267.230769231 1983 267.230769231 1983 76 c 0,6,7
 1983 -132.764705882 1983 -132.764705882 1854 -282 c 0,8,9
 1693.33340564 -467.869197397 1693.33340564 -467.869197397 1446 -471 c 1,10,-1
 1438 -471 l 2,11,12
 1282 -471 1282 -471 1154 -391 c 0,13,14
 1033.61538462 -318.769230769 1033.61538462 -318.769230769 962 -196 c 0,15,16
 891 -76.3142857143 891 -76.3142857143 891 64 c 0,17,18
 891 171.391304348 891 171.391304348 920.5 252.195652174 c 128,-1,19
 950 333 950 333 976 394 c 2,20,-1
 996 442 l 2,21,22
 1172.80394575 863.918506894 1172.80394575 863.918506894 1195 1326 c 1,23,-1
 456 1326 l 2,24,25
 351.736842105 1326 351.736842105 1326 336.5 1229.5 c 0,26,27
 332 1201 332 1201 332 1151 c 2,28,-1
 332 199 l 1,29,-1
 130 199 l 1,30,-1
 130 1211 l 1,31,32
 133.873320537 1327.19961612 133.873320537 1327.19961612 146.436660269 1359.59980806 c 128,-1,33
 159 1392 159 1392 180.5 1422 c 0,34,35
 222.988464311 1481.28622927 222.988464311 1481.28622927 269.994232156 1497.64311464 c 0,36,37
 337.116322123 1521 337.116322123 1521 425 1521 c 2,38,-1
 1571 1521 l 1,39,-1
 1571 1326 l 1,40,-1
 1392 1326 l 1,41,42
 1375.90697674 931.720930233 1375.90697674 931.720930233 1252 560 c 1,0,1
1443 -274 m 1,43,44
 1600.72272485 -270.907397552 1600.72272485 -270.907397552 1706.5 -152.5 c 0,45,46
 1789 -60.1492537313 1789 -60.1492537313 1789 67 c 0,47,48
 1789 186.545454545 1789 186.545454545 1699 282 c 256,49,50
 1593.4 394 1593.4 394 1433 394 c 0,51,52
 1332.64 394 1332.64 394 1259.32 349.5 c 0,53,54
 1107.45570824 257.329228268 1107.45570824 257.329228268 1090 91.5 c 0,55,56
 1089 82 1089 82 1089 58 c 0,57,58
 1089 -15.6 1089 -15.6 1129.5 -88.5 c 0,59,60
 1202.8490566 -220.528301887 1202.8490566 -220.528301887 1344.5 -261 c 0,61,62
 1390 -274 1390 -274 1438 -274 c 2,63,-1
 1443 -274 l 1,43,44
EndSplineSet
EndChar

StartChar: uni0DBD
Encoding: 3517 3517 106
Width: 2766
Flags: W
LayerCount: 2
Back
Fore
SplineSet
983 392 m 256,0,1
 1025.48 274 1025.48 274 1113.25 274 c 0,2,3
 1161.5 274 1161.5 274 1194 313 c 256,4,5
 1225 350.2 1225 350.2 1225 401.1 c 0,6,7
 1225 493.864864865 1225 493.864864865 1140 549 c 0,8,9
 1064.42052314 596.734406439 1064.42052314 596.734406439 967 599 c 1,10,11
 946.1 494.5 946.1 494.5 983 392 c 256,0,1
2355 1282 m 1,12,13
 2545.57931034 1091.42068966 2545.57931034 1091.42068966 2618.5 819 c 0,14,15
 2645 720 2645 720 2645 608.5 c 0,16,17
 2645 381.25 2645 381.25 2507 226 c 0,18,19
 2371.98630137 72 2371.98630137 72 2175 72 c 0,20,21
 2012.8372093 72 2012.8372093 72 1909 167 c 0,22,23
 1767.46786632 293.789203085 1767.46786632 293.789203085 1734 595 c 0,24,25
 1705.37309799 817.409007912 1705.37309799 817.409007912 1636 918 c 0,26,27
 1549.68421053 1038 1549.68421053 1038 1381 1038 c 0,28,29
 1209.48863636 1038 1209.48863636 1038 1086.5 901 c 0,30,31
 1047 857 1047 857 1019 802 c 1,32,33
 1195.82352941 792.176470588 1195.82352941 792.176470588 1315 673 c 256,34,35
 1431 557 1431 557 1431 404 c 0,36,37
 1431 265.279069767 1431 265.279069767 1339 169 c 0,38,39
 1245.52173913 69 1245.52173913 69 1112 69 c 0,40,41
 948.955882353 69 948.955882353 69 853 214 c 0,42,43
 759 352.956521739 759 352.956521739 759 575 c 1,44,45
 567.248408739 518.257182178 567.248408739 518.257182178 454 358 c 0,46,47
 343 203.833333333 343 203.833333333 343 14 c 0,48,49
 343 -226.487804878 343 -226.487804878 517 -392 c 0,50,51
 691.623376623 -558 691.623376623 -558 949 -558 c 2,52,-1
 953 -558 l 1,53,54
 1192.11519608 -554.894607843 1192.11519608 -554.894607843 1388.5 -402.5 c 0,55,56
 1451 -354 1451 -354 1501 -293 c 1,57,-1
 1658 -423 l 1,58,59
 1466.31724627 -663.364088006 1466.31724627 -663.364088006 1154 -737.5 c 0,60,61
 1055 -761 1055 -761 953 -761 c 2,62,-1
 949 -761 l 2,63,64
 605.559440559 -761 605.559440559 -761 367 -530.5 c 0,65,66
 217.913236048 -386.449951047 217.913236048 -386.449951047 160.5 -185 c 0,67,68
 132 -85 132 -85 132 15.5 c 0,69,70
 132 303.398305085 132 303.398305085 318 522.5 c 0,71,72
 504.572013592 742.275507537 504.572013592 742.275507537 794 793 c 1,73,74
 854.931573638 991.518997983 854.931573638 991.518997983 1020 1118 c 256,75,76
 1180.52542373 1241 1180.52542373 1241 1381 1241 c 0,77,78
 1678.62204724 1241 1678.62204724 1241 1815 1024.5 c 0,79,80
 1913.11840294 868.737035337 1913.11840294 868.737035337 1937 614 c 1,81,82
 1963.04331291 383.330657089 1963.04331291 383.330657089 2065.5 310.5 c 0,83,84
 2107 281 2107 281 2168.5 279 c 0,85,86
 2286.85729059 275.15098242 2286.85729059 275.15098242 2365 375 c 0,87,88
 2440 471.428571429 2440 471.428571429 2440 614 c 0,89,90
 2440 822.238095238 2440 822.238095238 2304 1023 c 0,91,92
 2262 1085 2262 1085 2211 1135 c 1,93,-1
 2355 1282 l 1,12,13
EndSplineSet
EndChar

StartChar: uni0DC0
Encoding: 3520 3520 107
Width: 2122
Flags: W
LayerCount: 2
Back
Fore
SplineSet
443 1413 m 1,0,1
 702.020618557 1614 702.020618557 1614 1025 1614 c 0,2,3
 1277.16666667 1614 1277.16666667 1614 1498 1489 c 0,4,5
 1840.94535544 1291.64465395 1840.94535544 1291.64465395 1946.5 917 c 0,6,7
 1982 791 1982 791 1982 662.5 c 0,8,9
 1982 423.145833333 1982 423.145833333 1879 215 c 2,10,-1
 1855 167 l 1,11,-1
 860 167 l 1,12,-1
 911 292 l 2,13,14
 944 372.4375 944 372.4375 944 446.21875 c 0,15,16
 944 652.833333333 944 652.833333333 789 782 c 0,17,18
 741 822 741 822 682 846 c 1,19,20
 721 783.6 721 783.6 721 712.8 c 0,21,22
 721 580.128205128 721 580.128205128 638 495 c 0,23,24
 552.390243902 405 552.390243902 405 429 405 c 256,25,26
 303.829268293 405 303.829268293 405 217 494 c 0,27,28
 130.036569987 578.842370744 130.036569987 578.842370744 128 699 c 1,29,-1
 128 729 l 1,30,-1
 126 729 l 1,31,32
 153.574821853 875.358669834 153.574821853 875.358669834 254 962 c 0,33,34
 360.818181818 1056 360.818181818 1056 528 1056 c 0,35,36
 768 1056 768 1056 944.5 879.5 c 128,-1,37
 1121 703 1121 703 1121 454 c 0,38,39
 1121 398 1121 398 1111 344 c 1,40,-1
 1744 344 l 1,41,42
 1806 495.793103448 1806 495.793103448 1806 625.896551724 c 0,43,44
 1806 966.304347826 1806 966.304347826 1587 1198 c 0,45,46
 1444.07328806 1349.21231843 1444.07328806 1349.21231843 1245.5 1407.5 c 0,47,48
 1145 1437 1145 1437 1033 1437 c 0,49,50
 764.2 1437 764.2 1437 551 1273 c 1,51,-1
 443 1413 l 1,0,1
305 727 m 1,52,-1
 303 705 l 1,53,54
 305.038147139 656.084468665 305.038147139 656.084468665 339 620 c 256,55,56
 373.823529412 583 373.823529412 583 412.911764706 583 c 0,57,58
 506.136363636 583 506.136363636 583 536 656 c 0,59,60
 545 678 545 678 545 703 c 0,61,62
 545 751 545 751 518.5 776.5 c 0,63,64
 474.333333333 819 474.333333333 819 427.166666667 819 c 128,-1,65
 380 819 380 819 348.5 794 c 128,-1,66
 317 769 317 769 305 727 c 1,52,-1
EndSplineSet
EndChar

StartChar: uni0DC2
Encoding: 3522 3522 109
Width: 2521
Flags: W
LayerCount: 2
Back
Fore
SplineSet
632 1161 m 1,0,1
 733 1065.94117647 733 1065.94117647 733 917 c 0,2,3
 733 784.386363636 733 784.386363636 636 694 c 0,4,5
 543.80952381 606 543.80952381 606 417 606 c 0,6,7
 279.489361702 606 279.489361702 606 184 708 c 0,8,9
 90 806.272727273 90 806.272727273 90 942 c 0,10,11
 90 1066.66666667 90 1066.66666667 166 1168 c 0,12,13
 266.284697509 1305.53329944 266.284697509 1305.53329944 451 1347 c 0,14,15
 500 1358 500 1358 551 1358 c 0,16,17
 774.126582278 1358 774.126582278 1358 920 1186 c 0,18,19
 1059 1019.62121212 1059 1019.62121212 1059 782 c 0,20,21
 1059 639.181818182 1059 639.181818182 1003.5 452.5 c 0,22,23
 987 397 987 397 987 353 c 0,24,25
 987 267 987 267 1017 232 c 256,26,27
 1056.42857143 186 1056.42857143 186 1152 186 c 2,28,-1
 1634 186 l 1,29,-1
 1634 382 l 1,30,31
 1483.80392157 382 1483.80392157 382 1374 494 c 0,32,33
 1265 600.862745098 1265 600.862745098 1265 749 c 0,34,35
 1265 880.775 1265 880.775 1354 972 c 0,36,37
 1439 1057 1439 1057 1552 1057 c 0,38,39
 1680 1057 1680 1057 1753 984 c 0,40,41
 1819 916 1819 916 1819 808 c 2,42,-1
 1819 635 l 1,43,44
 1916.85178236 712.251407129 1916.85178236 712.251407129 2032 986 c 0,45,46
 2137.60340245 1231.73099415 2137.60340245 1231.73099415 2222 1306 c 0,47,48
 2305.51380232 1379.39091719 2305.51380232 1379.39091719 2379.5 1383 c 0,49,50
 2400 1384 2400 1384 2431.5 1384 c 0,51,52
 2504.69565217 1384 2504.69565217 1384 2555.84782609 1347.5 c 0,53,54
 2641.5926051 1286.31619891 2641.5926051 1286.31619891 2668 1201 c 1,55,-1
 2488 1152 l 1,56,57
 2483 1171 2483 1171 2466.5 1184 c 128,-1,58
 2450 1197 2450 1197 2430 1197 c 0,59,60
 2331 1197 2331 1197 2331 1003 c 2,61,-1
 2331 0 l 1,62,-1
 1819 0 l 1,63,-1
 1819 -363 l 1,64,-1
 1634 -363 l 1,65,-1
 1634 0 l 1,66,-1
 1152 0 l 2,67,68
 902.181102362 0 902.181102362 0 826 193.5 c 0,69,70
 801 257 801 257 801 327 c 128,-1,71
 801 397 801 397 813 449 c 0,72,73
 861.082568807 657.357798165 861.082568807 657.357798165 866.541284404 692.678899083 c 128,-1,74
 872 728 872 728 872 791 c 0,75,76
 872 998.943181818 872 998.943181818 731 1109.5 c 0,77,78
 687 1144 687 1144 632 1161 c 1,0,1
284 923 m 0,79,80
 284 860.210526316 284 860.210526316 327 824 c 256,81,82
 363.8125 793 363.8125 793 403.90625 793 c 0,83,84
 503.571428571 793 503.571428571 793 538.5 874.5 c 0,85,86
 549 899 549 899 549 926.5 c 0,87,88
 549 980.210526316 549 980.210526316 507 1020 c 0,89,90
 466.764705882 1056 466.764705882 1056 427.382352941 1056 c 0,91,92
 329.428571429 1056 329.428571429 1056 294.5 974.5 c 0,93,94
 284 950 284 950 284 923 c 0,79,80
1631 559 m 1,95,-1
 1635 808 l 2,96,97
 1635 853.264705882 1635 853.264705882 1597 874.5 c 0,98,99
 1580 884 1580 884 1556 884 c 0,100,101
 1480 884 1480 884 1447 803 c 0,102,103
 1436 776 1436 776 1436 737 c 0,104,105
 1436 657.423076923 1436 657.423076923 1493 607 c 256,106,107
 1547.26086957 559 1547.26086957 559 1631 559 c 1,95,-1
1819 186 m 1,108,-1
 2146 186 l 1,109,-1
 2146 825 l 1,110,111
 2085.40149095 672.186368477 2085.40149095 672.186368477 2030 592 c 256,112,113
 1945.21906841 469.290756914 1945.21906841 469.290756914 1819 417 c 1,114,-1
 1819 186 l 1,108,-1
EndSplineSet
EndChar

StartChar: uni0DC3
Encoding: 3523 3523 110
Width: 2624
Flags: W
LayerCount: 2
Back
Fore
SplineSet
1963 373 m 1,0,1
 1963 122 1963 122 2126 122 c 0,2,3
 2258.4 122 2258.4 122 2280.5 275 c 0,4,5
 2287 320 2287 320 2287 371 c 2,6,-1
 2287 893 l 1,7,-1
 2480 893 l 1,8,-1
 2480 371 l 2,9,10
 2480 118.822222222 2480 118.822222222 2344 7 c 0,11,12
 2250.44736842 -72 2250.44736842 -72 2130 -72 c 0,13,14
 1942.92682927 -72 1942.92682927 -72 1848 67 c 0,15,16
 1769 182.678571429 1769 182.678571429 1769 335 c 1,17,-1
 1771 375 l 1,18,-1
 1772 575 l 2,19,20
 1772 654.92 1772 654.92 1756.5 680.96 c 128,-1,21
 1741 707 1741 707 1720.5 722 c 0,22,23
 1678.13333333 753 1678.13333333 753 1633.06666667 753 c 0,24,25
 1520.64285714 753 1520.64285714 753 1486 656 c 0,26,27
 1476 628 1476 628 1476 598 c 2,28,-1
 1476 216 l 1,29,-1
 1284 216 l 1,30,-1
 1284 574 l 1,31,32
 1282 590 1282 590 1280.5 606 c 128,-1,33
 1279 622 1279 622 1272 656.5 c 128,-1,34
 1265 691 1265 691 1240 733.5 c 0,35,36
 1163.23529412 864 1163.23529412 864 1013 864 c 0,37,38
 873.428571429 864 873.428571429 864 788 772 c 0,39,40
 710.606965174 688.802487562 710.606965174 688.802487562 689 557 c 1,41,42
 765 595 765 595 840 595 c 0,43,44
 983 595 983 595 1083 495 c 0,45,46
 1180 393.688888889 1180 393.688888889 1180 256 c 0,47,48
 1180 123 1180 123 1082 25 c 0,49,50
 982.844444444 -72 982.844444444 -72 846 -72 c 0,51,52
 755 -72 755 -72 675.5 -25.5 c 128,-1,53
 596 21 596 21 548 109 c 1,54,-1
 547 109 l 1,55,56
 544 112 544 112 542 116.5 c 128,-1,57
 540 121 540 121 522.5 156 c 0,58,59
 481 239 481 239 481 386 c 0,60,61
 481 713.294117647 481 713.294117647 621 878 c 1,62,-1
 96 878 l 1,63,-1
 96 1060 l 1,64,-1
 1017 1060 l 1,65,66
 1007.6630809 1175.15533563 1007.6630809 1175.15533563 898.5 1220.5 c 0,67,68
 866 1234 866 1234 829 1234 c 0,69,70
 732.8 1234 732.8 1234 672 1158 c 1,71,-1
 485 1297 l 1,72,73
 543 1376 543 1376 632.5 1423.5 c 128,-1,74
 722 1471 722 1471 819 1471 c 0,75,76
 1003.16949153 1471 1003.16949153 1471 1129 1343 c 0,77,78
 1252 1215.68421053 1252 1215.68421053 1252 1042 c 2,79,-1
 1252 1017 l 2,80,81
 1252 1005 1252 1005 1250 992 c 1,82,83
 1334.80942184 942.355460385 1334.80942184 942.355460385 1385 869 c 0,84,85
 1386 868 1386 868 1387.5 865 c 128,-1,86
 1389 862 1389 862 1392 858 c 1,87,88
 1483 949 1483 949 1623 949 c 0,89,90
 1795.11538462 949 1795.11538462 949 1885 835 c 256,91,92
 1965 733.536585366 1965 733.536585366 1965 574 c 1,93,-1
 1963 373 l 1,0,1
975.5 310.5 m 0,94,95
 938.235294118 401 938.235294118 401 840.5 401 c 0,96,97
 806 401 806 401 770.5 379.5 c 0,98,99
 703 338.61971831 703 338.61971831 703 261 c 0,100,101
 703 203.8 703 203.8 747 162 c 0,102,103
 788 121 788 121 845 121 c 0,104,105
 896.666666667 121 896.666666667 121 928.833333333 149 c 0,106,107
 986 198.761658031 986 198.761658031 986 258 c 0,108,109
 986 285 986 285 975.5 310.5 c 0,94,95
EndSplineSet
EndChar

StartChar: uni0DC4
Encoding: 3524 3524 111
Width: 2105
Flags: W
LayerCount: 2
Back
Fore
SplineSet
105 948 m 1,0,1
 87 1010 87 1010 87 1080.5 c 0,2,3
 87 1231.07843137 87 1231.07843137 191 1331 c 0,4,5
 300.183673469 1438 300.183673469 1438 474 1438 c 0,6,7
 676.125 1438 676.125 1438 782 1317 c 0,8,9
 873.065920081 1211.0661746 873.065920081 1211.0661746 884 1023 c 1,10,-1
 891 887 l 1,11,12
 610.779674166 875.484096199 610.779674166 875.484096199 484 831 c 0,13,14
 295 764.684210526 295 764.684210526 295 583 c 0,15,16
 295 424.333333333 295 424.333333333 390 323 c 0,17,18
 485.510204082 219 485.510204082 219 629 219 c 0,19,20
 839.669421488 219 839.669421488 219 925 425.5 c 0,21,22
 962.924738012 517.277865989 962.924738012 517.277865989 989.962369006 637.638932995 c 128,-1,23
 1017 758 1017 758 1040.5 829 c 0,24,25
 1103.35212326 1018.893649 1103.35212326 1018.893649 1197 1119 c 256,26,27
 1327.96774194 1259 1327.96774194 1259 1539 1259 c 0,28,29
 1878.92626728 1259 1878.92626728 1259 1978.5 936.5 c 0,30,31
 2012 828 2012 828 2012 702.5 c 0,32,33
 2012 486.111111111 2012 486.111111111 1983.5 386.555555556 c 128,-1,34
 1955 287 1955 287 1927 237 c 128,-1,35
 1899 187 1899 187 1863.5 146.5 c 0,36,37
 1803.91739895 78.525483304 1803.91739895 78.525483304 1691 4 c 1,38,-1
 1543 175 l 1,39,40
 1601 214 1601 214 1649 252 c 128,-1,41
 1697 290 1697 290 1731 343.5 c 0,42,43
 1802 455.220588235 1802 455.220588235 1802 667 c 0,44,45
 1802 912.057142857 1802 912.057142857 1648.5 991 c 0,46,47
 1596 1018 1596 1018 1538 1018 c 128,-1,48
 1480 1018 1480 1018 1439.5 986 c 128,-1,49
 1399 954 1399 954 1363.5 905 c 0,50,51
 1298.87714146 815.802251591 1298.87714146 815.802251591 1261.93857073 707.901125795 c 128,-1,52
 1225 600 1225 600 1201.5 518 c 128,-1,53
 1178 436 1178 436 1149.5 360 c 0,54,55
 1085 188 1085 188 989 104 c 0,56,57
 870.975473802 -1.37904124861 870.975473802 -1.37904124861 663 -7 c 0,58,59
 375.904530744 -14.6051779935 375.904530744 -14.6051779935 224 159 c 0,60,61
 85 313.661971831 85 313.661971831 85 577 c 0,62,63
 85 725.209302326 85 725.209302326 178 842 c 0,64,65
 306.797106008 1000.74992136 306.797106008 1000.74992136 533.5 1035.5 c 0,66,67
 602 1046 602 1046 667 1042 c 1,68,69
 645.484848485 1134.51515152 645.484848485 1134.51515152 617.242424242 1162.25757576 c 0,70,71
 568.639541234 1210 568.639541234 1210 479 1210 c 0,72,73
 278 1210 278 1210 278 1055 c 0,74,75
 278 1032 278 1032 289 977 c 1,76,-1
 105 948 l 1,0,1
EndSplineSet
EndChar

StartChar: uni0DC6
Encoding: 3526 3526 113
Width: 1990
Flags: W
LayerCount: 2
Back
Fore
SplineSet
1690 1094 m 0,0,1
 1600.86206897 1094 1600.86206897 1094 1590 968 c 1,2,-1
 1590 262 l 2,3,4
 1590 165.142857143 1590 165.142857143 1515 88 c 0,5,6
 1434.24324324 5 1434.24324324 5 1319 5 c 2,7,-1
 1117 5 l 1,8,-1
 1117 -246 l 1,9,-1
 936 -246 l 1,10,-1
 936 5 l 1,11,-1
 552 5 l 1,12,-1
 554 859 l 2,13,14
 554 993 554 993 469 1035.5 c 0,15,16
 440 1050 440 1050 405.5 1050 c 0,17,18
 342.75 1050 342.75 1050 311.375 1023.5 c 0,19,20
 257 977.573705179 257 977.573705179 257 932.78685259 c 128,-1,21
 257 888 257 888 279 864.5 c 128,-1,22
 301 841 301 841 332.115384615 841 c 128,-1,23
 363.230769231 841 363.230769231 841 384 868 c 1,24,-1
 527 768 l 1,25,26
 454.041666667 665 454.041666667 665 332 665 c 0,27,28
 231 665 231 665 157 739 c 0,29,30
 81 812.828571429 81 812.828571429 81 924 c 0,31,32
 81 1052.88888889 81 1052.88888889 179 1140 c 0,33,34
 272.5 1225 272.5 1225 401 1225 c 0,35,36
 503.655172414 1225 503.655172414 1225 592 1164 c 0,37,38
 730 1065.42857143 730 1065.42857143 730 859 c 2,39,-1
 729 179 l 1,40,-1
 936 179 l 1,41,-1
 936 927 l 1,42,-1
 834 927 l 1,43,-1
 834 1106 l 1,44,-1
 936 1106 l 1,45,46
 938.333333333 1190 938.333333333 1190 950.166666667 1262.5 c 128,-1,47
 962 1335 962 1335 1009 1409.5 c 128,-1,48
 1056 1484 1056 1484 1127 1538.5 c 0,49,50
 1277.46788991 1654 1277.46788991 1654 1478 1654 c 1,51,-1
 1478 1475 l 1,52,53
 1412.5 1475 1412.5 1475 1336.75 1447 c 128,-1,54
 1261 1419 1261 1419 1222.5 1387.5 c 128,-1,55
 1184 1356 1184 1356 1160.5 1314 c 0,56,57
 1117 1236.25531915 1117 1236.25531915 1117 1106 c 1,58,-1
 1221 1106 l 1,59,-1
 1221 927 l 1,60,-1
 1117 927 l 1,61,-1
 1117 179 l 1,62,-1
 1319 179 l 2,63,64
 1382.27586207 179 1382.27586207 179 1408.5 237.5 c 0,65,66
 1415 252 1415 252 1415 262 c 2,67,-1
 1415 979 l 1,68,69
 1424.89935956 1109.6715462 1424.89935956 1109.6715462 1501 1190 c 0,70,71
 1575.88144072 1266.96148074 1575.88144072 1266.96148074 1688 1269 c 0,72,73
 1827.77777778 1269 1827.77777778 1269 1910 1158 c 1,74,-1
 1766 1055 l 1,75,76
 1736.17647059 1094 1736.17647059 1094 1690 1094 c 0,0,1
EndSplineSet
EndChar

StartChar: uni0DCA
Encoding: 3530 3530 114
Width: 0
Flags: W
LayerCount: 2
Back
Fore
SplineSet
-483.5 1777 m 0,0,1
 -422.534090909 1922 -422.534090909 1922 -256.225 1922 c 0,2,3
 -194.45 1922 -194.45 1922 -150.225 1891 c 0,4,5
 -35 1810.23176936 -35 1810.23176936 -35 1686 c 0,6,7
 -35 1591.8125 -35 1591.8125 -105 1524 c 256,8,9
 -174.161290323 1457 -174.161290323 1457 -267 1457 c 2,10,-1
 -280 1457 l 1,11,12
 -251 1362.75 -251 1362.75 -251 1245 c 1,13,-1
 -410 1249 l 1,14,-1
 -410 1263 l 2,15,16
 -410 1342.83333333 -410 1342.83333333 -457 1476 c 256,17,18
 -504 1609.16666667 -504 1609.16666667 -503 1671.08333333 c 128,-1,19
 -502 1733 -502 1733 -483.5 1777 c 0,0,1
-267 1616 m 0,20,21
 -214.333333333 1616 -214.333333333 1616 -194 1677 c 1,22,-1
 -194 1686 l 2,23,24
 -194 1718 -194 1718 -214.5 1740.5 c 128,-1,25
 -235 1763 -235 1763 -266.5 1763 c 128,-1,26
 -298 1763 -298 1763 -317.5 1744 c 128,-1,27
 -337 1725 -337 1725 -343 1696 c 1,28,-1
 -341 1694 l 1,29,30
 -341 1660 -341 1660 -321 1638 c 128,-1,31
 -301 1616 -301 1616 -267 1616 c 0,20,21
EndSplineSet
EndChar

StartChar: uni0DCF
Encoding: 3535 3535 115
Width: 858
Flags: W
LayerCount: 2
Back
Fore
SplineSet
202 182 m 1,0,-1
 239 183 l 1,1,2
 404.108433735 183 404.108433735 183 479 312.5 c 0,3,4
 511.386023295 368.500831947 511.386023295 368.500831947 515.193011647 422.750415973 c 128,-1,5
 519 477 519 477 521 508 c 0,6,7
 522 539 522 539 523.5 564.5 c 128,-1,8
 525 590 525 590 526 603 c 128,-1,9
 527 616 527 616 527 634.5 c 2,10,-1
 527 672 l 2,11,12
 527 780 527 780 480 862.5 c 128,-1,13
 433 945 433 945 339 985 c 1,14,-1
 237 985 l 2,15,16
 208 985 208 985 198.5 960 c 128,-1,17
 189 935 189 935 189 894 c 2,18,-1
 189 598 l 1,19,-1
 9 598 l 1,20,-1
 12 924 l 2,21,22
 14.0610079576 1055.90450928 14.0610079576 1055.90450928 57 1106 c 256,23,24
 103.285714286 1160 103.285714286 1160 222 1160 c 2,25,-1
 856 1160 l 1,26,-1
 856 985 l 1,27,-1
 614 985 l 1,28,29
 710 860.764705882 710 860.764705882 710 675 c 0,30,31
 710 618.5 710 618.5 707 580.25 c 128,-1,32
 704 542 704 542 703.5 487.5 c 128,-1,33
 703 433 703 433 689.5 364 c 0,34,35
 639.484871069 108.367118796 639.484871069 108.367118796 419.5 28.5 c 0,36,37
 341 0 341 0 237 0 c 0,38,39
 229 0 229 0 221 0 c 128,-1,40
 213 0 213 0 202 2 c 1,41,-1
 202 182 l 1,0,-1
EndSplineSet
EndChar

StartChar: uni0DD0
Encoding: 3536 3536 116
Width: 633
Flags: W
LayerCount: 2
Back
Fore
SplineSet
664 -304 m 1,0,1
 525.576923077 -363 525.576923077 -363 426.288461538 -363 c 0,2,3
 150.972222222 -363 150.972222222 -363 69 -136 c 0,4,5
 43 -64 43 -64 43 26 c 0,6,7
 43 343.844444444 43 343.844444444 389 686 c 1,8,9
 377 685 377 685 370 685 c 0,10,11
 201 685 201 685 32 685 c 1,12,-1
 32 848 l 1,13,-1
 603 848 l 1,14,-1
 603 687 l 1,15,16
 435.189992181 509.545738858 435.189992181 509.545738858 374.094996091 422.272869429 c 0,17,18
 275.436914462 281.341951563 275.436914462 281.341951563 254.718457231 217.170975782 c 0,19,20
 220 109.638003935 220 109.638003935 220 9.31900196727 c 128,-1,21
 220 -91 220 -91 268.5 -144 c 128,-1,22
 317 -197 317 -197 416.653846154 -197 c 128,-1,23
 516.307692308 -197 516.307692308 -197 610 -155 c 1,24,-1
 664 -304 l 1,0,1
EndSplineSet
EndChar

StartChar: uni0DD1
Encoding: 3537 3537 117
Width: 644
Flags: W
LayerCount: 2
Back
Fore
SplineSet
657 -286 m 1,0,1
 537.346153846 -337 537.346153846 -337 433.673076923 -337 c 0,2,3
 162.898305085 -337 162.898305085 -337 90 -150 c 0,4,5
 67 -91 67 -91 67 -15 c 0,6,7
 67 217.475 67 217.475 388 386 c 1,8,9
 348 382 348 382 202 374 c 1,10,-1
 133 371 l 1,11,-1
 83 493 l 1,12,13
 203.476190476 577.333333333 203.476190476 577.333333333 387 687 c 1,14,15
 357 685 357 685 327 685 c 2,16,-1
 32 685 l 1,17,-1
 32 823 l 1,18,-1
 548 823 l 1,19,-1
 594 695 l 1,20,21
 496.302114804 620.664652568 496.302114804 620.664652568 256 480 c 1,22,23
 332.452380952 488.047619048 332.452380952 488.047619048 453 492 c 1,24,-1
 548 496 l 1,25,-1
 593 371 l 1,26,27
 397.277108434 266.21905805 397.277108434 266.21905805 308 181 c 256,28,29
 220 97 220 97 220 -3 c 128,-1,30
 220 -103 220 -103 275.5 -150 c 128,-1,31
 331 -197 331 -197 423.653846154 -197 c 128,-1,32
 516.307692308 -197 516.307692308 -197 610 -155 c 1,33,-1
 657 -286 l 1,0,1
EndSplineSet
EndChar

StartChar: uni0DD2
Encoding: 3538 3538 118
Width: 0
Flags: W
LayerCount: 2
Back
Fore
SplineSet
-596 1623 m 0,0,1
 -819.049382716 1623 -819.049382716 1623 -979 1459 c 1,2,-1
 -1205 1459 l 1,3,-1
 -1194 1480 l 1,4,5
 -1040.55415518 1708.6029933 -1040.55415518 1708.6029933 -773 1781 c 0,6,7
 -688 1804 -688 1804 -594 1804 c 0,8,9
 -404.882352941 1804 -404.882352941 1804 -263 1696 c 0,10,11
 -124.968013468 1590.44612795 -124.968013468 1590.44612795 -74 1409 c 0,12,13
 -49.6610305958 1320.61111111 -49.6610305958 1320.61111111 -47 1137 c 1,14,-1
 -44 674 l 1,15,-1
 -225 674 l 1,16,-1
 -227 1137 l 1,17,18
 -224.645381984 1275.92246294 -224.645381984 1275.92246294 -244.322690992 1348.46123147 c 0,19,20
 -298.402527696 1547.82206659 -298.402527696 1547.82206659 -471.5 1604.5 c 0,21,22
 -528 1623 -528 1623 -596 1623 c 0,0,1
EndSplineSet
EndChar

StartChar: uni0DD3
Encoding: 3539 3539 119
Width: 0
Flags: W
LayerCount: 2
Back
Fore
SplineSet
-249 1015.5 m 128,-1,1
 -229 1035 -229 1035 -229 1064.5 c 128,-1,2
 -229 1094 -229 1094 -250.5 1115 c 128,-1,3
 -272 1136 -272 1136 -302 1136 c 256,4,5
 -332 1136 -332 1136 -352.5 1114.5 c 128,-1,6
 -373 1093 -373 1093 -373 1063 c 128,-1,7
 -373 1033 -373 1033 -352 1014.5 c 128,-1,8
 -331 996 -331 996 -300 996 c 128,-1,0
 -269 996 -269 996 -249 1015.5 c 128,-1,1
-205 869 m 1,9,10
 -243.181818182 848 -243.181818182 848 -295.590909091 848 c 0,11,12
 -394 848 -394 848 -458 912 c 0,13,14
 -522 973.866666667 -522 973.866666667 -522 1067 c 0,15,16
 -522 1156 -522 1156 -456 1222 c 0,17,18
 -390.827586207 1285 -390.827586207 1285 -303 1285 c 0,19,20
 -259.625 1285 -259.625 1285 -224 1270 c 1,21,22
 -225 1271 -225 1271 -225 1271.5 c 2,23,-1
 -225 1272 l 1,24,25
 -279 1360 -279 1360 -374.5 1409 c 128,-1,26
 -470 1458 -470 1458 -596.5 1458 c 128,-1,27
 -723 1458 -723 1458 -841 1405 c 128,-1,28
 -959 1352 -959 1352 -1046 1257 c 1,29,-1
 -1235 1257 l 1,30,31
 -1073.25876941 1502.72225417 -1073.25876941 1502.72225417 -780.5 1581 c 0,32,33
 -687 1606 -687 1606 -583.5 1606 c 0,34,35
 -368.06557377 1606 -368.06557377 1606 -207 1475 c 256,36,37
 -45.0076142132 1343.24619289 -45.0076142132 1343.24619289 -39 1149 c 1,38,39
 -39 1005.85483871 -39 1005.85483871 -135 914.5 c 0,40,41
 -166 885 -166 885 -205 867 c 1,42,-1
 -205 869 l 1,9,10
EndSplineSet
EndChar

StartChar: uni0DD4
Encoding: 3540 3540 120
Width: 0
Flags: W
LayerCount: 2
Back
Fore
SplineSet
-89 181 m 1,0,1
 -29 11 -29 11 -29 -173 c 0,2,3
 -29 -320.8 -29 -320.8 -67 -450 c 2,4,-1
 -85 -512 l 1,5,-1
 -914 -512 l 2,6,7
 -1110.15789474 -512 -1110.15789474 -512 -1182 -375.5 c 0,8,9
 -1207 -328 -1207 -328 -1207 -272.5 c 0,10,11
 -1207 -170.518518519 -1207 -170.518518519 -1151 -100 c 1,12,-1
 -1019 -206 l 1,13,14
 -1038 -228.8 -1038 -228.8 -1038 -263 c 0,15,16
 -1038 -343 -1038 -343 -914 -343 c 2,17,-1
 -215 -343 l 1,18,19
 -198 -253.75 -198 -253.75 -198 -174 c 0,20,21
 -198 -17.2307692308 -198 -17.2307692308 -249 124 c 1,22,-1
 -89 181 l 1,0,1
EndSplineSet
EndChar

StartChar: uni0DD6
Encoding: 3542 3542 121
Width: 0
Flags: W
LayerCount: 2
Back
Fore
SplineSet
-150 146 m 1,0,1
 -45 -76.3529411765 -45 -76.3529411765 -45 -314 c 0,2,3
 -45 -410.625 -45 -410.625 -60 -495 c 2,4,-1
 -78 -596 l 1,5,-1
 -175 -561 l 2,6,7
 -313.72 -510 -313.72 -510 -453 -510 c 0,8,9
 -543.384615385 -510 -543.384615385 -510 -636.192307692 -530 c 0,10,11
 -812.526923077 -568 -812.526923077 -568 -889.763461538 -568 c 0,12,13
 -1031.58823529 -568 -1031.58823529 -568 -1123 -494 c 0,14,15
 -1212 -419.833333333 -1212 -419.833333333 -1212 -308 c 0,16,17
 -1212 -211 -1212 -211 -1148 -147 c 1,18,-1
 -1025 -263 l 1,19,20
 -1042 -287.285714286 -1042 -287.285714286 -1042 -316.642857143 c 128,-1,21
 -1042 -346 -1042 -346 -1001.5 -372 c 128,-1,22
 -961 -398 -961 -398 -908.5 -398 c 0,23,24
 -836.5 -398 -836.5 -398 -736.75 -377 c 128,-1,25
 -637 -356 -637 -356 -599 -350.5 c 0,26,27
 -519.545454545 -339 -519.545454545 -339 -425.772727273 -339 c 128,-1,28
 -332 -339 -332 -339 -216 -369 c 1,29,30
 -215 -357 -215 -357 -215 -345 c 128,-1,31
 -215 -333 -215 -333 -215 -321 c 0,32,33
 -215 -111.933333333 -215 -111.933333333 -304 72 c 1,34,-1
 -150 146 l 1,0,1
EndSplineSet
EndChar

StartChar: uni0DD8
Encoding: 3544 3544 122
Width: 919
Flags: W
LayerCount: 2
Back
Fore
SplineSet
208 314 m 0,0,1
 208 119 208 119 386 119 c 0,2,3
 462.727272727 119 462.727272727 119 496.363636364 139 c 128,-1,4
 530 159 530 159 551 175 c 1,5,-1
 634 175 l 1,6,-1
 665 156 l 1,7,-1
 665 555 l 1,8,-1
 596 555 l 2,9,10
 431 555 431 555 351.5 525.5 c 128,-1,11
 272 496 272 496 240 444 c 128,-1,12
 208 392 208 392 208 314 c 0,0,1
602 49 m 1,13,14
 506.15 -22 506.15 -22 363 -22 c 0,15,16
 225.954545455 -22 225.954545455 -22 141 67 c 1,17,18
 58 160.12195122 58 160.12195122 58 313 c 0,19,20
 58 552.655172414 58 552.655172414 271.5 641 c 0,21,22
 392.333333333 691 392.333333333 691 663 691 c 1,23,24
 654.56097561 924.479674797 654.56097561 924.479674797 492.5 978.5 c 0,25,26
 440 996 440 996 341 996 c 128,-1,27
 242 996 242 996 118 952 c 1,28,-1
 75 1086 l 1,29,30
 226.038461538 1137 226.038461538 1137 354.519230769 1137 c 128,-1,31
 483 1137 483 1137 565.5 1107.5 c 0,32,33
 694.138107417 1061.50213129 694.138107417 1061.50213129 759 939.5 c 0,34,35
 798.765957447 864.70212766 798.765957447 864.70212766 807.382978723 771.35106383 c 128,-1,36
 816 678 816 678 816 594 c 2,37,-1
 816 0 l 1,38,-1
 685 0 l 1,39,-1
 602 49 l 1,13,14
EndSplineSet
EndChar

StartChar: uni0DD9
Encoding: 3545 3545 123
Width: 1643
Flags: W
LayerCount: 2
Back
Fore
SplineSet
835 68 m 0,0,1
 744.804878049 -18 744.804878049 -18 613.402439024 -18 c 0,2,3
 361.229508197 -18 361.229508197 -18 203 236 c 0,4,5
 78 434.770491803 78 434.770491803 78 661 c 0,6,7
 78 854.533333333 78 854.533333333 171 1024 c 0,8,9
 260.992373689 1191.71306006 260.992373689 1191.71306006 419 1293 c 0,10,11
 582.428571429 1397 582.428571429 1397 760.214285714 1397 c 0,12,13
 1109.30434783 1397 1109.30434783 1397 1336 1160 c 0,14,15
 1445 1045 1445 1045 1509.5 879 c 128,-1,16
 1574 713 1574 713 1574 503 c 1,17,-1
 1385 559 l 1,18,19
 1385 724.315789474 1385 724.315789474 1305 878 c 0,20,21
 1227.12623274 1025.55029586 1227.12623274 1025.55029586 1093 1117 c 0,22,23
 952 1211 952 1211 788 1211 c 0,24,25
 569.666666667 1211 569.666666667 1211 424 1059 c 0,26,27
 274 902.571428571 274 902.571428571 274 660 c 0,28,29
 274 542.363636364 274 542.363636364 293 489.681818182 c 128,-1,30
 312 437 312 437 330 403 c 1,31,32
 367.481781377 549.803643725 367.481781377 549.803643725 512 598.5 c 0,33,34
 558 614 558 614 617 614 c 0,35,36
 744.902439024 614 744.902439024 614 833 530 c 256,37,38
 925 442.279069767 925 442.279069767 925 299.068106312 c 128,-1,39
 925 155.857142857 925 155.857142857 835 68 c 0,0,1
667.5 175.5 m 0,40,41
 750 212.705882353 750 212.705882353 750 319.388888889 c 0,42,43
 750 360.777777778 750 360.777777778 720.5 391.388888889 c 0,44,45
 669.798548094 444 669.798548094 444 611 444 c 0,46,47
 556.222222222 444 556.222222222 444 525.111111111 414.5 c 0,48,49
 471 363.191071429 471 363.191071429 471 308 c 0,50,51
 471 247 471 247 511 207 c 0,52,53
 551.85 164 551.85 164 596.925 164 c 128,-1,54
 642 164 642 164 667.5 175.5 c 0,40,41
EndSplineSet
EndChar

StartChar: uni0DDB
Encoding: 3547 3547 125
Width: 2452
Flags: W
LayerCount: 2
Back
Fore
SplineSet
1228 924 m 1,0,1
 1228 927 1228 927 1230 927 c 0,2,3
 1364.33090841 1082.70173475 1364.33090841 1082.70173475 1566.5 1129 c 0,4,5
 1632 1144 1632 1144 1718.5 1144 c 128,-1,6
 1805 1144 1805 1144 1905.5 1107.5 c 0,7,8
 2109.43060732 1033.43565008 2109.43060732 1033.43565008 2240.5 847.5 c 0,9,10
 2369 665.209302326 2369 665.209302326 2369 438 c 0,11,12
 2369 305 2369 305 2323 183 c 1,13,-1
 2186 237 l 1,14,15
 2222 335 2222 335 2222 423.5 c 0,16,17
 2222 656.875 2222 656.875 2066 827.5 c 0,18,19
 1968.47619048 934.166666667 1968.47619048 934.166666667 1837 976 c 0,20,21
 1771 997 1771 997 1684.5 997 c 128,-1,22
 1598 997 1598 997 1508.5 955 c 128,-1,23
 1419 913 1419 913 1353 841.5 c 0,24,25
 1212 688.75 1212 688.75 1212 481 c 0,26,27
 1212 436.5 1212 436.5 1221 378 c 1,28,29
 1310.34545455 504 1310.34545455 504 1447 504 c 0,30,31
 1566.61538462 504 1566.61538462 504 1646 418 c 0,32,33
 1720 335.542857143 1720 335.542857143 1720 230 c 0,34,35
 1720 117.837837838 1720 117.837837838 1640 40 c 0,36,37
 1561 -39 1561 -39 1464 -39 c 0,38,39
 1284.28571429 -39 1284.28571429 -39 1175 111 c 0,40,41
 1064 258.288461538 1064 258.288461538 1064 455.144230769 c 128,-1,42
 1064 652 1064 652 1142 798 c 1,43,44
 1012.50285714 949.08 1012.50285714 949.08 818 993 c 0,45,46
 756 1007 756 1007 673 1007 c 128,-1,47
 590 1007 590 1007 503 969.5 c 128,-1,48
 416 932 416 932 352 867.5 c 0,49,50
 217 731.4453125 217 731.4453125 217 531 c 0,51,52
 217 413 217 413 267 305 c 1,53,54
 306.519154557 436.730515192 306.519154557 436.730515192 437.5 484.5 c 0,55,56
 480 500 480 500 533 500 c 0,57,58
 642.216216216 500 642.216216216 500 722 418 c 0,59,60
 799 336.722222222 799 336.722222222 799 227 c 0,61,62
 799 113.868421053 799 113.868421053 718 35 c 0,63,64
 633.842105263 -47 633.842105263 -47 528.421052632 -47 c 0,65,66
 335.390243902 -47 335.390243902 -47 200 135 c 0,67,68
 69 308.950819672 69 308.950819672 69 531 c 0,69,70
 69 793 69 793 249.5 973.5 c 0,71,72
 431 1155 431 1155 692 1155 c 0,73,74
 916.788235294 1155 916.788235294 1155 1113 1020.5 c 0,75,76
 1175 978 1175 978 1228 924 c 1,0,1
1497.5 119 m 0,77,78
 1572 152.111111111 1572 152.111111111 1572 244.223266745 c 0,79,80
 1572 282.44653349 1572 282.44653349 1535.40625 318.223266745 c 128,-1,81
 1498.8125 354 1498.8125 354 1455.15625 354 c 128,-1,82
 1411.5 354 1411.5 354 1389.25 339.5 c 0,83,84
 1326 298.280898876 1326 298.280898876 1326 230 c 0,85,86
 1326 178.823529412 1326 178.823529412 1363 144 c 0,87,88
 1398 109 1398 109 1436.5 109 c 128,-1,89
 1475 109 1475 109 1497.5 119 c 0,77,78
484.5 345 m 0,90,91
 410.155802862 317.337042925 410.155802862 317.337042925 404 225 c 1,92,93
 404 171.333333333 404 171.333333333 444 138 c 0,94,95
 479.0625 105 479.0625 105 519.03125 105 c 0,96,97
 615.418604651 105 615.418604651 105 643.5 185.5 c 0,98,99
 651 207 651 207 651 230 c 0,100,101
 651 277.8125 651 277.8125 625 304.90625 c 0,102,103
 578.847750865 353 578.847750865 353 529 353 c 0,104,105
 506 353 506 353 484.5 345 c 0,90,91
EndSplineSet
EndChar

StartChar: uni0DDF
Encoding: 3551 3551 129
Width: 1481
Flags: W
LayerCount: 2
Back
Fore
SplineSet
361 872 m 1,0,1
 377 876 377 876 411 876 c 0,2,3
 495 876 495 876 567 818 c 0,4,5
 665 739.6 665 739.6 665 613 c 0,6,7
 665 520 665 520 616 461.5 c 0,8,9
 523.350886918 350.888303769 523.350886918 350.888303769 400 355 c 1,10,11
 277.941176471 355 277.941176471 355 189 463 c 1,12,-1
 181 471 l 1,13,14
 174 482 174 482 167 493 c 128,-1,15
 160 504 160 504 146.5 530 c 0,16,17
 111 598.37037037 111 598.37037037 111 701 c 0,18,19
 111 720 111 720 122.5 800 c 128,-1,20
 134 880 134 880 189.5 971.5 c 128,-1,21
 245 1063 245 1063 316 1115 c 0,22,23
 445.493615786 1209.84039466 445.493615786 1209.84039466 589 1214 c 0,24,25
 743.251269036 1220.17005076 743.251269036 1220.17005076 860 1128 c 0,26,27
 953.380243572 1056.01939558 953.380243572 1056.01939558 1009 918 c 0,28,29
 1036.55329949 849.715736041 1036.55329949 849.715736041 1065 698 c 1,30,-1
 1086 597 l 1,31,32
 1136.60710195 369.268041237 1136.60710195 369.268041237 1284.5 330.5 c 0,33,34
 1336 317 1336 317 1391 326 c 1,35,-1
 1421 131 l 1,36,37
 1323 115 1323 115 1229.5 141 c 128,-1,38
 1136 167 1136 167 1078 217 c 0,39,40
 939.043581616 336.790015848 939.043581616 336.790015848 895 549 c 0,41,42
 872.083333333 659.416666667 872.083333333 659.416666667 866.541666667 686.708333333 c 0,43,44
 833.321274106 850.312522261 833.321274106 850.312522261 786.5 920 c 0,45,46
 718.528160693 1021.16738874 718.528160693 1021.16738874 595 1018 c 256,47,48
 452.508379888 1014.34636872 452.508379888 1014.34636872 361 872 c 1,0,1
463 671.5 m 128,-1,50
 440 695 440 695 407 695.5 c 128,-1,51
 374 696 374 696 350.5 672.5 c 128,-1,52
 327 649 327 649 327 624.5 c 0,53,54
 327 562.793103448 327 562.793103448 374.5 541.5 c 0,55,56
 389 535 389 535 405.5 535 c 0,57,58
 457.75862069 535 457.75862069 535 479.5 583.5 c 0,59,60
 486 598 486 598 486 623 c 128,-1,49
 486 648 486 648 463 671.5 c 128,-1,50
EndSplineSet
EndChar

StartChar: uni0DF3
Encoding: 3571 3571 131
Width: 1082
Flags: W
LayerCount: 2
Back
Fore
SplineSet
516 843 m 128,-1,1
 497 865 497 865 474 865 c 128,-1,2
 451 865 451 865 427 857 c 1,3,-1
 335 945 l 1,4,5
 441.455445545 1137 441.455445545 1137 630 1137 c 0,6,7
 802.971830986 1137 802.971830986 1137 901 992 c 0,8,9
 999 841.872340426 999 841.872340426 999 572 c 0,10,11
 999 -22 999 -22 523 -22 c 0,12,13
 282.472527473 -22 282.472527473 -22 212.5 119.5 c 0,14,15
 190 165 190 165 190 222 c 0,16,17
 190 327 190 327 258 388.5 c 128,-1,18
 326 450 326 450 453 450 c 0,19,20
 584.333333333 450 584.333333333 450 707 358 c 0,21,22
 751 325 751 325 799 279 c 1,23,24
 844 386.608695652 844 386.608695652 844 584.804347826 c 128,-1,25
 844 783 844 783 783.5 893.5 c 128,-1,26
 723 1004 723 1004 614 1004 c 0,27,28
 547.952380952 1004 547.952380952 1004 505 963 c 1,29,30
 586 959 586 959 630.5 910.5 c 128,-1,31
 675 862 675 862 675 792 c 0,32,33
 675 667 675 667 597 597 c 0,34,35
 519.882352941 528 519.882352941 528 379 528 c 0,36,37
 227.705645161 524.070276498 227.705645161 524.070276498 139 617 c 0,38,39
 52.9611650485 705.087378641 52.9611650485 705.087378641 55 858 c 0,40,41
 55 1001.13888889 55 1001.13888889 128 1137 c 1,42,-1
 265 1096 l 1,43,44
 200 970.0625 200 970.0625 200 857 c 0,45,46
 200 660 200 660 380 660 c 0,47,48
 452 660 452 660 493.5 692.5 c 128,-1,49
 535 725 535 725 535 773 c 128,-1,0
 535 821 535 821 516 843 c 128,-1,1
336 223 m 0,50,51
 336 115 336 115 521 115 c 0,52,53
 651 115 651 115 721 171 c 1,54,55
 579 315 579 315 454 315 c 0,56,57
 396 315 396 315 366 290.5 c 128,-1,58
 336 266 336 266 336 223 c 0,50,51
EndSplineSet
EndChar

StartChar: uni0DF4
Encoding: 3572 3572 132
Width: 2586
Flags: W
LayerCount: 2
Back
Fore
SplineSet
912 541 m 1,0,1
 840.027139875 390.885177453 840.027139875 390.885177453 734 116 c 1,2,-1
 647 137 l 1,3,4
 644 158 644 158 622 257 c 1,5,-1
 611 310 l 1,6,7
 545 153 545 153 466 76.5 c 128,-1,8
 387 0 387 0 290 0 c 128,-1,9
 193 0 193 0 133 49.5 c 128,-1,10
 73 99 73 99 44 205 c 1,11,-1
 184 246 l 1,12,13
 193 197 193 197 220 168.5 c 128,-1,14
 247 140 247 140 279 140 c 0,15,16
 333.571428571 140 333.571428571 140 364.785714286 162 c 0,17,18
 419.608288986 200.639251734 419.608288986 200.639251734 454.804144493 265.819625867 c 0,19,20
 519.221072271 385.115474557 519.221072271 385.115474557 571 546 c 1,21,-1
 662 536 l 1,22,23
 684.381944444 405.777777778 684.381944444 405.777777778 704 343 c 1,24,25
 747.28 460.216666667 747.28 460.216666667 895 809 c 1,26,-1
 990 787 l 1,27,28
 1000.29780564 681.962382445 1000.29780564 681.962382445 1045 474 c 1,29,30
 1163.02493766 744.473815461 1163.02493766 744.473815461 1279 926 c 1,31,-1
 1377 903 l 1,32,33
 1378.9408284 809.840236686 1378.9408284 809.840236686 1399 525 c 1,34,35
 1559.14035088 763.20877193 1559.14035088 763.20877193 1658 868 c 1,36,-1
 1751 842 l 1,37,38
 1717.22201493 593.632462687 1717.22201493 593.632462687 1703 425 c 1,39,40
 1857.75675676 584.178378378 1857.75675676 584.178378378 1930 650 c 1,41,-1
 2013 620 l 1,42,43
 1971.52760736 464.478527607 1971.52760736 464.478527607 1943 280 c 1,44,45
 2005.42168675 351.879518072 2005.42168675 351.879518072 2090 428 c 1,46,-1
 2172 398 l 1,47,48
 2176.05751391 243.814471243 2176.05751391 243.814471243 2198.52875696 198.907235622 c 128,-1,49
 2221 154 2221 154 2245 139 c 128,-1,50
 2269 124 2269 124 2302 124 c 0,51,52
 2391 124 2391 124 2391 216 c 0,53,54
 2391 244 2391 244 2385 268 c 1,55,-1
 2524 291 l 1,56,57
 2534 251 2534 251 2534 201 c 0,58,59
 2534 50.6075949367 2534 50.6075949367 2402.5 4 c 0,60,61
 2363 -10 2363 -10 2311.5 -10 c 0,62,63
 2205 -10 2205 -10 2135 62 c 256,64,65
 2065.13011152 133.866171004 2065.13011152 133.866171004 2051 257 c 1,66,67
 1941.92436975 149.907563025 1941.92436975 149.907563025 1888 84 c 1,68,-1
 1792 116 l 1,69,70
 1827.23188406 346.043478261 1827.23188406 346.043478261 1841 408 c 1,71,72
 1713.91168091 282.897435897 1713.91168091 282.897435897 1652 211 c 1,73,-1
 1560 246 l 1,74,-1
 1593 627 l 1,75,76
 1475.33502538 464.969543147 1475.33502538 464.969543147 1373 291 c 1,77,-1
 1296 312 l 1,78,-1
 1268 671 l 1,79,80
 1138.45882353 400.141176471 1138.45882353 400.141176471 1075 220 c 1,81,-1
 978 248 l 1,82,-1
 944 404 l 2,83,84
 936 439 936 439 928 473 c 128,-1,85
 920 507 920 507 912 541 c 1,0,1
EndSplineSet
EndChar

StartChar: _84
Encoding: 65537 -1 133
Width: 1662
Flags: W
LayerCount: 2
Back
Fore
SplineSet
1357 998 m 0,0,1
 1357 1119 1357 1119 1200 1119 c 0,2,3
 1113 1119 1113 1119 1064 1069.5 c 128,-1,4
 1015 1020 1015 1020 1011 932 c 1,5,-1
 1029 932 l 2,6,7
 1302 932 1302 932 1445.5 808 c 128,-1,8
 1589 684 1589 684 1589 445 c 0,9,10
 1589 225 1589 225 1477 101 c 0,11,12
 1366.09836066 -22 1366.09836066 -22 1180 -22 c 0,13,14
 1068 -22 1068 -22 984.5 19.5 c 128,-1,15
 901 61 901 61 832 158 c 1,16,17
 756 56 756 56 674 16 c 0,18,19
 592 -22 592 -22 493.5 -22.5 c 0,20,21
 301.128852956 -23.4765032845 301.128852956 -23.4765032845 190 100 c 0,22,23
 73.0413625304 227.591240876 73.0413625304 227.591240876 74.0206812652 457.295620438 c 128,-1,24
 75 687 75 687 219 809.5 c 128,-1,25
 363 932 363 932 635 932 c 2,26,-1
 654 932 l 1,27,28
 649 1023 649 1023 599 1071 c 128,-1,29
 549 1119 549 1119 464 1119 c 0,30,31
 307 1119 307 1119 307 998 c 0,32,33
 307 979.75 307 979.75 316 937 c 1,34,-1
 172 914 l 1,35,36
 158 964 158 964 158 1016 c 0,37,38
 158 1131 158 1131 235 1192.5 c 128,-1,39
 312 1254 312 1254 466.5 1254 c 128,-1,40
 621 1254 621 1254 710 1158.5 c 128,-1,41
 799 1063 799 1063 799 880 c 2,42,-1
 799 797 l 1,43,-1
 751 797 l 2,44,45
 472.196078431 797 472.196078431 797 355 727.5 c 0,46,47
 225 650.406976744 225 650.406976744 225 446 c 0,48,49
 225 124 225 124 489 124 c 0,50,51
 628 124 628 124 695.5 194.5 c 128,-1,52
 763 265 763 265 763 425 c 2,53,-1
 763 439 l 1,54,-1
 901 439 l 1,55,-1
 901 425 l 2,56,57
 901 267 901 267 969 195.5 c 128,-1,58
 1037 124 1037 124 1175 124 c 0,59,60
 1439 124 1439 124 1439 446 c 0,61,62
 1439 592 1439 592 1381.5 665 c 128,-1,63
 1324 738 1324 738 1209.5 767.5 c 128,-1,64
 1095 797 1095 797 913 797 c 2,65,-1
 865 797 l 1,66,-1
 865 880 l 2,67,68
 865 1062 865 1062 954 1158 c 128,-1,69
 1043 1254 1043 1254 1196.5 1254 c 128,-1,70
 1350 1254 1350 1254 1428 1192 c 128,-1,71
 1506 1130 1506 1130 1506 1015 c 0,72,73
 1506 964 1506 964 1492 914 c 1,74,-1
 1348 937 l 1,75,76
 1357 971.2 1357 971.2 1357 998 c 0,0,1
EndSplineSet
EndChar

StartChar: uni0DCA_uni200D_uni0DBA
Encoding: 65538 -1 134
Width: 1384
Flags: W
LayerCount: 2
Back
Fore
SplineSet
67 914 m 1,0,1
 54 957.333333333 54 957.333333333 54 1014.66666667 c 0,2,3
 54 1127.13888889 54 1127.13888889 127 1190 c 0,4,5
 201 1254 201 1254 318 1254 c 0,6,7
 446 1254 446 1254 520 1176 c 0,8,9
 596 1100 596 1100 596 961 c 0,10,11
 596 800.818181818 596 800.818181818 514 648 c 0,12,13
 477.7 575.4 477.7 575.4 420.85 485.7 c 128,-1,14
 364 396 364 396 350 372 c 128,-1,15
 336 348 336 348 322 325 c 1,16,17
 346 323 346 323 370.5 346.5 c 128,-1,18
 395 370 395 370 420 360 c 0,19,20
 477.222222222 337.111111111 477.222222222 337.111111111 543.111111111 296.555555556 c 0,21,22
 662.712198685 222.939371804 662.712198685 222.939371804 716.856099343 207.969685902 c 0,23,24
 803.552126284 184 803.552126284 184 870.776063142 184 c 0,25,26
 1000 184 1000 184 1076 258 c 0,27,28
 1114 296 1114 296 1119.5 347.5 c 128,-1,29
 1125 399 1125 399 1127 471 c 0,30,31
 1130 583 1130 583 1016 660.5 c 128,-1,32
 902 738 902 738 653 738 c 1,33,-1
 653 862 l 2,34,35
 653 1053 653 1053 742 1153.5 c 128,-1,36
 831 1254 831 1254 985.5 1254 c 128,-1,37
 1140 1254 1140 1254 1212.5 1190 c 128,-1,38
 1285 1126 1285 1126 1285 1015 c 0,39,40
 1285 962.285714286 1285 962.285714286 1272 914 c 1,41,-1
 1127 937 l 1,42,43
 1137 967 1137 967 1137 998 c 0,44,45
 1137 1059 1137 1059 1094 1083 c 128,-1,46
 1051 1107 1051 1107 975 1112 c 0,47,48
 942 1114 942 1114 875 1068.5 c 128,-1,49
 808 1023 808 1023 799 932 c 1,50,51
 1043 905 1043 905 1172 774.5 c 128,-1,52
 1301 644 1301 644 1301 421 c 0,53,54
 1301 217 1301 217 1185 97 c 0,55,56
 1068.01694915 -22 1068.01694915 -22 878 -22 c 0,57,58
 687.074074074 -22 687.074074074 -22 553 68.5 c 0,59,60
 493 109 493 109 425 152 c 0,61,62
 401 167 401 167 380 148 c 128,-1,63
 359 129 359 129 339 135.5 c 128,-1,64
 319 142 319 142 298.5 165.5 c 128,-1,65
 278 189 278 189 254 189 c 1,66,67
 222.621169916 117.874651811 222.621169916 117.874651811 207 -11 c 1,68,-1
 47 19 l 1,69,70
 50.9741219963 146.171903882 50.9741219963 146.171903882 127 294 c 0,71,72
 146 329 146 329 170 384.5 c 128,-1,73
 194 440 194 440 234 505 c 256,74,75
 371.456221198 728.366359447 371.456221198 728.366359447 392.228110599 799.683179724 c 128,-1,76
 413 871 413 871 413 942.5 c 128,-1,77
 413 1014 413 1014 400.5 1052.5 c 128,-1,78
 388 1091 388 1091 328 1091 c 256,79,80
 206.75 1091 206.75 1091 210.5 971 c 0,81,82
 211 955 211 955 215 937 c 1,83,-1
 67 914 l 1,0,1
EndSplineSet
EndChar

StartChar: uni0DCA_uni200D_uni0DBB
Encoding: 65539 -1 135
Width: 0
Flags: W
LayerCount: 2
Back
Fore
SplineSet
-1323 -62 m 1,0,-1
 -1174 -69 l 1,1,2
 -1174 -187.529411765 -1174 -187.529411765 -1126 -244 c 0,3,4
 -1109 -264 -1109 -264 -1073 -290.5 c 128,-1,5
 -1037 -317 -1037 -317 -945.5 -334.5 c 128,-1,6
 -854 -352 -854 -352 -752.5 -352 c 0,7,8
 -577 -352 -577 -352 -503.5 -331.5 c 128,-1,9
 -430 -311 -430 -311 -393 -288 c 128,-1,10
 -356 -265 -356 -265 -330.5 -232.5 c 0,11,12
 -279 -166.862745098 -279 -166.862745098 -279 -33 c 1,13,-1
 -280 -18 l 1,14,-1
 -130 -9 l 1,15,-1
 -129 -29 l 1,16,17
 -129 -215.333333333 -129 -215.333333333 -199 -312 c 0,18,19
 -335.547619048 -497 -335.547619048 -497 -726 -497 c 0,20,21
 -1029.6875 -497 -1029.6875 -497 -1175 -404 c 0,22,23
 -1324 -305.337837838 -1324 -305.337837838 -1324 -100 c 2,24,-1
 -1324 -71 l 2,25,26
 -1324 -67 -1324 -67 -1323 -62 c 1,0,-1
EndSplineSet
EndChar

StartChar: _102
Encoding: 65541 -1 137
Width: 633
Flags: W
LayerCount: 2
Back
Fore
SplineSet
414 289 m 1,0,1
 370 287 370 287 313 287 c 2,2,-1
 32 287 l 1,3,-1
 32 425 l 1,4,-1
 553 425 l 1,5,-1
 603 289 l 1,6,7
 307.509516491 65.8103794775 307.509516491 65.8103794775 244.5 -97.5 c 0,8,9
 220 -161 220 -161 220 -241 c 0,10,11
 220 -415 220 -415 425 -415 c 0,12,13
 518 -415 518 -415 610 -373 c 1,14,-1
 657 -504 l 1,15,16
 537.346153846 -555 537.346153846 -555 410 -555 c 0,17,18
 67 -555 67 -555 67 -235 c 0,19,20
 67 38.2774566474 67 38.2774566474 414 289 c 1,0,1
EndSplineSet
EndChar

StartChar: _103
Encoding: 65542 -1 138
Width: 644
Flags: W
LayerCount: 2
Back
Fore
SplineSet
657 -504 m 1,0,1
 537.346153846 -555 537.346153846 -555 434.673076923 -555 c 0,2,3
 163.447916667 -555 163.447916667 -555 90.5 -406 c 0,4,5
 67 -358 67 -358 67 -296 c 0,6,7
 67 -94.6830985915 67 -94.6830985915 350 -5 c 1,8,9
 321.796610169 -9.33898305085 321.796610169 -9.33898305085 202 -19 c 1,10,-1
 132 -24 l 1,11,-1
 83 95 l 1,12,13
 203.476190476 179.333333333 203.476190476 179.333333333 387 289 c 1,14,15
 357 287 357 287 327 287 c 2,16,-1
 32 287 l 1,17,-1
 32 425 l 1,18,-1
 548 425 l 1,19,-1
 594 297 l 1,20,21
 486.245833333 214.715 486.245833333 214.715 255 82 c 1,22,23
 331 90 331 90 453 94 c 1,24,-1
 548 98 l 1,25,-1
 593 -27 l 1,26,27
 408 -71 408 -71 314 -129.5 c 128,-1,28
 220 -188 220 -188 220 -280 c 0,29,30
 220 -415 220 -415 403 -415 c 0,31,32
 522 -415 522 -415 610 -375 c 1,33,-1
 657 -504 l 1,0,1
EndSplineSet
EndChar

StartChar: _104
Encoding: 65543 -1 139
Width: 0
Flags: W
LayerCount: 2
Back
Fore
SplineSet
-1805 -77 m 1,0,-1
 -1656 -84 l 1,1,2
 -1656 -171 -1656 -171 -1623 -221.5 c 128,-1,3
 -1590 -272 -1590 -272 -1520 -304.5 c 0,4,5
 -1374.61538462 -372 -1374.61538462 -372 -1008 -372 c 0,6,7
 -664.853333333 -369.907642276 -664.853333333 -369.907642276 -514 -300 c 0,8,9
 -347.915381675 -223.96125908 -347.915381675 -223.96125908 -346 -42 c 1,10,-1
 -346 -26 l 1,11,-1
 -197 -16 l 1,12,-1
 -196 -36 l 1,13,14
 -196 -107 -196 -107 -204.5 -159 c 0,15,16
 -224.458454387 -281.098779779 -224.458454387 -281.098779779 -332 -366 c 0,17,18
 -514.458333333 -517 -514.458333333 -517 -1010 -517 c 0,19,20
 -1720.07446809 -517 -1720.07446809 -517 -1792.5 -221 c 0,21,22
 -1804 -174 -1804 -174 -1806 -117 c 1,23,-1
 -1806 -86 l 2,24,25
 -1806 -82 -1806 -82 -1805 -77 c 1,0,-1
EndSplineSet
EndChar

StartChar: _105
Encoding: 65544 -1 140
Width: 0
Flags: W
LayerCount: 2
Back
Fore
SplineSet
-1663 -63 m 1,0,-1
 -1514 -69 l 1,1,-1
 -1514 -79 l 2,2,3
 -1514 -161 -1514 -161 -1481.5 -211.5 c 128,-1,4
 -1449 -262 -1449 -262 -1379.5 -295 c 0,5,6
 -1238.39393939 -362 -1238.39393939 -362 -900 -362 c 0,7,8
 -554.769230769 -362 -554.769230769 -362 -416 -280 c 256,9,10
 -350 -241 -350 -241 -320 -183.5 c 128,-1,11
 -290 -126 -290 -126 -290 -36 c 2,12,-1
 -290 -21 l 1,13,-1
 -141 -11 l 1,14,15
 -140 -21 -140 -21 -140 -34 c 2,16,-1
 -140 -63 l 2,17,18
 -140 -309.918699187 -140 -309.918699187 -328.5 -408 c 0,19,20
 -524.49322096 -509.980212532 -524.49322096 -509.980212532 -900 -507 c 0,21,22
 -1350 -507 -1350 -507 -1519 -390 c 0,23,24
 -1598 -337 -1598 -337 -1631 -269 c 128,-1,25
 -1664 -201 -1664 -201 -1664 -103 c 2,26,-1
 -1664 -72 l 2,27,28
 -1664 -68 -1664 -68 -1663 -63 c 1,0,-1
EndSplineSet
EndChar

StartChar: _106
Encoding: 65545 -1 141
Width: 0
Flags: W
LayerCount: 2
Back
Fore
SplineSet
-1716 -12 m 1,0,-1
 -1567 -20 l 1,1,-1
 -1567 -30 l 2,2,3
 -1567 -170.947368421 -1567 -170.947368421 -1492 -242 c 0,4,5
 -1367.55555556 -362 -1367.55555556 -362 -928 -362 c 0,6,7
 -428.257142857 -362 -428.257142857 -362 -329 -169 c 0,8,9
 -292 -98.8947368421 -292 -98.8947368421 -292 16 c 2,10,-1
 -292 33 l 1,11,-1
 -143 44 l 1,12,-1
 -142 21 l 1,13,14
 -142 -55 -142 -55 -150 -115.5 c 0,15,16
 -168.02289282 -251.798126951 -168.02289282 -251.798126951 -274 -346 c 1,17,18
 -396.306319703 -462.034200743 -396.306319703 -462.034200743 -705 -496.5 c 0,19,20
 -808 -508 -808 -508 -965 -507 c 0,21,22
 -1523.53452685 -503.442455243 -1523.53452685 -503.442455243 -1666 -266 c 0,23,24
 -1717 -181 -1717 -181 -1717 -57 c 2,25,-1
 -1717 -22 l 2,26,27
 -1717 -17 -1717 -17 -1716 -12 c 1,0,-1
EndSplineSet
EndChar

StartChar: _107
Encoding: 65546 -1 142
Width: 0
Flags: W
LayerCount: 2
Back
Fore
SplineSet
-1556 -49 m 1,0,-1
 -1407 -55 l 1,1,-1
 -1407 -66 l 2,2,3
 -1407 -189 -1407 -189 -1347.5 -248.5 c 0,4,5
 -1326 -270 -1326 -270 -1279 -298 c 128,-1,6
 -1232 -326 -1232 -326 -1113.5 -344 c 128,-1,7
 -995 -362 -995 -362 -826.5 -362 c 0,8,9
 -501.725 -362 -501.725 -362 -371 -279 c 0,10,11
 -310 -239 -310 -239 -282.5 -181.5 c 128,-1,12
 -255 -124 -255 -124 -255 -34 c 2,13,-1
 -255 -25 l 1,14,-1
 -106 -16 l 1,15,-1
 -105 -36 l 1,16,17
 -105 -180.526315789 -105 -180.526315789 -141.5 -247.763157895 c 128,-1,18
 -178 -315 -178 -315 -229 -360 c 0,19,20
 -302 -428 -302 -428 -456 -468 c 128,-1,21
 -610 -508 -610 -508 -805.5 -506.5 c 0,22,23
 -1193.60229363 -503.522233041 -1193.60229363 -503.522233041 -1365 -416 c 0,24,25
 -1557 -316.903225806 -1557 -316.903225806 -1557 -90 c 2,26,-1
 -1557 -58.5 l 2,27,28
 -1557 -54 -1557 -54 -1556 -49 c 1,0,-1
EndSplineSet
EndChar

StartChar: _108
Encoding: 65547 -1 143
Width: 0
Flags: W
LayerCount: 2
Back
Fore
SplineSet
-1638 -57 m 1,0,-1
 -1489 -63 l 1,1,-1
 -1489 -69 l 2,2,3
 -1489 -151.857142857 -1489 -151.857142857 -1469 -189.928571429 c 0,4,5
 -1435.41166627 -253.866363854 -1435.41166627 -253.866363854 -1370.20583313 -289.933181927 c 0,6,7
 -1239.91496843 -362 -1239.91496843 -362 -894 -362 c 0,8,9
 -563.384615385 -362 -563.384615385 -362 -428 -282 c 256,10,11
 -362 -243 -362 -243 -332 -183.5 c 128,-1,12
 -302 -124 -302 -124 -302 -28 c 2,13,-1
 -302 -18 l 1,14,-1
 -153 -9 l 1,15,-1
 -152 -29 l 1,16,17
 -152 -164.555555556 -152 -164.555555556 -185.5 -239 c 0,18,19
 -199 -269 -199 -269 -223.5 -306 c 0,20,21
 -281.467153285 -393.542231491 -281.467153285 -393.542231491 -445 -450 c 0,22,23
 -627.346938776 -510.782312925 -627.346938776 -510.782312925 -849.173469388 -507.891156463 c 128,-1,24
 -1071 -505 -1071 -505 -1209.5 -484.5 c 128,-1,25
 -1348 -464 -1348 -464 -1443.5 -416.5 c 0,26,27
 -1639 -319.261780105 -1639 -319.261780105 -1639 -97 c 2,28,-1
 -1639 -66 l 2,29,30
 -1639 -62 -1639 -62 -1638 -57 c 1,0,-1
EndSplineSet
EndChar

StartChar: _110
Encoding: 65549 -1 145
Width: 0
Flags: W
LayerCount: 2
Back
Fore
SplineSet
-1554 -32 m 0,0,1
 -1554 -6 -1554 -6 -1552 14 c 1,2,-1
 -1404 6 l 1,3,-1
 -1404 -5 l 2,4,5
 -1404 -114 -1404 -114 -1379.5 -163 c 128,-1,6
 -1355 -212 -1355 -212 -1331 -235.5 c 128,-1,7
 -1307 -259 -1307 -259 -1259 -286.5 c 0,8,9
 -1144.67272727 -352 -1144.67272727 -352 -852 -352 c 0,10,11
 -566.6 -352 -566.6 -352 -438.5 -260.5 c 0,12,13
 -344.58190709 -193.415647922 -344.58190709 -193.415647922 -316.5 -67.5 c 0,14,15
 -301 2 -301 2 -301 95 c 2,16,-1
 -301 122 l 1,17,-1
 -154 133 l 1,18,19
 -151 100 -151 100 -151 30 c 128,-1,20
 -151 -40 -151 -40 -171.5 -124.5 c 0,21,22
 -228.749487812 -360.479596103 -228.749487812 -360.479596103 -468.5 -443.5 c 0,23,24
 -623 -497 -623 -497 -823.5 -497 c 0,25,26
 -1205.94642857 -497 -1205.94642857 -497 -1376 -390 c 0,27,28
 -1554 -276.727272727 -1554 -276.727272727 -1554 -32 c 0,0,1
EndSplineSet
EndChar

StartChar: _111
Encoding: 65550 -1 146
Width: 0
Flags: W
LayerCount: 2
Back
Fore
SplineSet
-1529 14 m 1,0,-1
 -1380 6 l 1,1,-1
 -1380 -5 l 2,2,3
 -1380 -151.558139535 -1380 -151.558139535 -1319.5 -220.5 c 0,4,5
 -1298 -245 -1298 -245 -1253 -277 c 128,-1,6
 -1208 -309 -1208 -309 -1094 -330.5 c 128,-1,7
 -980 -352 -980 -352 -820 -352 c 0,8,9
 -513.976744186 -352 -513.976744186 -352 -383 -264 c 0,10,11
 -320 -222 -320 -222 -289.5 -155 c 128,-1,12
 -259 -88 -259 -88 -259 26 c 2,13,-1
 -259 43 l 1,14,-1
 -110 54 l 1,15,16
 -109 50 -109 50 -109 40 c 2,17,-1
 -109 -8 l 2,18,19
 -109 -265.344444444 -109 -265.344444444 -290 -384 c 0,20,21
 -462.15305712 -494.943081255 -462.15305712 -494.943081255 -818 -497 c 1,22,23
 -1178.95481336 -492.827111984 -1178.95481336 -492.827111984 -1347 -392 c 256,24,25
 -1530 -282.2 -1530 -282.2 -1530 -32 c 2,26,-1
 -1530 3.5 l 2,27,28
 -1530 9 -1530 9 -1529 14 c 1,0,-1
EndSplineSet
EndChar

StartChar: _112
Encoding: 65551 -1 147
Width: 0
Flags: W
LayerCount: 2
Back
Fore
SplineSet
-1508 14 m 1,0,-1
 -1359 6 l 1,1,-1
 -1359 -5 l 2,2,3
 -1359 -113 -1359 -113 -1334.5 -162 c 128,-1,4
 -1310 -211 -1310 -211 -1286.5 -235 c 128,-1,5
 -1263 -259 -1263 -259 -1215.5 -286.5 c 0,6,7
 -1102.36363636 -352 -1102.36363636 -352 -808 -352 c 0,8,9
 -505 -352 -505 -352 -379 -262 c 0,10,11
 -317 -219 -317 -219 -288 -152 c 128,-1,12
 -259 -85 -259 -85 -259 26 c 2,13,-1
 -259 43 l 1,14,-1
 -110 54 l 1,15,16
 -109 50 -109 50 -109 40 c 2,17,-1
 -109 -8 l 2,18,19
 -109 -263 -109 -263 -284 -380 c 128,-1,20
 -459 -497 -459 -497 -808 -497 c 1,21,22
 -1163.80311396 -492.838560071 -1163.80311396 -492.838560071 -1330 -392 c 0,23,24
 -1509 -280.125 -1509 -280.125 -1509 -32 c 2,25,-1
 -1509 3.5 l 2,26,27
 -1509 9 -1509 9 -1508 14 c 1,0,-1
EndSplineSet
EndChar

StartChar: _113
Encoding: 65552 -1 148
Width: 0
Flags: W
LayerCount: 2
Back
Fore
SplineSet
-1590 -57 m 1,0,-1
 -1441 -63 l 1,1,-1
 -1441 -69 l 2,2,3
 -1441 -159 -1441 -159 -1409.5 -211 c 128,-1,4
 -1378 -263 -1378 -263 -1314.5 -295.5 c 0,5,6
 -1184.56923077 -362 -1184.56923077 -362 -871 -362 c 0,7,8
 -581.6 -362 -581.6 -362 -450.5 -293 c 0,9,10
 -349.91875 -240.0625 -349.91875 -240.0625 -320.5 -142 c 0,11,12
 -304 -87 -304 -87 -304 -12 c 2,13,-1
 -304 -1 l 1,14,-1
 -155 8 l 1,15,-1
 -154 -13 l 1,16,17
 -154 -168.387096774 -154 -168.387096774 -194.5 -252 c 0,18,19
 -318.015625 -507 -318.015625 -507 -871 -507 c 0,20,21
 -1224.23030303 -504.884848485 -1224.23030303 -504.884848485 -1398 -418 c 0,22,23
 -1591 -320.462365591 -1591 -320.462365591 -1591 -97 c 2,24,-1
 -1591 -66 l 2,25,26
 -1591 -62 -1591 -62 -1590 -57 c 1,0,-1
EndSplineSet
EndChar

StartChar: _117
Encoding: 65554 -1 150
Width: 0
Flags: W
LayerCount: 2
Back
Fore
SplineSet
-1511 2 m 1,0,-1
 -1362 -6 l 1,1,-1
 -1362 -16 l 2,2,3
 -1362 -113 -1362 -113 -1335 -172.5 c 128,-1,4
 -1308 -232 -1308 -232 -1249 -271 c 0,5,6
 -1126.46153846 -352 -1126.46153846 -352 -831 -352 c 0,7,8
 -559.560606061 -352 -559.560606061 -352 -435.5 -260 c 0,9,10
 -343.312172394 -191.635993011 -343.312172394 -191.635993011 -316 -66 c 0,11,12
 -301 3 -301 3 -301 95 c 2,13,-1
 -301 122 l 1,14,-1
 -152 132 l 1,15,-1
 -151 103 l 1,16,17
 -151 -88.3846153846 -151 -88.3846153846 -185 -174.692307692 c 128,-1,18
 -219 -261 -219 -261 -261 -307.5 c 0,19,20
 -432.161290323 -497 -432.161290323 -497 -831 -497 c 0,21,22
 -1169 -497 -1169 -497 -1340.5 -387.5 c 128,-1,23
 -1512 -278 -1512 -278 -1512 -43 c 2,24,-1
 -1512 -8 l 2,25,26
 -1512 -3 -1512 -3 -1511 2 c 1,0,-1
EndSplineSet
EndChar

StartChar: _118
Encoding: 65555 -1 151
Width: 0
Flags: W
LayerCount: 2
Back
Fore
SplineSet
-1618 -57 m 1,0,-1
 -1469 -63 l 1,1,-1
 -1469 -69 l 2,2,3
 -1469 -150 -1469 -150 -1443 -200.5 c 128,-1,4
 -1417 -251 -1417 -251 -1352.5 -288.5 c 0,5,6
 -1226.08 -362 -1226.08 -362 -884 -362 c 0,7,8
 -556.2 -362 -556.2 -362 -425 -280 c 0,9,10
 -361 -241 -361 -241 -331.5 -182 c 128,-1,11
 -302 -123 -302 -123 -302 -28 c 2,12,-1
 -302 -18 l 1,13,-1
 -153 -9 l 1,14,-1
 -152 -29 l 1,15,16
 -152 -163.555555556 -152 -163.555555556 -185.5 -238 c 0,17,18
 -199 -268 -199 -268 -224 -306 c 0,19,20
 -318.546649146 -449.710906702 -318.546649146 -449.710906702 -636 -493 c 0,21,22
 -746 -508 -746 -508 -901 -507 c 0,23,24
 -1246.59179416 -504.770375522 -1246.59179416 -504.770375522 -1424 -417 c 0,25,26
 -1619 -319.5 -1619 -319.5 -1619 -97 c 2,27,-1
 -1619 -66 l 2,28,29
 -1619 -62 -1619 -62 -1618 -57 c 1,0,-1
EndSplineSet
EndChar

StartChar: _119
Encoding: 65556 -1 152
Width: 0
Flags: W
LayerCount: 2
Back
Fore
SplineSet
-1638 -57 m 1,0,-1
 -1489 -63 l 1,1,-1
 -1489 -69 l 2,2,3
 -1489 -151.857142857 -1489 -151.857142857 -1469 -189.928571429 c 0,4,5
 -1435.41166627 -253.866363854 -1435.41166627 -253.866363854 -1370.20583313 -289.933181927 c 0,6,7
 -1239.91496843 -362 -1239.91496843 -362 -894 -362 c 0,8,9
 -557 -362 -557 -362 -425 -278 c 0,10,11
 -361 -237 -361 -237 -331.5 -175 c 128,-1,12
 -302 -113 -302 -113 -302 -11 c 2,13,-1
 -302 -1 l 1,14,-1
 -153 8 l 1,15,-1
 -152 -13 l 1,16,17
 -152 -156 -152 -156 -186 -232.5 c 0,18,19
 -225.997071742 -322.49341142 -225.997071742 -322.49341142 -294.498535871 -371.24670571 c 0,20,21
 -485.240506329 -507 -485.240506329 -507 -894 -507 c 1,22,23
 -1268.82096715 -502.764734835 -1268.82096715 -502.764734835 -1444 -417 c 0,24,25
 -1639 -318.473684211 -1639 -318.473684211 -1639 -97 c 2,26,-1
 -1639 -66 l 2,27,28
 -1639 -62 -1639 -62 -1638 -57 c 1,0,-1
EndSplineSet
EndChar

StartChar: _121
Encoding: 65558 -1 154
Width: 0
Flags: W
LayerCount: 2
Back
Fore
SplineSet
-1969 -109 m 2,0,-1
 -1969 -94.5 l 2,1,2
 -1969 -92 -1969 -92 -1968 -90 c 1,3,-1
 -1819 -97 l 1,4,5
 -1818 -148 -1818 -148 -1803 -189 c 0,6,7
 -1730.56931958 -386.977193148 -1730.56931958 -386.977193148 -1091 -382 c 1,8,9
 -511.264150943 -382 -511.264150943 -382 -399 -207 c 0,10,11
 -365 -154 -365 -154 -365 -78 c 2,12,-1
 -365 -74 l 1,13,-1
 -216 -66 l 1,14,-1
 -215 -78 l 1,15,16
 -215 -207.333333333 -215 -207.333333333 -256 -282.5 c 0,17,18
 -290.975609756 -346.62195122 -290.975609756 -346.62195122 -339.487804878 -380.31097561 c 128,-1,19
 -388 -414 -388 -414 -463 -447.5 c 128,-1,20
 -538 -481 -538 -481 -703 -504 c 128,-1,21
 -868 -527 -868 -527 -1084 -527 c 0,22,23
 -1534.5625 -527 -1534.5625 -527 -1743 -440 c 0,24,25
 -1857 -393 -1857 -393 -1913 -314.5 c 128,-1,26
 -1969 -236 -1969 -236 -1969 -109 c 2,0,-1
EndSplineSet
EndChar

StartChar: _123
Encoding: 65560 -1 156
Width: 0
Flags: W
LayerCount: 2
Back
Fore
SplineSet
-1731 -1 m 1,0,-1
 -1582 -9 l 1,1,-1
 -1582 -20 l 2,2,3
 -1582 -119 -1582 -119 -1548.5 -179 c 0,4,5
 -1446.325 -362 -1446.325 -362 -936 -362 c 0,6,7
 -585.476190476 -362 -585.476190476 -362 -436 -276 c 256,8,9
 -363 -234 -363 -234 -328.5 -169 c 128,-1,10
 -294 -104 -294 -104 -294 2 c 2,11,-1
 -294 19 l 1,12,-1
 -145 29 l 1,13,-1
 -144 6 l 1,14,15
 -144 -89 -144 -89 -156 -152 c 0,16,17
 -185.129770992 -304.93129771 -185.129770992 -304.93129771 -348 -398 c 0,18,19
 -531.685185185 -507 -531.685185185 -507 -936 -507 c 1,20,21
 -1345.21006481 -502.866565002 -1345.21006481 -502.866565002 -1532 -402 c 0,22,23
 -1732 -290.888888889 -1732 -290.888888889 -1732 -47 c 2,24,-1
 -1732 -11.5 l 2,25,26
 -1732 -6 -1732 -6 -1731 -1 c 1,0,-1
EndSplineSet
EndChar

StartChar: _124
Encoding: 65561 -1 157
Width: 0
Flags: W
LayerCount: 2
Back
Fore
SplineSet
-154 133 m 1,0,1
 -151 79 -151 79 -151 69 c 0,2,3
 -151 -232 -151 -232 -325 -366 c 0,4,5
 -487.878787879 -492.893939394 -487.878787879 -492.893939394 -836.939393939 -494.946969697 c 128,-1,6
 -1186 -497 -1186 -497 -1359.5 -386.5 c 128,-1,7
 -1533 -276 -1533 -276 -1533 -39 c 2,8,-1
 -1533 -8 l 2,9,10
 -1533 -3 -1533 -3 -1532 2 c 1,11,-1
 -1383 -6 l 1,12,-1
 -1383 -16 l 2,13,14
 -1383 -108 -1383 -108 -1357.5 -166 c 128,-1,15
 -1332 -224 -1332 -224 -1274.5 -265.5 c 0,16,17
 -1154.65060241 -352 -1154.65060241 -352 -841 -352 c 0,18,19
 -536.222222222 -352 -536.222222222 -352 -414 -242 c 0,20,21
 -355 -189 -355 -189 -328 -109.5 c 128,-1,22
 -301 -30 -301 -30 -301 95 c 2,23,-1
 -301 122 l 1,24,-1
 -154 133 l 1,0,1
EndSplineSet
EndChar

StartChar: uni0DAF_uni0DCA_uni200D_uni0DBB
Encoding: 65562 -1 158
Width: 1181
Flags: W
LayerCount: 2
Back
Fore
SplineSet
967 -172.5 m 128,-1,1
 991 -117 991 -117 991 -67.5 c 128,-1,2
 991 -18 991 -18 989.5 -7 c 128,-1,3
 988 4 988 4 988 7 c 128,-1,4
 988 10 988 10 987 12 c 0,5,6
 865 -22 865 -22 711 -22 c 0,7,8
 410.292307692 -22 410.292307692 -22 241 109 c 0,9,10
 74 241.795180723 74 241.795180723 74 477 c 0,11,12
 74 714.813186813 74 714.813186813 261 834 c 0,13,14
 353 894 353 894 469 912 c 0,15,16
 589 932 589 932 770 932 c 2,17,-1
 974 932 l 1,18,19
 969 1020 969 1020 918.5 1069.5 c 128,-1,20
 868 1119 868 1119 782.5 1119 c 128,-1,21
 697 1119 697 1119 656.5 1088.5 c 128,-1,22
 616 1058 616 1058 616 1007 c 0,23,24
 616 989 616 989 618 977 c 1,25,-1
 471 959 l 1,26,27
 467 987 467 987 467 1021 c 0,28,29
 467 1133 467 1133 545.5 1193.5 c 128,-1,30
 624 1254 624 1254 781.5 1254 c 128,-1,31
 939 1254 939 1254 1029.5 1158.5 c 128,-1,32
 1120 1063 1120 1063 1120 880 c 2,33,-1
 1120 797 l 1,34,-1
 787 797 l 2,35,36
 529.103448276 797 529.103448276 797 421.5 757.5 c 0,37,38
 229 686.835443038 229 686.835443038 229 468 c 0,39,40
 229 310.746031746 229 310.746031746 356 216 c 0,41,42
 484 124 484 124 711.5 124 c 128,-1,43
 939 124 939 124 1123 212 c 1,44,-1
 1166 75 l 1,45,-1
 1132 58 l 1,46,47
 1141 18.4 1141 18.4 1141 -67.3 c 0,48,49
 1141 -252.169230769 1141 -252.169230769 1010 -361 c 0,50,51
 876.320754717 -470 876.320754717 -470 619.660377358 -470 c 128,-1,52
 363 -470 363 -470 232.5 -367.5 c 128,-1,53
 102 -265 102 -265 102 -73 c 2,54,-1
 102 -46 l 2,55,56
 102 -41 102 -41 103 -36 c 1,57,-1
 252 -43 l 1,58,-1
 252 -50 l 2,59,60
 252 -197.717391304 252 -197.717391304 343 -263 c 0,61,62
 430.1875 -325 430.1875 -325 620 -325 c 128,-1,63
 809.911764706 -325 809.911764706 -325 897 -262 c 0,64,0
 943 -228 943 -228 967 -172.5 c 128,-1,1
EndSplineSet
EndChar

StartChar: _126
Encoding: 65563 -1 159
Width: 0
Flags: W
LayerCount: 2
Back
Fore
SplineSet
-1618 -57 m 1,0,-1
 -1469 -63 l 1,1,-1
 -1469 -69 l 2,2,3
 -1469 -150 -1469 -150 -1443 -200.5 c 128,-1,4
 -1417 -251 -1417 -251 -1352.5 -288.5 c 0,5,6
 -1226.08 -362 -1226.08 -362 -884 -362 c 0,7,8
 -491.722222222 -362 -491.722222222 -362 -368 -231 c 0,9,10
 -302 -161 -302 -161 -302 -12 c 2,11,-1
 -302 -1 l 1,12,-1
 -153 8 l 1,13,-1
 -152 -13 l 1,14,15
 -152 -155.333333333 -152 -155.333333333 -185.5 -233.5 c 0,16,17
 -223.595463138 -322.389413989 -223.595463138 -322.389413989 -291.797731569 -371.194706994 c 128,-1,18
 -360 -420 -360 -420 -441.5 -448 c 0,19,20
 -613.232142857 -507 -613.232142857 -507 -834.616071429 -506.5 c 128,-1,21
 -1056 -506 -1056 -506 -1192.5 -485 c 128,-1,22
 -1329 -464 -1329 -464 -1423.5 -417 c 0,23,24
 -1619 -319.767195767 -1619 -319.767195767 -1619 -97 c 2,25,-1
 -1619 -66 l 2,26,27
 -1619 -62 -1619 -62 -1618 -57 c 1,0,-1
EndSplineSet
EndChar

StartChar: _127
Encoding: 65564 -1 160
Width: 0
Flags: W
LayerCount: 2
Back
Fore
SplineSet
-1761 -1 m 1,0,-1
 -1612 -9 l 1,1,-1
 -1612 -20 l 2,2,3
 -1612 -115.066666667 -1612 -115.066666667 -1589.5 -160.033333333 c 0,4,5
 -1552.57314839 -233.832330106 -1552.57314839 -233.832330106 -1482 -275 c 0,6,7
 -1346.66666667 -362 -1346.66666667 -362 -951 -362 c 0,8,9
 -430.529411765 -362 -430.529411765 -362 -331 -174 c 0,10,11
 -294 -107.789473684 -294 -107.789473684 -294 2 c 2,12,-1
 -294 19 l 1,13,-1
 -145 29 l 1,14,-1
 -144 7 l 1,15,16
 -144 -75.25 -144 -75.25 -151.5 -129.125 c 0,17,18
 -169.104201681 -255.581848739 -169.104201681 -255.581848739 -275 -348 c 0,19,20
 -401.126205083 -464.424189308 -401.126205083 -464.424189308 -718 -497 c 0,21,22
 -825 -508 -825 -508 -985.5 -506.5 c 0,23,24
 -1362.03809524 -502.980952381 -1362.03809524 -502.980952381 -1552 -408 c 0,25,26
 -1762 -299.941747573 -1762 -299.941747573 -1762 -47 c 2,27,-1
 -1762 -11.5 l 2,28,29
 -1762 -6 -1762 -6 -1761 -1 c 1,0,-1
EndSplineSet
EndChar

StartChar: uni0DB3_uni0DCA_uni200D_uni0DBB
Encoding: 65565 -1 161
Width: 1400
Flags: W
LayerCount: 2
Back
Fore
SplineSet
321 -73 m 2,0,-1
 321 -46 l 2,1,2
 321 -41 321 -41 322 -36 c 1,3,-1
 471 -43 l 1,4,-1
 471 -50 l 2,5,6
 471 -197.717391304 471 -197.717391304 562 -263 c 0,7,8
 649.1875 -325 649.1875 -325 839 -325 c 128,-1,9
 1028.91176471 -325 1028.91176471 -325 1116 -262 c 0,10,11
 1210 -192.52173913 1210 -192.52173913 1210 -35 c 0,12,13
 1210 -27 1210 -27 1206 11 c 1,14,15
 1097.29411765 -22 1097.29411765 -22 949.647058824 -22 c 0,16,17
 662.246153846 -22 662.246153846 -22 499 109 c 0,18,19
 339 239 339 239 339 477 c 0,20,21
 339 754.173913043 339 754.173913043 577 868 c 0,22,23
 670.695410292 912.810848401 670.695410292 912.810848401 780.347705146 922.4054242 c 128,-1,24
 890 932 890 932 998 932 c 2,25,-1
 1193 932 l 1,26,27
 1188 1022 1188 1022 1136 1070.5 c 128,-1,28
 1084 1119 1084 1119 999 1119 c 128,-1,29
 914 1119 914 1119 874 1088.5 c 128,-1,30
 834 1058 834 1058 834 1007 c 0,31,32
 834 989 834 989 836 977 c 1,33,-1
 690 959 l 1,34,35
 685 996.5 685 996.5 685 1009 c 0,36,37
 685 1080 685 1080 711 1124 c 1,38,39
 479 1124 479 1124 351 996 c 0,40,41
 224 869 224 869 224 643.865384615 c 128,-1,42
 224 418.730769231 224 418.730769231 329 237 c 1,43,-1
 192 170 l 1,44,45
 74 383.228070175 74 383.228070175 74 645 c 0,46,47
 74 930 74 930 242 1090.5 c 0,48,49
 413.140186916 1254 413.140186916 1254 702 1254 c 0,50,51
 804.6 1254 804.6 1254 875 1243 c 1,52,53
 917.166666667 1254 917.166666667 1254 986 1254 c 0,54,55
 1156 1254 1156 1254 1247 1159.5 c 128,-1,56
 1338 1065 1338 1065 1338 880 c 2,57,-1
 1338 797 l 1,58,-1
 1023 797 l 2,59,60
 841.888888889 797 841.888888889 797 776.444444444 784.5 c 0,61,62
 575.916283022 746.198780713 575.916283022 746.198780713 520.5 615.5 c 0,63,64
 494 553 494 553 494 471 c 0,65,66
 494 310 494 310 614 216 c 0,67,68
 736 124 736 124 951 124 c 128,-1,69
 1166 124 1166 124 1342 212 c 1,70,-1
 1384 75 l 1,71,72
 1371 68 1371 68 1351 58 c 1,73,74
 1360 18.4 1360 18.4 1360 -67.3 c 0,75,76
 1360 -252.169230769 1360 -252.169230769 1229 -361 c 0,77,78
 1095.32075472 -470 1095.32075472 -470 838.660377358 -470 c 128,-1,79
 582 -470 582 -470 451.5 -367.5 c 128,-1,80
 321 -265 321 -265 321 -73 c 2,0,-1
EndSplineSet
EndChar

StartChar: _131
Encoding: 65568 -1 164
Width: 0
Flags: W
LayerCount: 2
Back
Fore
SplineSet
-1638 -63 m 1,0,-1
 -1489 -69 l 1,1,-1
 -1489 -79 l 2,2,3
 -1489 -161 -1489 -161 -1457.5 -211 c 128,-1,4
 -1426 -261 -1426 -261 -1359 -293.5 c 0,5,6
 -1217.78461538 -362 -1217.78461538 -362 -885 -362 c 0,7,8
 -548.731707317 -362 -548.731707317 -362 -418 -282 c 0,9,10
 -317.029182219 -220.805564981 -317.029182219 -220.805564981 -295 -84.5 c 0,11,12
 -287 -35 -287 -35 -287 27 c 2,13,-1
 -287 44 l 1,14,-1
 -138 56 l 1,15,-1
 -137 31 l 1,16,17
 -137 -135.884615385 -137 -135.884615385 -167 -215.5 c 0,18,19
 -203.112202493 -311.336229694 -203.112202493 -311.336229694 -270.556101247 -363.168114847 c 0,20,21
 -457.710843373 -507 -457.710843373 -507 -885 -507 c 0,22,23
 -1312.92592593 -507 -1312.92592593 -507 -1483 -395 c 0,24,25
 -1565 -343 -1565 -343 -1602 -272.5 c 128,-1,26
 -1639 -202 -1639 -202 -1639 -102 c 2,27,-1
 -1639 -72 l 2,28,29
 -1639 -68 -1639 -68 -1638 -63 c 1,0,-1
EndSplineSet
EndChar

StartChar: _132
Encoding: 65569 -1 165
Width: 0
Flags: W
LayerCount: 2
Back
Fore
SplineSet
-1818 -25 m 1,0,-1
 -1669 -32 l 1,1,-1
 -1669 -43 l 2,2,3
 -1669 -120 -1669 -120 -1650.5 -165.5 c 128,-1,4
 -1632 -211 -1632 -211 -1598.5 -241.5 c 0,5,6
 -1533.51807229 -300.662650602 -1533.51807229 -300.662650602 -1429.25903614 -323.331325301 c 0,7,8
 -1251.41190539 -362 -1251.41190539 -362 -1049.2059527 -362 c 0,9,10
 -687 -362 -687 -362 -535 -304 c 0,11,12
 -421.65077233 -258.262592344 -421.65077233 -258.262592344 -380 -192 c 0,13,14
 -337 -126.565217391 -337 -126.565217391 -337 -7 c 2,15,-1
 -337 9 l 1,16,-1
 -188 19 l 1,17,-1
 -187 -3 l 1,18,19
 -187 -150.714285714 -187 -150.714285714 -221 -226 c 0,20,21
 -235 -257 -235 -257 -261 -296 c 0,22,23
 -401.666666667 -507 -401.666666667 -507 -1001 -507 c 0,24,25
 -1644.49677419 -507 -1644.49677419 -507 -1777 -262.5 c 0,26,27
 -1819 -185 -1819 -185 -1819 -69 c 2,28,-1
 -1819 -35 l 2,29,30
 -1819 -30 -1819 -30 -1818 -25 c 1,0,-1
EndSplineSet
EndChar

StartChar: _133
Encoding: 65570 -1 166
Width: 0
Flags: W
LayerCount: 2
Back
Fore
SplineSet
-153 130 m 1,0,1
 -150 79 -150 79 -150 38.5 c 0,2,3
 -150 -279.945945946 -150 -279.945945946 -394.5 -405.5 c 0,4,5
 -572.684210526 -497 -572.684210526 -497 -891 -497 c 0,6,7
 -1387.33333333 -497 -1387.33333333 -497 -1545 -310 c 256,8,9
 -1632 -206.813953488 -1632 -206.813953488 -1632 -32 c 2,10,-1
 -1632 3.5 l 2,11,12
 -1632 9 -1632 9 -1631 14 c 1,13,-1
 -1482 6 l 1,14,-1
 -1482 -5 l 2,15,16
 -1482 -138.756756757 -1482 -138.756756757 -1431.5 -207 c 0,17,18
 -1369.78456302 -290.399239163 -1369.78456302 -290.399239163 -1230.89228151 -321.199619582 c 128,-1,19
 -1092 -352 -1092 -352 -919 -352 c 0,20,21
 -611.636363636 -352 -611.636363636 -352 -478 -282 c 1,22,23
 -382.310693642 -225.834537572 -382.310693642 -225.834537572 -343 -149 c 0,24,25
 -300 -63 -300 -63 -300 97 c 2,26,-1
 -300 120 l 1,27,-1
 -153 130 l 1,0,1
EndSplineSet
EndChar

StartChar: _134
Encoding: 65571 -1 167
Width: 0
Flags: W
LayerCount: 2
Back
Fore
SplineSet
-1687 -2 m 1,0,-1
 -1538 -10 l 1,1,-1
 -1538 -22 l 2,2,3
 -1538 -126 -1538 -126 -1504.5 -185.5 c 128,-1,4
 -1471 -245 -1471 -245 -1402.5 -283 c 0,5,6
 -1260.09210526 -362 -1260.09210526 -362 -919 -362 c 0,7,8
 -521.038461538 -362 -521.038461538 -362 -389.5 -242 c 0,9,10
 -331.272348309 -188.880037054 -331.272348309 -188.880037054 -317.136174155 -122.440018527 c 128,-1,11
 -303 -56 -303 -56 -303 5 c 1,12,-1
 -304 21 l 1,13,-1
 -154 32 l 1,14,-1
 -153 10 l 1,15,16
 -153 -138.571428571 -153 -138.571428571 -187 -217.5 c 0,17,18
 -201 -250 -201 -250 -226.5 -291.5 c 0,19,20
 -320.224528302 -444.032075472 -320.224528302 -444.032075472 -659.5 -492.5 c 0,21,22
 -775 -509 -775 -509 -941.5 -507.5 c 0,23,24
 -1503.01582015 -502.441298918 -1503.01582015 -502.441298918 -1639 -261 c 0,25,26
 -1688 -174 -1688 -174 -1688 -47 c 2,27,-1
 -1688 -12.5 l 2,28,29
 -1688 -7 -1688 -7 -1687 -2 c 1,0,-1
EndSplineSet
EndChar

StartChar: _135
Encoding: 65572 -1 168
Width: 0
Flags: W
LayerCount: 2
Back
Fore
SplineSet
-1552 -90 m 2,0,-1
 -1552 -58.5 l 2,1,2
 -1552 -54 -1552 -54 -1551 -49 c 1,3,-1
 -1402 -55 l 1,4,-1
 -1402 -61 l 2,5,6
 -1402 -155 -1402 -155 -1369 -209 c 128,-1,7
 -1336 -263 -1336 -263 -1269 -295.5 c 0,8,9
 -1131.90769231 -362 -1131.90769231 -362 -820 -362 c 0,10,11
 -497.5 -362 -497.5 -362 -370 -277 c 0,12,13
 -309 -236 -309 -236 -282 -178.5 c 128,-1,14
 -255 -121 -255 -121 -255 -34 c 2,15,-1
 -255 -25 l 1,16,-1
 -106 -16 l 1,17,-1
 -105 -36 l 1,18,19
 -105 -176.711864407 -105 -176.711864407 -142.5 -245.355932203 c 128,-1,20
 -180 -314 -180 -314 -224 -353.5 c 0,21,22
 -349.216897856 -465.910624212 -349.216897856 -465.910624212 -626 -497.5 c 0,23,24
 -718 -508 -718 -508 -862 -507.5 c 0,25,26
 -1375.92332592 -505.715544007 -1375.92332592 -505.715544007 -1506.5 -279 c 0,27,28
 -1552 -200 -1552 -200 -1552 -90 c 2,0,-1
EndSplineSet
EndChar

StartChar: uni0DBD_uni0DCA_uni200D_uni0DBB
Encoding: 65573 -1 169
Width: 1744
Flags: W
LayerCount: 2
Back
Fore
SplineSet
912 -40 m 0,0,1
 1524 -40 1524 -40 1524 321 c 2,2,-1
 1524 335 l 1,3,-1
 1671 345 l 1,4,-1
 1674 323 l 2,5,6
 1675 319 1675 319 1675 315 c 2,7,-1
 1675 306 l 2,8,9
 1675 72.5563909774 1675 72.5563909774 1471.5 -57.5 c 0,10,11
 1267.30588235 -188 1267.30588235 -188 915 -188 c 0,12,13
 504.351642158 -189.946200748 504.351642158 -189.946200748 283 4 c 256,14,15
 71.8963485023 188.967008931 71.8963485023 188.967008931 76 507 c 0,16,17
 76 732.444444444 76 732.444444444 185 902 c 0,18,19
 291.725613593 1069.9940214 291.725613593 1069.9940214 502 1163 c 256,20,21
 707.739130435 1254 707.739130435 1254 1013.36956522 1254 c 128,-1,22
 1319 1254 1319 1254 1489 1129.5 c 128,-1,23
 1659 1005 1659 1005 1659 776 c 0,24,25
 1659 602.120689655 1659 602.120689655 1544 501 c 0,26,27
 1426.84 400 1426.84 400 1222 400 c 0,28,29
 867 400 867 400 867 681 c 0,30,31
 867 710.2 867 710.2 878 752 c 1,32,-1
 568 752 l 1,33,-1
 568 889 l 1,34,-1
 1332 889 l 1,35,-1
 1332 752 l 1,36,-1
 1033 752 l 1,37,38
 1017 724 1017 724 1017 684 c 0,39,40
 1017 541 1017 541 1220 541 c 0,41,42
 1360 541 1360 541 1432.5 601.5 c 128,-1,43
 1505 662 1505 662 1505 774 c 0,44,45
 1505 948 1505 948 1377.5 1031 c 128,-1,46
 1250 1114 1250 1114 991 1114 c 0,47,48
 622 1114 622 1114 426 954 c 256,49,50
 230 794 230 794 230 505 c 0,51,52
 230 244 230 244 408 102 c 256,53,54
 586 -40 586 -40 912 -40 c 0,0,1
137 -74 m 1,55,-1
 286 -81 l 1,56,-1
 286 -91 l 2,57,58
 286 -180.071428571 286 -180.071428571 306.5 -222.035714286 c 0,59,60
 340.00949464 -290.63093415 340.00949464 -290.63093415 404.50474732 -331.315467075 c 0,61,62
 529.239590469 -410 529.239590469 -410 857.619795235 -410 c 128,-1,63
 1186 -410 1186 -410 1339 -328.5 c 128,-1,64
 1492 -247 1492 -247 1492 -75 c 2,65,-1
 1492 -58 l 1,66,-1
 1640 -51 l 1,67,-1
 1641 -71 l 1,68,69
 1641 -156.166666667 1641 -156.166666667 1627.5 -214.583333333 c 0,70,71
 1593.85587765 -360.166850436 1593.85587765 -360.166850436 1430 -451 c 0,72,73
 1240.35294118 -555 1240.35294118 -555 879 -555 c 1,74,75
 499.002224199 -550.777802491 499.002224199 -550.777802491 328 -458 c 0,76,77
 136 -354.926315789 136 -354.926315789 136 -117 c 2,78,-1
 136 -83.5 l 2,79,80
 136 -79 136 -79 137 -74 c 1,55,-1
EndSplineSet
EndChar

StartChar: _138
Encoding: 65575 -1 171
Width: 0
Flags: W
LayerCount: 2
Back
Fore
SplineSet
-1736 -12 m 1,0,-1
 -1587 -20 l 1,1,-1
 -1587 -30 l 2,2,3
 -1587 -170.947368421 -1587 -170.947368421 -1512 -242 c 0,4,5
 -1387.55555556 -362 -1387.55555556 -362 -948 -362 c 0,6,7
 -536 -362 -536 -362 -402 -228 c 0,8,9
 -312 -138 -312 -138 -312 51 c 2,10,-1
 -312 70 l 1,11,-1
 -163 82 l 1,12,-1
 -162 58 l 1,13,14
 -162 -105.862068966 -162 -105.862068966 -197.5 -194 c 0,15,16
 -212 -230 -212 -230 -238.5 -274.5 c 128,-1,17
 -265 -319 -265 -319 -324.5 -364 c 128,-1,18
 -384 -409 -384 -409 -472.5 -441 c 0,19,20
 -660.335072108 -508.917766186 -660.335072108 -508.917766186 -902.167536054 -506.958883093 c 128,-1,21
 -1144 -505 -1144 -505 -1291.5 -481.5 c 128,-1,22
 -1439 -458 -1439 -458 -1538 -405.5 c 0,23,24
 -1737 -299.96969697 -1737 -299.96969697 -1737 -57 c 2,25,-1
 -1737 -22 l 2,26,27
 -1737 -17 -1737 -17 -1736 -12 c 1,0,-1
EndSplineSet
EndChar

StartChar: _141
Encoding: 65578 -1 174
Width: 0
Flags: W
LayerCount: 2
Back
Fore
SplineSet
-1798 -25 m 1,0,-1
 -1649 -32 l 1,1,-1
 -1649 -43 l 2,2,3
 -1649 -153.357142857 -1649 -153.357142857 -1608 -209 c 0,4,5
 -1568.38851351 -262.758445946 -1568.38851351 -262.758445946 -1510.19425676 -289.379222973 c 0,6,7
 -1403.333039 -338.26254599 -1403.333039 -338.26254599 -1260.1665195 -350.131272995 c 128,-1,8
 -1117 -362 -1117 -362 -946 -362 c 128,-1,9
 -775 -362 -775 -362 -643.5 -335.5 c 128,-1,10
 -512 -309 -512 -309 -465 -274.5 c 0,11,12
 -386.520020801 -216.892355694 -386.520020801 -216.892355694 -361 -158 c 0,13,14
 -337 -100 -337 -100 -337 -7 c 2,15,-1
 -337 9 l 1,16,-1
 -188 19 l 1,17,-1
 -187 -3 l 1,18,19
 -187 -148.333333333 -187 -148.333333333 -220.5 -226.5 c 0,20,21
 -259.687821612 -317.938250429 -259.687821612 -317.938250429 -331.843910806 -367.469125214 c 128,-1,22
 -404 -417 -404 -417 -493.5 -446 c 0,23,24
 -681.75862069 -507 -681.75862069 -507 -991 -507 c 0,25,26
 -1602.53703704 -507 -1602.53703704 -507 -1747.5 -279 c 0,27,28
 -1799 -198 -1799 -198 -1799 -69 c 2,29,-1
 -1799 -35 l 2,30,31
 -1799 -30 -1799 -30 -1798 -25 c 1,0,-1
EndSplineSet
EndChar

StartChar: uni0DC5_uni0DCA_uni200D_uni0DBB
Encoding: 65579 -1 175
Width: 1932
Flags: W
LayerCount: 2
Back
Fore
SplineSet
1390.85294118 1206 m 128,-1,1
 1445 1206 1445 1206 1479.5 1229.5 c 128,-1,2
 1514 1253 1514 1253 1542 1302 c 1,3,4
 1436 1428 1436 1428 1256 1516 c 1,5,6
 1278.95819936 1468.17041801 1278.95819936 1468.17041801 1281.97909968 1389.585209 c 0,7,8
 1286.6129324 1269.04143923 1286.6129324 1269.04143923 1311.65940738 1237.52071961 c 128,-1,0
 1336.70588235 1206 1336.70588235 1206 1390.85294118 1206 c 128,-1,1
1384 1071 m 0,9,10
 1142 1071 1142 1071 1142 1359 c 0,11,12
 1142 1522.5 1142 1522.5 1118 1557.5 c 0,13,14
 1103.6416185 1578.43930636 1103.6416185 1578.43930636 1079 1589 c 1,15,-1
 1130 1713 l 1,16,17
 1488 1599 1488 1599 1672 1367 c 1,18,19
 1859 1138.22340426 1859 1138.22340426 1859 818 c 0,20,21
 1859 565 1859 565 1759 372.5 c 128,-1,22
 1659 180 1659 180 1467.5 79 c 128,-1,23
 1276 -22 1276 -22 1005 -22 c 0,24,25
 698.571689832 -23.9769568398 698.571689832 -23.9769568398 518 123 c 256,26,27
 338.995109105 268.70165538 338.995109105 268.70165538 343 513 c 0,28,29
 343 703.219178082 343 703.219178082 490 818 c 0,30,31
 638 932 638 932 901 932 c 2,32,-1
 1024 932 l 1,33,34
 1019 1023 1019 1023 969.5 1071 c 128,-1,35
 920 1119 920 1119 835 1119 c 0,36,37
 678 1119 678 1119 678 998 c 0,38,39
 678 985 678 985 683 955 c 1,40,-1
 538 931 l 1,41,42
 529 987.25 529 987.25 529 1013.625 c 0,43,44
 529 1064 529 1064 545 1104 c 1,45,46
 388 1062 388 1062 306 941.5 c 128,-1,47
 224 821 224 821 224 613.723214286 c 128,-1,48
 224 406.446428571 224 406.446428571 337 243 c 1,49,-1
 203 170 l 1,50,51
 74 385 74 385 74 646 c 0,52,53
 74 930.109090909 74 930.109090909 242 1092 c 128,-1,54
 410.113207547 1254 410.113207547 1254 702 1254 c 0,55,56
 726 1254 726 1254 760 1250 c 1,57,58
 800 1254 800 1254 823 1254 c 0,59,60
 990 1254 990 1254 1080 1159.5 c 128,-1,61
 1170 1065 1170 1065 1170 880 c 2,62,-1
 1170 797 l 1,63,-1
 945 797 l 2,64,65
 633.616 797 633.616 797 539.5 670.5 c 0,66,67
 493 608 493 608 493 514.5 c 0,68,69
 493 331 493 331 629 227 c 0,70,71
 766.333333333 124 766.333333333 124 1005 124 c 0,72,73
 1452.44444444 124 1452.44444444 124 1622 451 c 0,74,75
 1705 613.047619048 1705 613.047619048 1705 827 c 0,76,77
 1705 1034.79545455 1705 1034.79545455 1618 1191 c 1,78,79
 1527.47368421 1071 1527.47368421 1071 1384 1071 c 0,9,10
378 -32 m 0,80,81
 378 -6 378 -6 380 14 c 1,82,-1
 528 6 l 1,83,-1
 528 -5 l 2,84,85
 528 -115.941176471 528 -115.941176471 552.5 -163.970588235 c 128,-1,86
 577 -212 577 -212 601 -235.5 c 128,-1,87
 625 -259 625 -259 673 -286.5 c 0,88,89
 787.327272727 -352 787.327272727 -352 1080 -352 c 0,90,91
 1391.88888889 -352 1391.88888889 -352 1513 -243 c 0,92,93
 1574.60714286 -189.607142857 1574.60714286 -189.607142857 1595.80357143 -130.303571429 c 0,94,95
 1631 -31.8306655434 1631 -31.8306655434 1631 95 c 2,96,-1
 1631 122 l 1,97,-1
 1778 133 l 1,98,99
 1781 116.5 1781 116.5 1781 38.75 c 128,-1,100
 1781 -39 1781 -39 1760.5 -123 c 0,101,102
 1703.52585002 -356.455053563 1703.52585002 -356.455053563 1464 -442 c 0,103,104
 1310 -497 1310 -497 1109 -497 c 0,105,106
 725.142857143 -497 725.142857143 -497 557 -390 c 0,107,108
 378 -277.370786517 378 -277.370786517 378 -32 c 0,80,81
EndSplineSet
EndChar

StartChar: uni0DCA_uni200D_uni0DBB.psts
Encoding: 65580 -1 176
Width: 0
Flags: W
LayerCount: 2
Back
Fore
SplineSet
-1594 -16 m 1,0,-1
 -1445 -23 l 1,1,-1
 -1445 -34 l 2,2,3
 -1445 -178 -1445 -178 -1374.5 -245.5 c 0,4,5
 -1351 -268 -1351 -268 -1303 -295.5 c 0,6,7
 -1186.92727273 -362 -1186.92727273 -362 -863 -362 c 0,8,9
 -403.5 -362 -403.5 -362 -317 -189 c 0,10,11
 -283 -123 -283 -123 -283 -14 c 2,12,-1
 -283 1 l 1,13,-1
 -134 11 l 1,14,-1
 -133 -10 l 1,15,16
 -133 -168.757575758 -133 -168.757575758 -174.5 -250.5 c 0,17,18
 -304.723076923 -507 -304.723076923 -507 -863 -507 c 1,19,20
 -1240.72423398 -502.871866295 -1240.72423398 -502.871866295 -1412 -405 c 0,21,22
 -1595 -298.417582418 -1595 -298.417582418 -1595 -60 c 2,23,-1
 -1595 -26 l 2,24,25
 -1595 -21 -1595 -21 -1594 -16 c 1,0,-1
EndSplineSet
EndChar

StartChar: _144
Encoding: 65581 -1 177
Width: 0
Flags: W
LayerCount: 2
Back
Fore
SplineSet
-154 133 m 1,0,1
 -151 79 -151 79 -151 20.5 c 128,-1,2
 -151 -38 -151 -38 -171.5 -122 c 0,3,4
 -228.862980465 -357.048310198 -228.862980465 -357.048310198 -467.5 -442 c 0,5,6
 -622 -497 -622 -497 -839.5 -497 c 0,7,8
 -1249.96296296 -497 -1249.96296296 -497 -1409 -384 c 0,9,10
 -1486 -331 -1486 -331 -1520 -260.5 c 128,-1,11
 -1554 -190 -1554 -190 -1554 -90 c 2,12,-1
 -1554 -59 l 2,13,14
 -1554 -55 -1554 -55 -1553 -50 c 1,15,-1
 -1404 -57 l 1,16,-1
 -1404 -66 l 2,17,18
 -1404 -185.76744186 -1404 -185.76744186 -1344.5 -242.5 c 0,19,20
 -1323 -263 -1323 -263 -1278 -290 c 128,-1,21
 -1233 -317 -1233 -317 -1120.5 -334.5 c 128,-1,22
 -1008 -352 -1008 -352 -883.5 -352 c 0,23,24
 -566.6 -352 -566.6 -352 -438.5 -260.5 c 0,25,26
 -344.58190709 -193.415647922 -344.58190709 -193.415647922 -316.5 -67.5 c 0,27,28
 -301 2 -301 2 -301 95 c 2,29,-1
 -301 122 l 1,30,-1
 -154 133 l 1,0,1
EndSplineSet
EndChar

StartChar: uni0DB1_uni0DCA_uni200D_uni0DAF_uni0DCA_uni200D_uni0DBB
Encoding: 65591 -1 187
Width: 2264
Flags: W
LayerCount: 2
Back
Fore
SplineSet
1550 1027 m 1,0,1
 1383.25 1114 1383.25 1114 1202.625 1114 c 128,-1,2
 1022 1114 1022 1114 902.5 1060 c 128,-1,3
 783 1006 783 1006 701 898 c 1,4,5
 777.363636364 919 777.363636364 919 876 919 c 0,6,7
 1176 919 1176 919 1282 713 c 1,8,9
 1390.55035971 899.086330935 1390.55035971 899.086330935 1718 926 c 0,10,11
 1791 932 1791 932 1882 932 c 2,12,-1
 2057 932 l 1,13,14
 2052 1020 2052 1020 2001.5 1069.5 c 128,-1,15
 1951 1119 1951 1119 1864 1119 c 128,-1,16
 1777 1119 1777 1119 1737.5 1088.5 c 128,-1,17
 1698 1058 1698 1058 1698 1007 c 0,18,19
 1698 995 1698 995 1701 977 c 1,20,-1
 1554 959 l 1,21,22
 1550 987 1550 987 1550 1009 c 2,23,-1
 1550 1027 l 1,0,1
587 676 m 0,24,25
 521.035933034 484.104532462 521.035933034 484.104532462 391 420.5 c 0,26,27
 345 398 345 398 287 388 c 1,28,29
 355 252 355 252 470.5 188 c 128,-1,30
 586 124 586 124 768 124 c 0,31,32
 1092.12307692 124 1092.12307692 124 1180 328 c 0,33,34
 1208 393 1208 393 1208 474 c 0,35,36
 1208 623 1208 623 1111 701 c 128,-1,37
 1014 779 1014 779 839 779 c 0,38,39
 712 779 712 779 618 755 c 1,40,41
 608 733.75 608 733.75 587 676 c 0,24,25
2050 -172.5 m 128,-1,43
 2074 -117 2074 -117 2074 -66.5 c 128,-1,44
 2074 -16 2074 -16 2073 -6.5 c 128,-1,45
 2072 3 2072 3 2072 6 c 128,-1,46
 2072 9 2072 9 2071 10 c 0,47,48
 1963 -22 1963 -22 1808 -22 c 0,49,50
 1415 -22 1415 -22 1283 224 c 1,51,52
 1161 -22 1161 -22 760 -22 c 0,53,54
 491 -22 491 -22 309 118 c 0,55,56
 127.831833254 260.921553766 127.831833254 260.921553766 78 534 c 1,57,-1
 224 558 l 1,58,59
 230 532 230 532 238 508 c 1,60,61
 313 517 313 517 359 561.5 c 128,-1,62
 405 606 405 606 436 687 c 2,63,-1
 452 729 l 2,64,65
 492.017699115 834.309734513 492.017699115 834.309734513 511 874 c 1,66,67
 474.266666667 1077 474.266666667 1077 349 1077 c 0,68,69
 292 1077 292 1077 256 1044.5 c 128,-1,70
 220 1012 220 1012 220 953.833333333 c 128,-1,71
 220 895.666666667 220 895.666666667 242 826 c 1,72,-1
 99 797 l 1,73,74
 72 882.153846154 72 882.153846154 72 949.576923077 c 0,75,76
 72 1140.59803922 72 1140.59803922 232 1195.5 c 0,77,78
 283 1213 283 1213 347 1213 c 0,79,80
 550 1213 550 1213 616 999 c 1,81,82
 816.787401575 1254 816.787401575 1254 1195 1254 c 0,83,84
 1438.76595745 1254 1438.76595745 1254 1603 1161 c 1,85,86
 1651.75 1214.625 1651.75 1214.625 1706.875 1234.3125 c 128,-1,87
 1762 1254 1762 1254 1850 1254 c 0,88,89
 2022 1254 2022 1254 2112.5 1158 c 128,-1,90
 2203 1062 2203 1062 2203 880 c 2,91,-1
 2203 797 l 1,92,-1
 1888 797 l 2,93,94
 1641.5 797 1641.5 797 1541.5 757 c 0,95,96
 1358 683.6 1358 683.6 1358 468 c 0,97,98
 1358 310 1358 310 1478 216 c 0,99,100
 1600 124 1600 124 1815 124 c 128,-1,101
 2030 124 2030 124 2206 212 c 1,102,-1
 2248 75 l 1,103,104
 2235 68 2235 68 2215 58 c 1,105,106
 2224 18.4 2224 18.4 2224 -67.3 c 0,107,108
 2224 -252.169230769 2224 -252.169230769 2093 -361 c 0,109,110
 1959.32075472 -470 1959.32075472 -470 1702.66037736 -470 c 128,-1,111
 1446 -470 1446 -470 1315.5 -367.5 c 128,-1,112
 1185 -265 1185 -265 1185 -73 c 2,113,-1
 1185 -46 l 2,114,115
 1185 -41 1185 -41 1186 -36 c 1,116,-1
 1335 -43 l 1,117,-1
 1335 -50 l 2,118,119
 1335 -197.717391304 1335 -197.717391304 1426 -263 c 0,120,121
 1513.1875 -325 1513.1875 -325 1703 -325 c 128,-1,122
 1892.91176471 -325 1892.91176471 -325 1980 -262 c 0,123,42
 2026 -228 2026 -228 2050 -172.5 c 128,-1,43
EndSplineSet
EndChar

StartChar: uni0D9E_uni0DCA
Encoding: 65598 -1 194
Width: 1824
Flags: W
LayerCount: 2
Back
Fore
SplineSet
439 1515 m 1,0,1
 645 1553 645 1553 853.5 1553 c 0,2,3
 1522.96428571 1553 1522.96428571 1553 1686 1055 c 0,4,5
 1741 887 1741 887 1741 659 c 0,6,7
 1741 320 1741 320 1616.5 149 c 128,-1,8
 1492 -22 1492 -22 1251 -22 c 0,9,10
 1142 -22 1142 -22 1059.5 20.5 c 128,-1,11
 977 63 977 63 910 158 c 1,12,13
 843 60 843 60 759.5 19 c 128,-1,14
 676 -22 676 -22 572.5 -22 c 0,15,16
 376.076923077 -22 376.076923077 -22 263 83 c 1,17,18
 153 191 153 191 153 374 c 0,19,20
 153 540 153 540 254 641 c 0,21,22
 356 743 356 743 594 813 c 2,23,-1
 665 834 l 2,24,25
 747.055555556 857.444444444 747.055555556 857.444444444 784.527777778 873.222222222 c 0,26,27
 860 905 860 905 860 978.5 c 128,-1,28
 860 1052 860 1052 773.5 1085.5 c 128,-1,29
 687 1119 687 1119 509 1119 c 2,30,-1
 503 1119 l 1,31,32
 546 1051.42857143 546 1051.42857143 546 983.214285714 c 0,33,34
 546 807.666666667 546 807.666666667 394 757 c 0,35,36
 349 742 349 742 293.5 742 c 0,37,38
 120.345679012 742 120.345679012 742 68 874.5 c 0,39,40
 52 915 52 915 52 973.5 c 0,41,42
 52 1102.38333333 52 1102.38333333 173 1177 c 256,43,44
 297.864864865 1254 297.864864865 1254 524 1254 c 0,45,46
 1009 1254 1009 1254 1009 978 c 0,47,48
 1007.10752688 860.666666667 1007.10752688 860.666666667 921 800 c 0,49,50
 849.463576159 747.973509934 849.463576159 747.973509934 703.731788079 708.986754967 c 128,-1,51
 558 670 558 670 490.5 639 c 128,-1,52
 423 608 423 608 383 570.5 c 0,53,54
 303 495.5 303 495.5 303 373.25 c 128,-1,55
 303 251 303 251 370.5 187.5 c 128,-1,56
 438 124 438 124 572.5 124 c 128,-1,57
 707 124 707 124 774.5 194.5 c 128,-1,58
 842 265 842 265 842 425 c 2,59,-1
 842 439 l 1,60,-1
 980 439 l 1,61,-1
 980 425 l 2,62,63
 980 269 980 269 1045.5 196.5 c 128,-1,64
 1111 124 1111 124 1246 124 c 0,65,66
 1586 124 1586 124 1586 659 c 0,67,68
 1586 1047.98913043 1586 1047.98913043 1403 1229 c 0,69,70
 1222 1410 1222 1410 835 1410 c 0,71,72
 512 1410 512 1410 236 1318 c 1,73,-1
 195 1453 l 1,74,75
 214.125 1459.75 214.125 1459.75 299 1484 c 1,76,77
 287 1530 287 1530 287 1582 c 0,78,79
 287 1959 287 1959 924 1959 c 0,80,81
 1617 1959 1617 1959 1617 1577 c 0,82,83
 1617 1485 1617 1485 1575 1387 c 1,84,-1
 1440 1429 l 1,85,86
 1470 1493 1470 1493 1470 1575 c 0,87,88
 1470 1700 1470 1700 1334.5 1758 c 128,-1,89
 1199 1816 1199 1816 927 1816 c 0,90,91
 685.148148148 1816 685.148148148 1816 569 1767 c 0,92,93
 434 1708.84615385 434 1708.84615385 434 1577 c 0,94,95
 434 1557.5 434 1557.5 439 1515 c 1,0,1
301 874 m 0,96,97
 407 874 407 874 407 978 c 0,98,99
 407 1057 407 1057 367 1109 c 1,100,101
 279 1096 279 1096 238 1060 c 128,-1,102
 197 1024 197 1024 197 976 c 256,103,104
 197 928 197 928 223.5 901 c 128,-1,105
 250 874 250 874 301 874 c 0,96,97
EndSplineSet
EndChar

StartChar: uni0DA0_uni0DCA
Encoding: 65600 -1 196
Width: 1668
Flags: W
LayerCount: 2
Back
Fore
SplineSet
348 1516 m 1,0,1
 534.947368421 1553 534.947368421 1553 703.973684211 1553 c 0,2,3
 1285.34383954 1553 1285.34383954 1553 1494 1192.5 c 0,4,5
 1595 1018 1595 1018 1595 768 c 0,6,7
 1597.01786155 394.695613559 1597.01786155 394.695613559 1374 186 c 0,8,9
 1147.60674947 -25.9864073119 1147.60674947 -25.9864073119 739 -22 c 1,10,11
 433.99045967 -23.9551893611 433.99045967 -23.9551893611 261 117 c 0,12,13
 95.8751461305 249.507598784 95.8751461305 249.507598784 100 464 c 1,14,15
 100 699.287234043 100 699.287234043 293 804 c 1,16,17
 231.75 797 231.75 797 112 797 c 2,18,-1
 62 797 l 1,19,-1
 62 932 l 1,20,-1
 803 932 l 1,21,22
 797 1022 797 1022 747 1070.5 c 128,-1,23
 697 1119 697 1119 612 1119 c 0,24,25
 455 1119 455 1119 455 1005 c 2,26,-1
 455 992 l 1,27,-1
 456 978 l 1,28,-1
 310 971 l 1,29,30
 307 1004 307 1004 307 1016 c 0,31,32
 307 1131 307 1131 384 1192.5 c 128,-1,33
 461 1254 461 1254 615 1254 c 128,-1,34
 769 1254 769 1254 858 1158 c 128,-1,35
 947 1062 947 1062 947 880 c 2,36,-1
 947 797 l 1,37,-1
 770 797 l 2,38,39
 590.428571429 797 590.428571429 797 533.714285714 787 c 0,40,41
 249 736.798488665 249 736.798488665 249 476 c 0,42,43
 249 311.746031746 249 311.746031746 376 217 c 0,44,45
 505.391304348 124 505.391304348 124 739 124 c 0,46,47
 1078.76915799 120.049195837 1078.76915799 120.049195837 1263 296 c 0,48,49
 1443.04103802 465.926372963 1443.04103802 465.926372963 1441 768 c 0,50,51
 1441 1083.86170213 1441 1083.86170213 1254 1245 c 0,52,53
 1067.13253012 1410 1067.13253012 1410 741 1410 c 0,54,55
 430.68 1410 430.68 1410 151 1318 c 1,56,-1
 110 1453 l 1,57,-1
 208 1483 l 1,58,59
 196 1529 196 1529 196 1582 c 0,60,61
 196 1766 196 1766 351 1862.5 c 128,-1,62
 506 1959 506 1959 813 1959 c 0,63,64
 1489 1959 1489 1959 1489 1577 c 0,65,66
 1489 1485 1489 1485 1447 1387 c 1,67,-1
 1312 1429 l 1,68,69
 1342 1493 1342 1493 1342 1575 c 0,70,71
 1342 1816 1342 1816 816 1816 c 0,72,73
 464.67032967 1816 464.67032967 1816 375 1688.5 c 0,74,75
 343 1643 343 1643 343 1577 c 0,76,77
 343 1556 343 1556 348 1516 c 1,0,1
EndSplineSet
EndChar

StartChar: uni0DA1_uni0DCA
Encoding: 65601 -1 197
Width: 1639
Flags: W
LayerCount: 2
Back
Fore
SplineSet
1063 1715 m 0,0,1
 1174 1715 1174 1715 1174 1801 c 0,2,3
 1174 1836 1174 1836 1154 1857 c 128,-1,4
 1134 1878 1134 1878 1104.5 1878 c 0,5,6
 1048.8 1878 1048.8 1878 1032.9 1857 c 0,7,8
 1005 1820.1509434 1005 1820.1509434 1005 1746 c 2,9,-1
 1005 1720 l 1,10,11
 1040 1715 1040 1715 1063 1715 c 0,0,1
1073 1600 m 0,12,13
 1025 1600 1025 1600 1005 1604 c 1,14,-1
 1005 1458 l 2,15,16
 1005 1356.5 1005 1356.5 998 1297 c 1,17,18
 1188.42881708 1533.53263595 1188.42881708 1533.53263595 1525 1659 c 1,19,-1
 1585 1530 l 1,20,21
 1267 1414 1267 1414 1097 1224 c 1,22,23
 1149 1254 1149 1254 1211 1254 c 0,24,25
 1405.38709677 1254 1405.38709677 1254 1462 1059 c 0,26,27
 1480 997 1480 997 1480 924.9 c 128,-1,28
 1480 852.8 1480 852.8 1469 789 c 1,29,30
 1565 685 1565 685 1565 534 c 0,31,32
 1565 119.48409894 1565 119.48409894 1134.5 13 c 0,33,34
 993 -22 993 -22 807.5 -22 c 0,35,36
 444.594202899 -22 444.594202899 -22 256 121 c 0,37,38
 74 257.5 74 257.5 74 514 c 0,39,40
 74 932 74 932 599 932 c 2,41,-1
 630 932 l 1,42,43
 625 1023 625 1023 575.5 1071 c 128,-1,44
 526 1119 526 1119 441 1119 c 0,45,46
 284 1119 284 1119 284 998 c 0,47,48
 284 979.75 284 979.75 293 937 c 1,49,-1
 149 914 l 1,50,51
 135 964 135 964 135 1016 c 0,52,53
 135 1131 135 1131 212 1192.5 c 128,-1,54
 289 1254 289 1254 443.5 1254 c 128,-1,55
 598 1254 598 1254 687 1158 c 128,-1,56
 776 1062 776 1062 776 880 c 2,57,-1
 776 797 l 1,58,-1
 600 797 l 2,59,60
 309.211009174 797 309.211009174 797 245.5 635.5 c 0,61,62
 224 581 224 581 224 499 c 0,63,64
 224 328 224 328 376 226 c 256,65,66
 528 124 528 124 808 124 c 0,67,68
 1102.49019608 124 1102.49019608 124 1258 227 c 0,69,70
 1415 330.341772152 1415 330.341772152 1415 517 c 0,71,72
 1415 586.857142857 1415 586.857142857 1402 624 c 1,73,74
 1313.37142857 483 1313.37142857 483 1129 483 c 0,75,76
 930.861060989 479.523878263 930.861060989 479.523878263 864 681.5 c 0,77,78
 840 754 840 754 840 854 c 128,-1,79
 840 954 840 954 866 1044 c 1,80,-1
 866 1671 l 2,81,82
 866 1770.58333333 866 1770.58333333 849 1798.29166667 c 0,83,84
 819.343921065 1846.62816787 819.343921065 1846.62816787 763 1868 c 1,85,-1
 816 1992 l 1,86,87
 921.334170854 1962.18844221 921.334170854 1962.18844221 949 1895 c 1,88,89
 996.510204082 1992 996.510204082 1992 1109 1992 c 0,90,91
 1194 1992 1194 1992 1243 1942.5 c 128,-1,92
 1292 1893 1292 1893 1292 1799.5 c 128,-1,93
 1292 1706 1292 1706 1235.5 1653 c 128,-1,94
 1179 1600 1179 1600 1073 1600 c 0,12,13
1338 915 m 2,95,96
 1338 1129 1338 1129 1171 1129 c 0,97,98
 1092 1129 1092 1129 1041.5 1077 c 128,-1,99
 991 1025 991 1025 979 932 c 1,100,-1
 1037 932 l 2,101,102
 1217 932 1217 932 1337 880 c 1,103,-1
 1337 889 l 2,104,105
 1337 893 1337 893 1338 897 c 1,106,-1
 1338 915 l 2,95,96
1313 736 m 1,107,108
 1222.48387097 797 1222.48387097 797 1019 797 c 2,109,-1
 979 797 l 1,110,111
 989.65675446 662.0144435 989.65675446 662.0144435 1066 631 c 0,112,113
 1098 618 1098 618 1152.5 618 c 0,114,115
 1271 618 1271 618 1313 736 c 1,107,108
EndSplineSet
EndChar

